#define InputMoney_01670236422_width 256
#define InputMoney_01670236422_height 160
static char InputMoney_01670236422_bits[] = {
  0xFF, 0xFF, 0xFF, 0xFF, 0xFF, 0xFF, 0xFF, 0xFF, 0xFF, 0xFF, 0xFF, 0xFF, 
  0xFF, 0xFF, 0xFF, 0xFF, 0xFF, 0xFF, 0xFF, 0xFF, 0xFF, 0xFF, 0xFF, 0xFF, 
  0xFF, 0xFF, 0xFF, 0xFF, 0xFF, 0xFF, 0xFF, 0xFF, 0x01, 0x00, 0x00, 0x00, 
  0x00, 0x00, 0x00, 0x00, 0x00, 0x00, 0x00, 0x00, 0x00, 0x00, 0x00, 0x00, 
  0x00, 0x00, 0x00, 0x00, 0x00, 0x00, 0x00, 0x00, 0x00, 0x00, 0x00, 0x00, 
  0x00, 0x00, 0x00, 0x80, 0x01, 0x00, 0x00, 0x00, 0x00, 0x00, 0x00, 0x00, 
  0x00, 0x00, 0x00, 0x00, 0x00, 0x00, 0x00, 0x00, 0x00, 0x00, 0x00, 0x00, 
  0x00, 0x00, 0x00, 0x00, 0x00, 0x00, 0x00, 0x00, 0x00, 0x00, 0x00, 0x80, 
  0x01, 0x00, 0x00, 0x00, 0x00, 0x00, 0x00, 0x00, 0x00, 0x00, 0x00, 0x00, 
  0x00, 0x00, 0x00, 0x00, 0x00, 0x00, 0x00, 0x00, 0x00, 0x00, 0x00, 0x00, 
  0x00, 0x00, 0x00, 0x00, 0x00, 0x00, 0x00, 0x80, 0x01, 0x00, 0x00, 0x00, 
  0x00, 0x00, 0x00, 0x00, 0x00, 0x00, 0x00, 0x00, 0x00, 0x00, 0x00, 0x00, 
  0x00, 0x00, 0x00, 0x00, 0x00, 0x00, 0x00, 0x00, 0x00, 0x00, 0x00, 0x00, 
  0x00, 0x00, 0x00, 0x80, 0x01, 0x00, 0x00, 0x00, 0x00, 0x00, 0x00, 0x00, 
  0x00, 0x00, 0x00, 0x00, 0x00, 0x00, 0x00, 0x00, 0x00, 0x00, 0x00, 0x00, 
  0x00, 0x00, 0x00, 0x00, 0x00, 0x00, 0x00, 0x00, 0x00, 0x00, 0x00, 0x80, 
  0x01, 0x00, 0x00, 0x00, 0x00, 0x00, 0x00, 0x00, 0x00, 0x00, 0x00, 0x00, 
  0x00, 0x00, 0x00, 0x00, 0x00, 0x00, 0x00, 0x00, 0x00, 0x00, 0x00, 0x00, 
  0x00, 0x00, 0x00, 0x00, 0x00, 0x00, 0x00, 0x80, 0x01, 0x00, 0x00, 0x00, 
  0x00, 0x00, 0x00, 0x00, 0x00, 0x00, 0x00, 0x00, 0x00, 0x00, 0x00, 0x00, 
  0x00, 0x00, 0x00, 0x00, 0x00, 0x00, 0x00, 0x00, 0x00, 0x00, 0x00, 0x00, 
  0x00, 0x00, 0x00, 0x80, 0x01, 0x00, 0x00, 0x00, 0x00, 0x00, 0x00, 0x00, 
  0x00, 0x00, 0x00, 0x00, 0x00, 0x00, 0x00, 0x00, 0x00, 0x00, 0x00, 0x00, 
  0x00, 0x00, 0x00, 0x00, 0x00, 0x00, 0x00, 0x00, 0x00, 0x00, 0x00, 0x80, 
  0x01, 0x00, 0x00, 0x00, 0x00, 0x00, 0x00, 0x00, 0x00, 0x00, 0x00, 0x00, 
  0x00, 0x00, 0x00, 0x00, 0x00, 0x00, 0x00, 0x00, 0x00, 0x00, 0x00, 0x00, 
  0x00, 0x00, 0x00, 0x00, 0x00, 0x00, 0x00, 0x80, 0x01, 0x00, 0x00, 0x00, 
  0x00, 0x00, 0x00, 0x00, 0x00, 0x00, 0x00, 0x00, 0x00, 0x00, 0x00, 0x00, 
  0x00, 0x00, 0x00, 0x00, 0x00, 0x00, 0x00, 0x00, 0x00, 0x00, 0x00, 0x00, 
  0x00, 0x00, 0x00, 0x80, 0x01, 0x00, 0x00, 0x00, 0x00, 0x00, 0x00, 0x00, 
  0x00, 0x00, 0x00, 0x00, 0x00, 0x00, 0x00, 0x00, 0x00, 0x00, 0x00, 0x00, 
  0x00, 0x00, 0x00, 0x00, 0x00, 0x00, 0x00, 0x00, 0x00, 0x00, 0x00, 0x80, 
  0x01, 0x00, 0x00, 0x00, 0x00, 0xE0, 0xFF, 0xFF, 0x07, 0x1F, 0x00, 0x00, 
  0x00, 0x00, 0x1F, 0x1F, 0xE0, 0xFF, 0xFF, 0xFF, 0x1F, 0x00, 0xF8, 0x1F, 
  0xE0, 0xE7, 0x07, 0x00, 0x00, 0x00, 0x00, 0x80, 0x01, 0x00, 0x00, 0x00, 
  0x00, 0xE0, 0xFF, 0xFF, 0x07, 0x1F, 0x00, 0x00, 0x00, 0x00, 0x1F, 0x1F, 
  0xE0, 0xFF, 0xFF, 0xFF, 0x1F, 0x00, 0xF8, 0x1F, 0xE0, 0xE7, 0x07, 0x00, 
  0x00, 0x00, 0x00, 0x80, 0x01, 0x00, 0x00, 0x00, 0x00, 0xE0, 0xFF, 0xFF, 
  0x07, 0x1F, 0x00, 0x00, 0x00, 0x00, 0x1F, 0x1F, 0xE0, 0xFF, 0xFF, 0xFF, 
  0x1F, 0x00, 0xF8, 0x1F, 0xE0, 0xE7, 0x07, 0x00, 0x00, 0x00, 0x00, 0x80, 
  0x01, 0x00, 0x00, 0x00, 0x00, 0x00, 0x1F, 0xF8, 0x00, 0x1F, 0x00, 0xFF, 
  0xFF, 0x07, 0x1F, 0x1F, 0x00, 0x00, 0x00, 0x00, 0x1F, 0x00, 0x1F, 0xF8, 
  0xE0, 0xE7, 0x07, 0x00, 0x00, 0x00, 0x00, 0x80, 0x01, 0x00, 0x00, 0x00, 
  0x00, 0x00, 0x1F, 0xF8, 0x00, 0x1F, 0x00, 0xFF, 0xFF, 0x07, 0x1F, 0x1F, 
  0x00, 0x00, 0x00, 0x00, 0x1F, 0x00, 0x1F, 0xF8, 0xE0, 0xE7, 0x07, 0x00, 
  0x00, 0x00, 0x00, 0x80, 0x01, 0x00, 0x00, 0x00, 0x00, 0x00, 0x1F, 0xF8, 
  0x00, 0x1F, 0x00, 0x1F, 0xE0, 0x07, 0x1F, 0x1F, 0x00, 0x00, 0x00, 0x00, 
  0x1F, 0xE0, 0x07, 0xE0, 0xE7, 0xE7, 0x07, 0x00, 0x00, 0x00, 0x00, 0x80, 
  0x01, 0x00, 0x00, 0x00, 0x00, 0x00, 0x1F, 0xF8, 0x00, 0x1F, 0x00, 0x1F, 
  0xE0, 0x07, 0x1F, 0x1F, 0x00, 0x00, 0x00, 0x00, 0x1F, 0xE0, 0x07, 0xE0, 
  0xE7, 0xE7, 0x07, 0x00, 0x00, 0x00, 0x00, 0x80, 0x01, 0x00, 0x00, 0x00, 
  0x00, 0x00, 0x1F, 0xF8, 0x00, 0x1F, 0x00, 0x1F, 0xE0, 0x07, 0x1F, 0x1F, 
  0x00, 0x00, 0x00, 0x00, 0x1F, 0xE0, 0x07, 0xE0, 0xE7, 0xE7, 0x07, 0x00, 
  0x00, 0x00, 0x00, 0x80, 0x01, 0x00, 0x00, 0x00, 0x00, 0x00, 0x1F, 0xF8, 
  0x00, 0xFF, 0x1F, 0x1F, 0xE0, 0x07, 0x1F, 0x1F, 0x00, 0x00, 0x00, 0x00, 
  0x1F, 0xE0, 0x07, 0xE0, 0xE7, 0xFF, 0x07, 0x00, 0x00, 0x00, 0x00, 0x80, 
  0x01, 0x00, 0x00, 0x00, 0x00, 0x00, 0x1F, 0xF8, 0x00, 0xFF, 0x1F, 0x1F, 
  0xE0, 0x07, 0x1F, 0x1F, 0x00, 0x00, 0x00, 0x00, 0x1F, 0xE0, 0x07, 0xE0, 
  0xE7, 0xFF, 0x07, 0x00, 0x00, 0x00, 0x00, 0x80, 0x01, 0x00, 0x00, 0x00, 
  0x00, 0x00, 0x1F, 0xF8, 0x00, 0xFF, 0x1F, 0x1F, 0xE0, 0x07, 0x1F, 0x1F, 
  0x00, 0x00, 0x00, 0x00, 0x1F, 0xE0, 0x07, 0xE0, 0xE7, 0xFF, 0x07, 0x00, 
  0x00, 0x00, 0x00, 0x80, 0x01, 0x00, 0x00, 0x00, 0x00, 0x00, 0x1F, 0xF8, 
  0x00, 0x1F, 0x00, 0x1F, 0xE0, 0x07, 0x1F, 0x1F, 0x00, 0x00, 0x00, 0x00, 
  0x1F, 0xE0, 0x07, 0xE0, 0xE7, 0xE7, 0x07, 0x00, 0x00, 0x00, 0x00, 0x80, 
  0x01, 0x00, 0x00, 0x00, 0x00, 0x00, 0x1F, 0xF8, 0x00, 0x1F, 0x00, 0x1F, 
  0xE0, 0x07, 0x1F, 0x1F, 0x00, 0x00, 0x00, 0x00, 0x1F, 0xE0, 0x07, 0xE0, 
  0xE7, 0xE7, 0x07, 0x00, 0x00, 0x00, 0x00, 0x80, 0x01, 0x00, 0x00, 0x00, 
  0x00, 0x00, 0x1F, 0xF8, 0x00, 0x1F, 0x00, 0x1F, 0xE0, 0x07, 0x1F, 0x1F, 
  0x00, 0x00, 0x00, 0xE0, 0x07, 0x00, 0x1F, 0xF8, 0xE0, 0xE7, 0x07, 0x00, 
  0x00, 0x00, 0x00, 0x80, 0x01, 0x00, 0x00, 0x00, 0x00, 0x00, 0x1F, 0xF8, 
  0x00, 0x1F, 0x00, 0x1F, 0xE0, 0x07, 0x1F, 0x1F, 0x00, 0x00, 0x00, 0xE0, 
  0x07, 0x00, 0x1F, 0xF8, 0xE0, 0xE7, 0x07, 0x00, 0x00, 0x00, 0x00, 0x80, 
  0x01, 0x00, 0x00, 0x00, 0x00, 0x00, 0x1F, 0xF8, 0x00, 0x1F, 0x00, 0x1F, 
  0xE0, 0x07, 0x1F, 0x1F, 0x00, 0x00, 0x00, 0xE0, 0x07, 0x00, 0x1F, 0xF8, 
  0xE0, 0xE7, 0x07, 0x00, 0x00, 0x00, 0x00, 0x80, 0x01, 0x00, 0x00, 0x00, 
  0x00, 0xE0, 0xFF, 0xFF, 0x07, 0x1F, 0x00, 0x1F, 0xE0, 0x07, 0xFF, 0x1F, 
  0xF8, 0xFF, 0xFF, 0xFF, 0xFF, 0x00, 0xF8, 0x1F, 0xE0, 0xE7, 0x07, 0x00, 
  0x00, 0x00, 0x00, 0x80, 0x01, 0x00, 0x00, 0x00, 0x00, 0xE0, 0xFF, 0xFF, 
  0x07, 0x1F, 0x00, 0x1F, 0xE0, 0x07, 0xFF, 0x1F, 0xF8, 0xFF, 0xFF, 0xFF, 
  0xFF, 0x00, 0xF8, 0x1F, 0xE0, 0xE7, 0x07, 0x00, 0x00, 0x00, 0x00, 0x80, 
  0x01, 0x00, 0x00, 0x00, 0x00, 0xE0, 0xFF, 0xFF, 0x07, 0x1F, 0x00, 0x1F, 
  0xE0, 0x07, 0xFF, 0x1F, 0xF8, 0xFF, 0xFF, 0xFF, 0xFF, 0x00, 0xF8, 0x1F, 
  0xE0, 0xE7, 0x07, 0x00, 0x00, 0x00, 0x00, 0x80, 0x01, 0x00, 0x00, 0x00, 
  0x00, 0x00, 0x00, 0x00, 0x00, 0x00, 0x00, 0x1F, 0xE0, 0x07, 0x1F, 0x1F, 
  0x00, 0x00, 0x00, 0x00, 0x00, 0x00, 0x00, 0x00, 0x00, 0x00, 0x00, 0x00, 
  0x00, 0x00, 0x00, 0x80, 0x01, 0x00, 0x00, 0x00, 0x00, 0x00, 0x00, 0x00, 
  0x00, 0x00, 0x00, 0x1F, 0xE0, 0x07, 0x1F, 0x1F, 0x00, 0x00, 0x00, 0x00, 
  0x00, 0x00, 0x00, 0x00, 0x00, 0x00, 0x00, 0x00, 0x00, 0x00, 0x00, 0x80, 
  0x01, 0x00, 0x00, 0x00, 0x00, 0x00, 0x1F, 0x00, 0x00, 0x00, 0x00, 0x1F, 
  0xE0, 0x07, 0x1F, 0x1F, 0xE0, 0xFF, 0xFF, 0xFF, 0x1F, 0x00, 0xFF, 0xFF, 
  0xFF, 0xFF, 0x07, 0x00, 0x00, 0x00, 0x00, 0x80, 0x01, 0x00, 0x00, 0x00, 
  0x00, 0x00, 0x1F, 0x00, 0x00, 0x00, 0x00, 0x1F, 0xE0, 0x07, 0x1F, 0x1F, 
  0xE0, 0xFF, 0xFF, 0xFF, 0x1F, 0x00, 0xFF, 0xFF, 0xFF, 0xFF, 0x07, 0x00, 
  0x00, 0x00, 0x00, 0x80, 0x01, 0x00, 0x00, 0x00, 0x00, 0x00, 0x1F, 0x00, 
  0x00, 0x00, 0x00, 0x1F, 0xE0, 0x07, 0x1F, 0x1F, 0xE0, 0xFF, 0xFF, 0xFF, 
  0x1F, 0x00, 0xFF, 0xFF, 0xFF, 0xFF, 0x07, 0x00, 0x00, 0x00, 0x00, 0x80, 
  0x01, 0x00, 0x00, 0x00, 0x00, 0x00, 0x1F, 0x00, 0x00, 0x00, 0x00, 0x1F, 
  0xE0, 0x07, 0x1F, 0x1F, 0xE0, 0x07, 0x00, 0x00, 0x1F, 0x00, 0x00, 0x00, 
  0x00, 0xE0, 0x07, 0x00, 0x00, 0x00, 0x00, 0x80, 0x01, 0x00, 0x00, 0x00, 
  0x00, 0x00, 0x1F, 0x00, 0x00, 0x00, 0x00, 0x1F, 0xE0, 0x07, 0x1F, 0x1F, 
  0xE0, 0x07, 0x00, 0x00, 0x1F, 0x00, 0x00, 0x00, 0x00, 0xE0, 0x07, 0x00, 
  0x00, 0x00, 0x00, 0x80, 0x01, 0x00, 0x00, 0x00, 0x00, 0x00, 0x1F, 0x00, 
  0x00, 0x00, 0x00, 0x1F, 0xE0, 0x07, 0x1F, 0x1F, 0xE0, 0x07, 0x00, 0x00, 
  0x1F, 0x00, 0x00, 0x00, 0x00, 0xE0, 0x07, 0x00, 0x00, 0x00, 0x00, 0x80, 
  0x01, 0x00, 0x00, 0x00, 0x00, 0x00, 0x1F, 0x00, 0x00, 0x00, 0x00, 0x1F, 
  0xE0, 0x07, 0x1F, 0x1F, 0xE0, 0x07, 0x00, 0x00, 0x1F, 0x00, 0x00, 0x00, 
  0x00, 0xE0, 0x07, 0x00, 0x00, 0x00, 0x00, 0x80, 0x01, 0x00, 0x00, 0x00, 
  0x00, 0x00, 0x1F, 0x00, 0x00, 0x00, 0x00, 0x1F, 0xE0, 0x07, 0x1F, 0x1F, 
  0xE0, 0x07, 0x00, 0x00, 0x1F, 0x00, 0x00, 0x00, 0x00, 0xE0, 0x07, 0x00, 
  0x00, 0x00, 0x00, 0x80, 0x01, 0x00, 0x00, 0x00, 0x00, 0x00, 0x1F, 0x00, 
  0x00, 0x00, 0x00, 0xF8, 0xFF, 0x00, 0x1F, 0x1F, 0xE0, 0x07, 0x00, 0x00, 
  0x1F, 0x00, 0x00, 0x00, 0x00, 0xE0, 0x07, 0x00, 0x00, 0x00, 0x00, 0x80, 
  0x01, 0x00, 0x00, 0x00, 0x00, 0x00, 0x1F, 0x00, 0x00, 0x00, 0x00, 0xF8, 
  0xFF, 0x00, 0x1F, 0x1F, 0xE0, 0x07, 0x00, 0x00, 0x1F, 0x00, 0x00, 0x00, 
  0x00, 0xE0, 0x07, 0x00, 0x00, 0x00, 0x00, 0x80, 0x01, 0x00, 0x00, 0x00, 
  0x00, 0x00, 0x1F, 0x00, 0x00, 0x00, 0x00, 0xF8, 0xFF, 0x00, 0x1F, 0x1F, 
  0xE0, 0x07, 0x00, 0x00, 0x1F, 0x00, 0x00, 0x00, 0x00, 0xE0, 0x07, 0x00, 
  0x00, 0x00, 0x00, 0x80, 0x01, 0x00, 0x00, 0x00, 0x00, 0x00, 0xF8, 0xFF, 
  0xFF, 0x1F, 0x00, 0x00, 0x00, 0x00, 0x1F, 0x1F, 0x00, 0xFF, 0xFF, 0xFF, 
  0x07, 0x00, 0x00, 0x00, 0x00, 0xE0, 0x00, 0x00, 0x00, 0x00, 0x00, 0x80, 
  0x01, 0x00, 0x00, 0x00, 0x00, 0x00, 0xF8, 0xFF, 0xFF, 0x1F, 0x00, 0x00, 
  0x00, 0x00, 0x1F, 0x1F, 0x00, 0xFF, 0xFF, 0xFF, 0x07, 0x00, 0x00, 0x00, 
  0x00, 0xE0, 0x00, 0x00, 0x00, 0x00, 0x00, 0x80, 0x01, 0x00, 0x00, 0x00, 
  0x00, 0x00, 0xF8, 0xFF, 0xFF, 0x1F, 0x00, 0x00, 0x00, 0x00, 0x1F, 0x1F, 
  0x00, 0xFF, 0xFF, 0xFF, 0x07, 0x00, 0x00, 0x00, 0x00, 0xE0, 0x00, 0x00, 
  0x00, 0x00, 0x00, 0x80, 0x01, 0x00, 0x00, 0x00, 0x00, 0x00, 0x00, 0x00, 
  0x00, 0x00, 0x00, 0x00, 0x00, 0x00, 0x00, 0x00, 0x00, 0x00, 0x00, 0x00, 
  0x00, 0x00, 0x00, 0x00, 0x00, 0x00, 0x00, 0x00, 0x00, 0x00, 0x00, 0x80, 
  0x01, 0x00, 0x00, 0x00, 0x00, 0x00, 0x00, 0x00, 0x00, 0x00, 0x00, 0x00, 
  0x00, 0x00, 0x00, 0x00, 0x00, 0x00, 0x00, 0x00, 0x00, 0x00, 0x00, 0x00, 
  0x00, 0x00, 0x00, 0x00, 0x00, 0x00, 0x00, 0x80, 0x01, 0x00, 0x00, 0x00, 
  0x00, 0x00, 0x00, 0x00, 0x00, 0x00, 0x00, 0x00, 0x00, 0x00, 0x00, 0x00, 
  0x00, 0x00, 0x00, 0x00, 0x00, 0x00, 0x00, 0x00, 0x00, 0x00, 0x00, 0x00, 
  0x00, 0x00, 0x00, 0x80, 0x01, 0x00, 0x00, 0x00, 0x00, 0x00, 0x00, 0x00, 
  0x00, 0x00, 0x00, 0x00, 0x00, 0x00, 0x00, 0x00, 0x00, 0x00, 0x00, 0x00, 
  0x00, 0x00, 0x00, 0x00, 0x00, 0x00, 0x00, 0x00, 0x00, 0x00, 0x00, 0x80, 
  0x01, 0x00, 0x00, 0x00, 0x00, 0x00, 0x00, 0x00, 0x00, 0x00, 0x00, 0x00, 
  0x00, 0x00, 0x00, 0x00, 0x00, 0x00, 0x00, 0x00, 0x00, 0x00, 0x00, 0x00, 
  0x00, 0x00, 0x00, 0x00, 0x00, 0x00, 0x00, 0x80, 0x01, 0x00, 0x00, 0x00, 
  0x00, 0x00, 0x00, 0x00, 0x00, 0x00, 0x00, 0x00, 0x00, 0x00, 0x00, 0x00, 
  0x00, 0x00, 0x00, 0x00, 0x00, 0x00, 0x00, 0x00, 0x00, 0x00, 0x00, 0x00, 
  0x00, 0x00, 0x00, 0x80, 0x01, 0x00, 0x00, 0x00, 0x00, 0x00, 0x00, 0x00, 
  0x00, 0x00, 0x00, 0x00, 0x00, 0x00, 0x00, 0x00, 0x00, 0x00, 0x00, 0x00, 
  0x00, 0x00, 0x00, 0x00, 0x00, 0x00, 0x00, 0x00, 0x00, 0x00, 0x00, 0x80, 
  0x01, 0x00, 0x00, 0x00, 0x00, 0x00, 0x00, 0x00, 0x00, 0x00, 0x00, 0x00, 
  0x00, 0x00, 0x00, 0x00, 0x00, 0x00, 0x00, 0x00, 0x00, 0x00, 0x00, 0x00, 
  0x00, 0x00, 0x00, 0x00, 0x00, 0x00, 0x00, 0x80, 0x01, 0x00, 0x00, 0x00, 
  0x00, 0x00, 0x00, 0x00, 0x00, 0x00, 0x00, 0x00, 0x00, 0x00, 0x00, 0x00, 
  0x00, 0x00, 0x00, 0x00, 0x00, 0x00, 0x00, 0x00, 0x00, 0x00, 0x00, 0x00, 
  0x00, 0x00, 0x00, 0x80, 0x01, 0x00, 0x00, 0x00, 0x00, 0x00, 0x00, 0x00, 
  0x00, 0x00, 0x00, 0x00, 0x00, 0x00, 0x00, 0x00, 0x00, 0x00, 0x00, 0x00, 
  0x00, 0x00, 0x00, 0x00, 0x00, 0x00, 0x00, 0x00, 0x00, 0x00, 0x00, 0x80, 
  0x01, 0x00, 0x00, 0x00, 0x00, 0x00, 0x00, 0x00, 0x00, 0x00, 0x00, 0x00, 
  0x00, 0x00, 0x00, 0x00, 0x00, 0x00, 0x00, 0x00, 0x00, 0x00, 0x00, 0x00, 
  0x00, 0x00, 0x00, 0x00, 0x00, 0x00, 0x00, 0x80, 0x01, 0x00, 0x00, 0x00, 
  0x00, 0x00, 0x00, 0x00, 0x00, 0x00, 0x00, 0x00, 0x00, 0x00, 0x00, 0x00, 
  0x00, 0x00, 0x00, 0x00, 0x00, 0x00, 0x00, 0x00, 0x00, 0x00, 0x00, 0x00, 
  0x00, 0x00, 0x00, 0x80, 0x01, 0x00, 0x00, 0x00, 0x00, 0x00, 0x00, 0x00, 
  0x00, 0x00, 0x00, 0x00, 0x00, 0x00, 0x00, 0x00, 0x00, 0x00, 0x00, 0x00, 
  0x00, 0x00, 0x00, 0x00, 0x00, 0x00, 0x00, 0x00, 0x00, 0x00, 0x00, 0x80, 
  0x01, 0x00, 0x00, 0x00, 0x00, 0x00, 0x00, 0x00, 0x00, 0x00, 0x00, 0x00, 
  0x00, 0x00, 0x00, 0x00, 0x00, 0x00, 0x00, 0x00, 0x00, 0x00, 0x00, 0x00, 
  0x00, 0x00, 0x00, 0x00, 0x00, 0x00, 0x00, 0x80, 0x01, 0x00, 0x00, 0x00, 
  0x00, 0x00, 0x00, 0x00, 0x00, 0x00, 0x00, 0x00, 0x00, 0x00, 0x00, 0x00, 
  0x00, 0x00, 0x00, 0x00, 0x00, 0x00, 0x00, 0x00, 0x00, 0x00, 0x00, 0x00, 
  0x00, 0x00, 0x00, 0x80, 0x01, 0x00, 0x00, 0x00, 0x00, 0x00, 0x00, 0x00, 
  0x00, 0x00, 0x00, 0x00, 0x00, 0x00, 0x00, 0x00, 0x00, 0x00, 0x00, 0x00, 
  0x00, 0x00, 0x00, 0x00, 0x00, 0x00, 0x00, 0x00, 0x00, 0x00, 0x00, 0x80, 
  0x01, 0x00, 0x00, 0x00, 0x00, 0x00, 0x00, 0x00, 0x00, 0x00, 0x00, 0x00, 
  0x00, 0x00, 0x00, 0x00, 0x00, 0x00, 0x00, 0x00, 0x00, 0x00, 0x00, 0x00, 
  0x00, 0x00, 0x00, 0x00, 0x00, 0x00, 0x00, 0x80, 0x01, 0x00, 0x00, 0x00, 
  0x00, 0x00, 0x00, 0x00, 0x00, 0x00, 0x00, 0x00, 0x00, 0x00, 0x00, 0x00, 
  0x00, 0x00, 0x00, 0x00, 0x00, 0x00, 0x00, 0x00, 0x00, 0x00, 0xC0, 0xFF, 
  0x01, 0xC0, 0x07, 0x80, 0x01, 0x00, 0x00, 0x00, 0x00, 0x00, 0x00, 0x00, 
  0x00, 0x00, 0x00, 0x00, 0x00, 0x00, 0x00, 0x00, 0x00, 0x00, 0x00, 0x00, 
  0x00, 0x00, 0x00, 0x00, 0x00, 0x00, 0xC0, 0xFF, 0x01, 0xC0, 0x07, 0x80, 
  0x01, 0x00, 0x00, 0x00, 0x00, 0x00, 0x00, 0x00, 0x00, 0x00, 0x00, 0x00, 
  0x00, 0x00, 0x00, 0x00, 0x00, 0x00, 0x00, 0x00, 0x00, 0x00, 0x00, 0x00, 
  0x00, 0x00, 0xC0, 0xFF, 0x01, 0xC0, 0x07, 0x80, 0x01, 0x00, 0x00, 0x00, 
  0x00, 0x00, 0x00, 0x00, 0x00, 0x00, 0x00, 0x00, 0x00, 0x00, 0x00, 0x00, 
  0x00, 0x00, 0x00, 0x00, 0x00, 0x00, 0x00, 0x00, 0x00, 0x00, 0xFE, 0xC1, 
  0x3F, 0xC0, 0x07, 0x80, 0x01, 0x00, 0x00, 0x00, 0x00, 0x00, 0x00, 0x00, 
  0x00, 0x00, 0x00, 0x00, 0x00, 0x00, 0x00, 0x00, 0x00, 0x00, 0x00, 0x00, 
  0x00, 0x00, 0x00, 0x00, 0x00, 0x00, 0xFE, 0xC1, 0x3F, 0xC0, 0x07, 0x80, 
  0x01, 0x00, 0x00, 0x00, 0x00, 0x00, 0x00, 0x00, 0x00, 0x00, 0x00, 0x00, 
  0x00, 0x00, 0x00, 0x00, 0x00, 0x00, 0x00, 0x00, 0x00, 0x00, 0x00, 0x00, 
  0x00, 0x00, 0x3E, 0x00, 0x3E, 0xC0, 0x07, 0x80, 0x01, 0x00, 0x00, 0x00, 
  0x00, 0x00, 0x00, 0x00, 0x00, 0x00, 0x00, 0x00, 0x00, 0x00, 0x00, 0x00, 
  0x00, 0x00, 0x00, 0x00, 0x00, 0x00, 0x00, 0x00, 0x00, 0x00, 0x3E, 0x00, 
  0x3E, 0xC0, 0x07, 0x80, 0x01, 0x00, 0x00, 0x00, 0x00, 0x00, 0x00, 0x00, 
  0x00, 0x00, 0x00, 0x00, 0x00, 0x00, 0x00, 0x00, 0x00, 0x00, 0x00, 0x00, 
  0x00, 0x00, 0x00, 0x00, 0x00, 0x00, 0x3E, 0x00, 0x3E, 0xC0, 0x07, 0x80, 
  0x01, 0x00, 0x00, 0x00, 0x00, 0x00, 0x00, 0x00, 0x00, 0x00, 0x00, 0x00, 
  0x00, 0x00, 0x00, 0x00, 0x00, 0x00, 0x00, 0x00, 0x00, 0x00, 0x00, 0x00, 
  0x00, 0x00, 0xFE, 0xC1, 0x3F, 0xC0, 0x07, 0x80, 0x01, 0x00, 0x00, 0x00, 
  0x00, 0x00, 0x00, 0x00, 0x00, 0x00, 0x00, 0x00, 0x00, 0x00, 0x00, 0x00, 
  0x00, 0x00, 0x00, 0x00, 0x00, 0x00, 0x00, 0x00, 0x00, 0x00, 0xFE, 0xC1, 
  0x3F, 0xC0, 0x07, 0x80, 0x01, 0x00, 0x00, 0x00, 0x00, 0x00, 0x00, 0x00, 
  0x00, 0x00, 0x00, 0x00, 0x00, 0x00, 0x00, 0x00, 0x00, 0x00, 0x00, 0x00, 
  0x00, 0x00, 0x00, 0x00, 0x00, 0x00, 0xFE, 0xC1, 0x3F, 0xC0, 0x07, 0x80, 
  0x01, 0x00, 0x00, 0x00, 0x00, 0x00, 0x00, 0x00, 0x00, 0x00, 0x00, 0x00, 
  0x00, 0x00, 0x00, 0x00, 0x00, 0x00, 0x00, 0x00, 0x00, 0x00, 0x00, 0x00, 
  0x00, 0x00, 0xC0, 0xFF, 0x01, 0xC0, 0x07, 0x80, 0x01, 0x00, 0x00, 0x00, 
  0x00, 0x00, 0x00, 0x00, 0x00, 0x00, 0x00, 0x00, 0x00, 0x00, 0x00, 0x00, 
  0x00, 0x00, 0x00, 0x00, 0x00, 0x00, 0x00, 0x00, 0x00, 0x00, 0xC0, 0xFF, 
  0x01, 0xC0, 0x07, 0x80, 0x01, 0x00, 0x00, 0x00, 0x00, 0x00, 0x00, 0x00, 
  0x00, 0x00, 0x00, 0x00, 0x00, 0x00, 0x00, 0x00, 0x00, 0x00, 0x00, 0x00, 
  0x00, 0x00, 0x00, 0x00, 0x00, 0x00, 0xFE, 0xFF, 0xFF, 0xFF, 0x07, 0x80, 
  0x01, 0x00, 0x00, 0x00, 0x00, 0x00, 0x00, 0x00, 0x00, 0x00, 0x00, 0x00, 
  0x00, 0x00, 0x00, 0x00, 0x00, 0x00, 0x00, 0x00, 0x00, 0x00, 0x00, 0x00, 
  0x00, 0x00, 0xFE, 0xFF, 0xFF, 0xFF, 0x07, 0x80, 0x01, 0x00, 0x00, 0x00, 
  0x00, 0x00, 0x00, 0x00, 0x00, 0x00, 0x00, 0x00, 0x00, 0x00, 0x00, 0x00, 
  0x00, 0x00, 0x00, 0x00, 0x00, 0x00, 0x00, 0x00, 0x00, 0x00, 0xFE, 0xFF, 
  0xFF, 0xFF, 0x07, 0x80, 0x01, 0x00, 0x00, 0x00, 0x00, 0x00, 0x00, 0x00, 
  0x00, 0x00, 0x00, 0x00, 0x00, 0x00, 0x00, 0x00, 0x00, 0x00, 0x00, 0x00, 
  0x00, 0x00, 0x00, 0x00, 0x00, 0x00, 0x00, 0x3E, 0xC0, 0xFF, 0x07, 0x80, 
  0x01, 0x00, 0x00, 0x00, 0x00, 0x00, 0x00, 0x00, 0x00, 0x00, 0x00, 0x00, 
  0x00, 0x00, 0x00, 0x00, 0x00, 0x00, 0x00, 0x00, 0x00, 0x00, 0x00, 0x00, 
  0x00, 0x00, 0x00, 0x3E, 0xC0, 0xFF, 0x07, 0x80, 0x01, 0x00, 0x00, 0x00, 
  0x00, 0x00, 0x00, 0x00, 0x00, 0x00, 0x00, 0x00, 0x00, 0x00, 0x00, 0x00, 
  0x00, 0x00, 0x00, 0x00, 0x00, 0x00, 0x00, 0x00, 0x00, 0x00, 0x00, 0x3E, 
  0xC0, 0xFF, 0x07, 0x80, 0x01, 0x00, 0x00, 0x00, 0x00, 0x00, 0x00, 0x00, 
  0x00, 0x00, 0x00, 0x00, 0x00, 0x00, 0x00, 0x00, 0x00, 0x00, 0x00, 0x00, 
  0x00, 0x00, 0x00, 0x00, 0x00, 0x00, 0x00, 0x3E, 0x00, 0xC0, 0x07, 0x80, 
  0x01, 0x00, 0x00, 0x00, 0x00, 0x00, 0x00, 0x00, 0x00, 0x00, 0x00, 0x00, 
  0x00, 0x00, 0x00, 0x00, 0x00, 0x00, 0x00, 0x00, 0x00, 0x00, 0x00, 0x00, 
  0x00, 0x00, 0x00, 0x3E, 0x00, 0xC0, 0x07, 0x80, 0x01, 0x00, 0x00, 0x00, 
  0x00, 0x00, 0x00, 0x00, 0x00, 0x00, 0x00, 0x00, 0x00, 0x00, 0x00, 0x00, 
  0x00, 0x00, 0x00, 0x00, 0x00, 0x00, 0x00, 0x00, 0x00, 0x00, 0xF8, 0x01, 
  0x00, 0x00, 0x00, 0x80, 0x01, 0x00, 0x00, 0x00, 0x00, 0x00, 0x00, 0x00, 
  0x00, 0x00, 0x00, 0x00, 0x00, 0x00, 0x00, 0x00, 0x00, 0x00, 0x00, 0x00, 
  0x00, 0x00, 0x00, 0x00, 0x00, 0x00, 0xF8, 0x01, 0x00, 0x00, 0x00, 0x80, 
  0x01, 0x00, 0x00, 0x00, 0x00, 0x00, 0x00, 0x00, 0x00, 0x00, 0x00, 0x00, 
  0x00, 0x00, 0x00, 0x00, 0x00, 0x00, 0x00, 0x00, 0x00, 0x00, 0x00, 0x00, 
  0x00, 0x00, 0xF8, 0x01, 0x00, 0x00, 0x00, 0x80, 0x01, 0x00, 0x00, 0x00, 
  0x00, 0x00, 0x00, 0x00, 0x00, 0x00, 0x00, 0x00, 0x00, 0x00, 0x00, 0x00, 
  0x00, 0x00, 0x00, 0x00, 0x00, 0x00, 0x00, 0x00, 0x00, 0x00, 0xF8, 0x01, 
  0x00, 0x00, 0x00, 0x80, 0x01, 0x00, 0x00, 0x00, 0x00, 0x00, 0x00, 0x00, 
  0x00, 0x00, 0x00, 0x00, 0x00, 0x00, 0x00, 0x00, 0x00, 0x00, 0x00, 0x00, 
  0x00, 0x00, 0x00, 0x00, 0x00, 0x00, 0xF8, 0x01, 0x00, 0x00, 0x00, 0x80, 
  0x01, 0x00, 0x00, 0x00, 0x00, 0x00, 0x00, 0x00, 0x00, 0x00, 0x00, 0x00, 
  0x00, 0x00, 0x00, 0x00, 0x00, 0x00, 0x00, 0x00, 0x00, 0x00, 0x00, 0x00, 
  0x00, 0x00, 0xF8, 0x01, 0x00, 0x00, 0x00, 0x80, 0x01, 0x00, 0x00, 0x00, 
  0x00, 0x00, 0x00, 0x00, 0x00, 0x00, 0x00, 0x00, 0x00, 0x00, 0x00, 0x00, 
  0x00, 0x00, 0x00, 0x00, 0x00, 0x00, 0x00, 0x00, 0x00, 0x00, 0xF8, 0x01, 
  0x00, 0x00, 0x00, 0x80, 0x01, 0x00, 0x00, 0x00, 0x00, 0x00, 0x00, 0x00, 
  0x00, 0x00, 0x00, 0x00, 0x00, 0x00, 0x00, 0x00, 0x00, 0x00, 0x00, 0x00, 
  0x00, 0x00, 0x00, 0x00, 0x00, 0x00, 0xF8, 0x01, 0x00, 0x00, 0x00, 0x80, 
  0x01, 0x00, 0x00, 0x00, 0x00, 0x00, 0x00, 0x00, 0x00, 0x00, 0x00, 0x00, 
  0x00, 0x00, 0x00, 0x00, 0x00, 0x00, 0x00, 0x00, 0x00, 0x00, 0x00, 0x00, 
  0x00, 0x00, 0xF8, 0x01, 0x00, 0x00, 0x00, 0x80, 0x01, 0x00, 0x00, 0x00, 
  0x00, 0x00, 0x00, 0x00, 0x00, 0x00, 0x00, 0x00, 0x00, 0x00, 0x00, 0x00, 
  0x00, 0x00, 0x00, 0x00, 0x00, 0x00, 0x00, 0x00, 0x00, 0x00, 0xF8, 0x01, 
  0x00, 0x00, 0x00, 0x80, 0x01, 0x00, 0x00, 0x00, 0x00, 0x00, 0x00, 0x00, 
  0x00, 0x00, 0x00, 0x00, 0x00, 0x00, 0x00, 0x00, 0x00, 0x00, 0x00, 0x00, 
  0x00, 0x00, 0x00, 0x00, 0x00, 0x00, 0xF8, 0x01, 0x00, 0x00, 0x00, 0x80, 
  0x01, 0x00, 0x00, 0x00, 0x00, 0x00, 0x00, 0x00, 0x00, 0x00, 0x00, 0x00, 
  0x00, 0x00, 0x00, 0x00, 0x00, 0x00, 0x00, 0x00, 0x00, 0x00, 0x00, 0x00, 
  0x00, 0x00, 0xC0, 0xFF, 0xFF, 0xFF, 0x07, 0x80, 0x01, 0x00, 0x00, 0x00, 
  0x00, 0x00, 0x00, 0x00, 0x00, 0x00, 0x00, 0x00, 0x00, 0x00, 0x00, 0x00, 
  0x00, 0x00, 0x00, 0x00, 0x00, 0x00, 0x00, 0x00, 0x00, 0x00, 0xC0, 0xFF, 
  0xFF, 0xFF, 0x07, 0x80, 0x01, 0x00, 0x00, 0x00, 0x00, 0x00, 0x00, 0x00, 
  0x00, 0x00, 0x00, 0x00, 0x00, 0x00, 0x00, 0x00, 0x00, 0x00, 0x00, 0x00, 
  0x00, 0x00, 0x00, 0x00, 0x00, 0x00, 0xC0, 0xFF, 0xFF, 0xFF, 0x07, 0x80, 
  0x01, 0x00, 0x00, 0x00, 0x00, 0x00, 0x00, 0x00, 0x00, 0x00, 0x00, 0x00, 
  0x00, 0x00, 0x00, 0x00, 0x00, 0x00, 0x00, 0x00, 0x00, 0x00, 0x00, 0x00, 
  0x00, 0x00, 0x00, 0x00, 0x00, 0x00, 0x00, 0x80, 0x01, 0x00, 0x00, 0x00, 
  0x00, 0x00, 0x00, 0x00, 0x00, 0x00, 0x00, 0x00, 0x00, 0x00, 0x00, 0x00, 
  0x00, 0x00, 0x00, 0x00, 0x00, 0x00, 0x00, 0x00, 0x00, 0x00, 0x00, 0x00, 
  0x00, 0x00, 0x00, 0x80, 0x01, 0x00, 0x00, 0x00, 0x00, 0x00, 0x00, 0x00, 
  0x00, 0x00, 0x00, 0x00, 0x00, 0x00, 0x00, 0x00, 0x00, 0x00, 0x00, 0x00, 
  0x00, 0x00, 0x00, 0x00, 0x00, 0x00, 0x00, 0x00, 0x00, 0x00, 0x00, 0x80, 
  0x01, 0x00, 0x00, 0x00, 0x00, 0x00, 0x00, 0x00, 0x00, 0x00, 0x00, 0x00, 
  0x00, 0x00, 0x00, 0x00, 0x00, 0x00, 0x00, 0x00, 0x00, 0x00, 0x00, 0x00, 
  0x00, 0x00, 0x00, 0x00, 0x00, 0x00, 0x00, 0x80, 0x01, 0x00, 0x00, 0x00, 
  0x00, 0x00, 0x00, 0x00, 0x00, 0x00, 0x00, 0x00, 0x00, 0x00, 0x00, 0x00, 
  0x00, 0x00, 0x00, 0x00, 0x00, 0x00, 0x00, 0x00, 0x00, 0x00, 0x00, 0x00, 
  0x00, 0x00, 0x00, 0x80, 0x01, 0x00, 0x00, 0x00, 0x00, 0x00, 0x00, 0x00, 
  0x00, 0x00, 0x00, 0x00, 0x00, 0x00, 0x00, 0x00, 0x00, 0x00, 0x00, 0x00, 
  0x00, 0x00, 0x00, 0x00, 0x00, 0x00, 0x00, 0x00, 0x00, 0x00, 0x00, 0x80, 
  0x01, 0x00, 0x00, 0x00, 0x00, 0x00, 0x00, 0x00, 0x00, 0x00, 0x00, 0x00, 
  0x00, 0x00, 0x00, 0x00, 0x00, 0x00, 0x00, 0x00, 0x00, 0x00, 0x00, 0x00, 
  0x00, 0x00, 0x00, 0x00, 0x00, 0x00, 0x00, 0x80, 0x01, 0x00, 0x00, 0x00, 
  0x00, 0x00, 0x00, 0x00, 0x00, 0x00, 0x00, 0x00, 0x00, 0x00, 0x00, 0x00, 
  0x00, 0x00, 0x00, 0x00, 0x00, 0x00, 0x00, 0x00, 0x00, 0x00, 0x00, 0x00, 
  0x00, 0x00, 0x00, 0x80, 0x01, 0x00, 0x00, 0x00, 0x00, 0x00, 0x00, 0x00, 
  0x00, 0x00, 0x00, 0x00, 0x00, 0x00, 0x00, 0x00, 0x00, 0x00, 0x00, 0x00, 
  0x00, 0x00, 0x00, 0x00, 0x00, 0x00, 0x00, 0x00, 0x00, 0x00, 0x00, 0x80, 
  0x01, 0x00, 0x00, 0x00, 0x00, 0x00, 0x00, 0x00, 0x00, 0x00, 0x00, 0x00, 
  0x00, 0x00, 0x00, 0x00, 0x00, 0x00, 0x00, 0x00, 0x00, 0x00, 0x00, 0x00, 
  0x00, 0x00, 0x00, 0x00, 0x00, 0x00, 0x00, 0x80, 0x01, 0x00, 0x00, 0x00, 
  0x00, 0x00, 0x00, 0x00, 0x00, 0x00, 0x00, 0x00, 0x00, 0x00, 0x00, 0x00, 
  0x00, 0x00, 0x00, 0x00, 0x00, 0x00, 0x00, 0x00, 0x00, 0x00, 0x00, 0x00, 
  0x00, 0x00, 0x00, 0x80, 0x01, 0x00, 0xF8, 0xFF, 0x07, 0x7E, 0x98, 0x01, 
  0xFF, 0x07, 0x00, 0x00, 0x00, 0x00, 0xF0, 0x01, 0x07, 0x18, 0x98, 0x01, 
  0x00, 0x00, 0x00, 0xE0, 0x0E, 0x00, 0x00, 0x00, 0x00, 0x00, 0x00, 0x80, 
  0x01, 0x00, 0x00, 0x00, 0x07, 0xE7, 0x98, 0xE1, 0x01, 0x1E, 0x00, 0xE0, 
  0xFF, 0x1F, 0x18, 0x07, 0x87, 0xFF, 0x99, 0xE1, 0xFF, 0x1F, 0xE0, 0xE0, 
  0x0E, 0xF8, 0x1F, 0x80, 0x01, 0x0E, 0x00, 0x80, 0x01, 0x00, 0x00, 0x00, 
  0x07, 0xE7, 0x98, 0xE1, 0x01, 0x1E, 0x00, 0xE0, 0xFF, 0x1F, 0x18, 0x07, 
  0x87, 0xFF, 0x99, 0xE1, 0xFF, 0x1F, 0xE0, 0xE0, 0x0E, 0xF8, 0x1F, 0x80, 
  0x01, 0x0E, 0x00, 0x80, 0x01, 0x00, 0x00, 0x00, 0x87, 0x81, 0x99, 0xE1, 
  0x00, 0x18, 0x00, 0xE0, 0x00, 0x00, 0x0E, 0x0E, 0x07, 0x00, 0x98, 0x01, 
  0x70, 0x00, 0xE0, 0xE0, 0x0E, 0x0E, 0x70, 0x80, 0x01, 0x0E, 0x00, 0x80, 
  0x01, 0x00, 0x00, 0x00, 0x87, 0x81, 0xF9, 0xE1, 0x01, 0x1E, 0x00, 0xE0, 
  0xFF, 0x1F, 0x0E, 0x0E, 0x07, 0x7E, 0x98, 0x01, 0x70, 0x00, 0xE0, 0xE0, 
  0x0E, 0x07, 0xE0, 0x80, 0x01, 0x0E, 0x00, 0x80, 0x01, 0x00, 0x00, 0x00, 
  0x87, 0x81, 0x99, 0x01, 0xFF, 0x07, 0x00, 0xE0, 0x00, 0x00, 0x0E, 0x0E, 
  0x07, 0xE7, 0x98, 0x01, 0xF8, 0x00, 0xE0, 0xE0, 0x0E, 0x07, 0xE0, 0x80, 
  0x01, 0x0E, 0x00, 0x80, 0x01, 0x00, 0x00, 0x00, 0x87, 0x81, 0x99, 0x01, 
  0xFF, 0x07, 0x00, 0xE0, 0x00, 0x00, 0x0E, 0x0E, 0x07, 0xE7, 0x98, 0x01, 
  0xF8, 0x00, 0xE0, 0xE0, 0x0E, 0x07, 0xE0, 0x80, 0x01, 0x0E, 0x00, 0x80, 
  0x01, 0x00, 0x00, 0x80, 0x01, 0xE7, 0x98, 0x01, 0x00, 0x00, 0x00, 0x80, 
  0xFF, 0x1F, 0x18, 0x07, 0x87, 0x81, 0x99, 0x01, 0x8E, 0x01, 0xE0, 0xE0, 
  0x0E, 0x07, 0xE0, 0x80, 0x01, 0x0E, 0x00, 0x80, 0x01, 0x00, 0xFE, 0xFF, 
  0x0F, 0x7E, 0x98, 0xF1, 0xFF, 0x7F, 0x00, 0x00, 0x00, 0x00, 0xF0, 0x01, 
  0x87, 0x81, 0xF9, 0xE1, 0x07, 0x1F, 0xE0, 0xF8, 0x0E, 0x0E, 0x70, 0x80, 
  0x01, 0x0E, 0x00, 0x80, 0x01, 0x00, 0x00, 0x00, 0x00, 0x00, 0x00, 0x00, 
  0x00, 0x00, 0x00, 0x00, 0x00, 0x00, 0x00, 0x00, 0x80, 0x81, 0x99, 0x01, 
  0x00, 0x00, 0xE0, 0xE0, 0x0E, 0xF8, 0x1F, 0x80, 0x01, 0x0E, 0x00, 0x80, 
  0x01, 0x00, 0x00, 0x00, 0x00, 0x00, 0x00, 0x00, 0x00, 0x00, 0x00, 0x00, 
  0x00, 0x00, 0x00, 0x00, 0x80, 0x81, 0x99, 0x01, 0x00, 0x00, 0xE0, 0xE0, 
  0x0E, 0xF8, 0x1F, 0x80, 0x01, 0x0E, 0x00, 0x80, 0x01, 0x00, 0xF8, 0xFF, 
  0x07, 0xFF, 0xFF, 0xE1, 0xFF, 0x1F, 0x00, 0xF0, 0xFF, 0x7F, 0x18, 0x00, 
  0x87, 0x81, 0x99, 0xF1, 0xFF, 0x7F, 0xE0, 0xE0, 0x0E, 0x18, 0x18, 0x00, 
  0x00, 0x00, 0x00, 0x80, 0x01, 0x00, 0x18, 0x00, 0x07, 0x00, 0x80, 0x01, 
  0x00, 0x18, 0x00, 0x00, 0x70, 0x00, 0x18, 0x00, 0x87, 0x81, 0x99, 0x01, 
  0x70, 0x00, 0xF0, 0xE1, 0x0E, 0x18, 0x18, 0x80, 0x01, 0x0E, 0x00, 0x80, 
  0x01, 0x00, 0x18, 0x00, 0x07, 0x00, 0x80, 0xE1, 0xFF, 0x1F, 0x00, 0x00, 
  0x70, 0x00, 0xF8, 0xFF, 0x07, 0xE7, 0x98, 0x01, 0x70, 0x00, 0x18, 0xE7, 
  0x0E, 0x18, 0x18, 0x80, 0x01, 0x0E, 0x00, 0x80, 0x01, 0x00, 0x18, 0x00, 
  0x07, 0x00, 0x80, 0xE1, 0xFF, 0x1F, 0x00, 0x00, 0x70, 0x00, 0xF8, 0xFF, 
  0x07, 0xE7, 0x98, 0x01, 0x70, 0x00, 0x18, 0xE7, 0x0E, 0x18, 0x18, 0x80, 
  0x01, 0x0E, 0x00, 0x80, 0x01, 0x00, 0x18, 0x00, 0x07, 0x00, 0x80, 0xE1, 
  0x00, 0x00, 0x00, 0x00, 0x70, 0x00, 0x18, 0x00, 0x07, 0x7E, 0x98, 0x01, 
  0x70, 0x00, 0x0E, 0xEE, 0x8E, 0xFF, 0xFF, 0x01, 0x00, 0x00, 0x00, 0x80, 
  0x01, 0x00, 0xF0, 0xFF, 0x01, 0x00, 0x80, 0x80, 0xFF, 0x1F, 0x00, 0x00, 
  0x70, 0x00, 0xF0, 0xFF, 0x01, 0x00, 0x98, 0x01, 0x70, 0x00, 0x00, 0xE0, 
  0x0E, 0x00, 0x00, 0x00, 0x00, 0x00, 0x00, 0x80, 0x01, 0x00, 0x00, 0x00, 
  0x00, 0x00, 0x00, 0x00, 0x00, 0x00, 0x00, 0x00, 0x00, 0x00, 0x00, 0x00, 
  0x00, 0x00, 0x00, 0x00, 0x00, 0x00, 0x00, 0x00, 0x00, 0x00, 0x00, 0x00, 
  0x00, 0x00, 0x00, 0x80, 0x01, 0x00, 0x00, 0x00, 0x00, 0x00, 0x00, 0x00, 
  0x00, 0x00, 0x00, 0x00, 0x00, 0x00, 0x00, 0x00, 0x00, 0x00, 0x00, 0x00, 
  0x00, 0x00, 0x00, 0x00, 0x00, 0x00, 0x00, 0x00, 0x00, 0x00, 0x00, 0x80, 
  0x01, 0x00, 0x00, 0x00, 0x00, 0x00, 0x00, 0x00, 0x00, 0x00, 0x00, 0x00, 
  0x00, 0x00, 0x00, 0x00, 0x00, 0x00, 0x00, 0x00, 0x00, 0x00, 0x00, 0x00, 
  0x00, 0x00, 0x00, 0x00, 0x00, 0x00, 0x00, 0x80, 0x01, 0x00, 0x00, 0x00, 
  0x00, 0x00, 0x00, 0x00, 0x00, 0x00, 0x00, 0x00, 0x00, 0x00, 0x00, 0x00, 
  0x00, 0x00, 0x00, 0x00, 0x00, 0x00, 0x00, 0x00, 0x00, 0x00, 0x00, 0x00, 
  0x00, 0x00, 0x00, 0x80, 0x01, 0x00, 0x00, 0x00, 0x00, 0x00, 0x00, 0x00, 
  0x00, 0x00, 0x00, 0x00, 0x00, 0x00, 0x00, 0x00, 0x00, 0x00, 0x00, 0x00, 
  0x00, 0x00, 0x00, 0x00, 0x00, 0x00, 0x00, 0x00, 0x00, 0x00, 0x00, 0x80, 
  0x01, 0x00, 0x00, 0x00, 0x00, 0x00, 0x00, 0x00, 0x00, 0x00, 0x00, 0x00, 
  0x00, 0x00, 0x00, 0x00, 0x00, 0x00, 0x00, 0x00, 0x00, 0x00, 0x00, 0x00, 
  0x00, 0x00, 0x00, 0x00, 0x00, 0x00, 0x00, 0x80, 0x01, 0x00, 0x00, 0x00, 
  0x00, 0x00, 0x00, 0x00, 0x00, 0x00, 0x00, 0x00, 0x00, 0x00, 0x00, 0x00, 
  0x00, 0x00, 0x00, 0x00, 0x00, 0x00, 0x00, 0x00, 0x00, 0x00, 0x00, 0x00, 
  0x00, 0x00, 0x00, 0x80, 0x01, 0x00, 0x00, 0x00, 0x00, 0x00, 0x00, 0x00, 
  0x00, 0x00, 0x00, 0x00, 0x00, 0x00, 0x00, 0x00, 0x00, 0x00, 0x00, 0x00, 
  0x00, 0x00, 0x00, 0x00, 0x00, 0x00, 0x00, 0x00, 0x00, 0x00, 0x00, 0x80, 
  0x01, 0x00, 0x00, 0x00, 0x00, 0x00, 0x00, 0x00, 0x00, 0x00, 0x00, 0x00, 
  0x00, 0x00, 0x00, 0x00, 0x00, 0x00, 0x00, 0x00, 0x00, 0x00, 0x00, 0x00, 
  0x00, 0x00, 0x00, 0x00, 0x00, 0x00, 0x00, 0x80, 0x01, 0x60, 0x00, 0x00, 
  0x1C, 0x60, 0x00, 0x00, 0x00, 0x60, 0x80, 0x03, 0x00, 0x00, 0xF8, 0x3F, 
  0x06, 0x00, 0xC0, 0x07, 0x1C, 0xFE, 0x87, 0x03, 0x00, 0x00, 0xC0, 0x81, 
  0x03, 0x00, 0x60, 0x80, 0x01, 0x38, 0xC0, 0xC1, 0xFF, 0x61, 0x00, 0xE0, 
  0x3F, 0xFE, 0x87, 0x03, 0x00, 0x38, 0x38, 0x38, 0x06, 0x00, 0x78, 0x3C, 
  0x1C, 0x00, 0x86, 0x03, 0x00, 0xFE, 0xC1, 0x81, 0x03, 0x00, 0xC0, 0x81, 
  0x01, 0x1C, 0xE0, 0x01, 0x1C, 0x60, 0x00, 0x60, 0x00, 0x60, 0x80, 0x03, 
  0x00, 0x3C, 0x38, 0x38, 0x06, 0x00, 0x38, 0x38, 0x1C, 0x00, 0x86, 0x03, 
  0x00, 0xC0, 0xC1, 0x81, 0x03, 0x00, 0x80, 0x83, 0x01, 0x1C, 0xE0, 0x01, 
  0x1C, 0x60, 0x00, 0x60, 0x00, 0x60, 0x80, 0x03, 0x00, 0x3C, 0x38, 0x38, 
  0x06, 0x00, 0x38, 0x38, 0x1C, 0x00, 0x86, 0x03, 0x00, 0xC0, 0xC1, 0x81, 
  0x03, 0x00, 0x80, 0x83, 0x01, 0x1C, 0xF8, 0x01, 0x1C, 0x7E, 0x00, 0x60, 
  0x00, 0x60, 0xF8, 0x03, 0x00, 0x3E, 0x38, 0x38, 0x7E, 0x00, 0x78, 0x3C, 
  0x1C, 0x00, 0x86, 0x03, 0x00, 0xC0, 0xC1, 0x81, 0x03, 0x00, 0x80, 0x83, 
  0x01, 0x1C, 0xC0, 0x01, 0x3E, 0x60, 0x00, 0x60, 0x00, 0xF8, 0x81, 0x03, 
  0x00, 0x38, 0x38, 0x38, 0x06, 0x00, 0xC0, 0x07, 0x1C, 0x80, 0x83, 0x03, 
  0x00, 0xC0, 0xC1, 0x01, 0xFE, 0x7F, 0x80, 0x83, 0x01, 0x1C, 0xC0, 0x81, 
  0x63, 0x60, 0x00, 0xE0, 0x1F, 0x9C, 0x83, 0x03, 0x00, 0x38, 0x38, 0x38, 
  0x06, 0x00, 0xF8, 0xFF, 0x1F, 0xFE, 0xFF, 0x03, 0x00, 0xC0, 0xC1, 0x01, 
  0x00, 0x00, 0x80, 0x83, 0x01, 0x1C, 0xC0, 0x81, 0x63, 0x60, 0x00, 0xE0, 
  0x1F, 0x9C, 0x83, 0x03, 0x00, 0x38, 0x38, 0x38, 0x06, 0x00, 0xF8, 0xFF, 
  0x1F, 0xFE, 0xFF, 0x03, 0x00, 0xC0, 0xC1, 0x01, 0x00, 0x00, 0x80, 0x83, 
  0x01, 0x1C, 0xC0, 0xC1, 0xC1, 0x61, 0x00, 0x00, 0x38, 0x06, 0x86, 0x03, 
  0x00, 0x38, 0xE0, 0x1F, 0x06, 0x00, 0x80, 0xC3, 0x1F, 0x60, 0xF8, 0x03, 
  0x00, 0xC0, 0xC1, 0xDF, 0xFF, 0xFF, 0x81, 0x83, 0x01, 0x1C, 0xC0, 0x01, 
  0x00, 0x00, 0x00, 0x00, 0x38, 0x00, 0x00, 0x00, 0x00, 0x38, 0x00, 0x00, 
  0x00, 0x00, 0x80, 0x03, 0x1C, 0x60, 0x80, 0x03, 0x00, 0xC0, 0xC1, 0x01, 
  0x00, 0x00, 0x80, 0x83, 0x01, 0x1C, 0xC0, 0x81, 0x03, 0x00, 0xC0, 0x01, 
  0x38, 0x1C, 0x00, 0x00, 0x06, 0x38, 0x60, 0x00, 0x00, 0x00, 0x60, 0x00, 
  0x00, 0x1C, 0x00, 0x00, 0x00, 0xC0, 0xC1, 0x01, 0xFC, 0x1F, 0x80, 0x83, 
  0x01, 0x1C, 0xC0, 0x81, 0x03, 0x00, 0xC0, 0x01, 0x38, 0x1C, 0x00, 0x00, 
  0x06, 0x38, 0x60, 0x00, 0x00, 0x00, 0x60, 0x00, 0x00, 0x1C, 0x00, 0x00, 
  0x00, 0xC0, 0xC1, 0x01, 0xFC, 0x1F, 0x80, 0x83, 0x01, 0x1C, 0xC0, 0x81, 
  0x03, 0x00, 0xC0, 0x01, 0x38, 0x1C, 0x00, 0x00, 0x06, 0x38, 0x60, 0x00, 
  0x00, 0x00, 0x60, 0x00, 0x00, 0x1C, 0x00, 0x00, 0x00, 0xC0, 0xC1, 0x81, 
  0x07, 0x78, 0x80, 0x83, 0x01, 0x1C, 0xC0, 0x81, 0x03, 0x00, 0xC0, 0xE1, 
  0x1F, 0x1C, 0x00, 0x00, 0x06, 0x38, 0x60, 0x00, 0x00, 0x00, 0x60, 0x00, 
  0x00, 0x1C, 0x00, 0x00, 0x00, 0x60, 0xC0, 0x81, 0x03, 0x60, 0x80, 0x83, 
  0x01, 0x38, 0x00, 0x80, 0x03, 0x00, 0x60, 0x00, 0x00, 0x1C, 0x00, 0x80, 
  0x03, 0x00, 0x60, 0x00, 0x00, 0x00, 0x60, 0x00, 0x00, 0x1C, 0x00, 0x00, 
  0x00, 0x3C, 0xC0, 0x81, 0x07, 0x78, 0xC0, 0x81, 0x01, 0x38, 0x00, 0x80, 
  0x03, 0x00, 0x60, 0x00, 0x00, 0x1C, 0x00, 0x80, 0x03, 0x00, 0x60, 0x00, 
  0x00, 0x00, 0x60, 0x00, 0x00, 0x1C, 0x00, 0x00, 0x00, 0x3C, 0xC0, 0x81, 
  0x07, 0x78, 0xC0, 0x81, 0x01, 0x60, 0x00, 0x00, 0xFE, 0x7F, 0x00, 0x00, 
  0x00, 0xF8, 0xFF, 0x03, 0x00, 0x00, 0xC0, 0xFF, 0x07, 0x00, 0xC0, 0xFF, 
  0x1F, 0xF8, 0xFF, 0x03, 0x00, 0x00, 0xC0, 0x01, 0xFC, 0x1F, 0x60, 0x80, 
  0x01, 0x00, 0x00, 0x00, 0x00, 0x00, 0x00, 0x00, 0x00, 0x00, 0x00, 0x00, 
  0x00, 0x00, 0x00, 0x00, 0x00, 0x00, 0x00, 0x00, 0x00, 0x00, 0x00, 0x00, 
  0x00, 0x00, 0x00, 0x00, 0x00, 0x00, 0x00, 0x80, 0x01, 0x00, 0x00, 0x00, 
  0x00, 0x00, 0x00, 0x00, 0x00, 0x00, 0x00, 0x00, 0x00, 0x00, 0x00, 0x00, 
  0x00, 0x00, 0x00, 0x00, 0x00, 0x00, 0x00, 0x00, 0x00, 0x00, 0x00, 0x00, 
  0x00, 0x00, 0x00, 0x80, 0x01, 0x00, 0x00, 0x00, 0x00, 0x00, 0x00, 0x00, 
  0x00, 0x00, 0x00, 0x00, 0x00, 0x00, 0x00, 0x00, 0x00, 0x00, 0x00, 0x00, 
  0x00, 0x00, 0x00, 0x00, 0x00, 0x00, 0x00, 0x00, 0x00, 0x00, 0x00, 0x80, 
  0x01, 0x00, 0x00, 0x00, 0x00, 0x00, 0x00, 0x00, 0x00, 0x00, 0x00, 0x00, 
  0x00, 0x00, 0x00, 0x00, 0x00, 0x00, 0x00, 0x00, 0x00, 0x00, 0x00, 0x00, 
  0x00, 0x00, 0x00, 0x00, 0x00, 0x00, 0x00, 0x80, 0x01, 0x00, 0x00, 0x00, 
  0x00, 0x00, 0x00, 0x00, 0x00, 0x00, 0x00, 0x00, 0x00, 0x00, 0x00, 0x00, 
  0x00, 0x00, 0x00, 0x00, 0x00, 0x00, 0x00, 0x00, 0x00, 0x00, 0x00, 0x00, 
  0x00, 0x00, 0x00, 0x80, 0x01, 0x00, 0x00, 0x00, 0x00, 0x00, 0x00, 0x00, 
  0x00, 0x00, 0x00, 0x00, 0x00, 0x00, 0x00, 0x00, 0x00, 0x00, 0x00, 0x00, 
  0x00, 0x00, 0x00, 0x00, 0x00, 0x00, 0x00, 0x00, 0x00, 0x00, 0x00, 0x80, 
  0xFF, 0xFF, 0xFF, 0xFF, 0xFF, 0xFF, 0xFF, 0xFF, 0xFF, 0xFF, 0xFF, 0xFF, 
  0xFF, 0xFF, 0xFF, 0xFF, 0xFF, 0xFF, 0xFF, 0xFF, 0xFF, 0xFF, 0xFF, 0xFF, 
  0xFF, 0xFF, 0xFF, 0xFF, 0xFF, 0xFF, 0xFF, 0xFF, };
