#define PasswordChange1666515725_width 256
#define PasswordChange1666515725_height 160
static char PasswordChange1666515725_bits[] = {
  0xFF, 0xFF, 0xFF, 0xFF, 0xFF, 0xFF, 0xFF, 0xFF, 0xFF, 0xFF, 0xFF, 0xFF, 
  0xFF, 0xFF, 0xFF, 0xFF, 0xFF, 0xFF, 0xFF, 0xFF, 0xFF, 0xFF, 0xFF, 0xFF, 
  0xFF, 0xFF, 0xFF, 0xFF, 0xFF, 0xFF, 0xFF, 0xFF, 0x01, 0x00, 0x00, 0x00, 
  0x00, 0x00, 0x00, 0x00, 0x00, 0x00, 0x00, 0x00, 0x00, 0x00, 0x00, 0x00, 
  0x00, 0x00, 0x00, 0x00, 0x00, 0x00, 0x00, 0x00, 0x00, 0x00, 0x00, 0x00, 
  0x00, 0x00, 0x00, 0x80, 0x01, 0x00, 0x00, 0x00, 0x00, 0x00, 0x00, 0x00, 
  0x00, 0x00, 0x00, 0x00, 0x00, 0x00, 0x00, 0x00, 0x00, 0x00, 0x00, 0x00, 
  0x00, 0x00, 0x00, 0x00, 0x00, 0x00, 0x00, 0x00, 0x00, 0x00, 0x00, 0x80, 
  0x01, 0x00, 0x00, 0x00, 0x00, 0x00, 0x00, 0x00, 0x00, 0x00, 0x00, 0x00, 
  0x00, 0x00, 0x00, 0x00, 0x00, 0x00, 0x00, 0x00, 0x00, 0x00, 0x00, 0x00, 
  0x00, 0x00, 0x00, 0x00, 0x00, 0x00, 0x00, 0x80, 0x01, 0x00, 0x00, 0x00, 
  0x00, 0x00, 0x00, 0x00, 0x00, 0x00, 0xE0, 0xF0, 0x7F, 0x18, 0x0E, 0x0E, 
  0x07, 0x80, 0x01, 0x00, 0x80, 0x81, 0xE1, 0xF0, 0x0F, 0x18, 0x00, 0x00, 
  0x00, 0x00, 0x00, 0x80, 0x01, 0x00, 0x00, 0x00, 0x00, 0x00, 0xFE, 0x00, 
  0x80, 0xE1, 0xE0, 0x70, 0x70, 0x18, 0x0E, 0x0E, 0x07, 0x80, 0x01, 0x00, 
  0x80, 0x81, 0xE1, 0x00, 0x0E, 0x18, 0x00, 0x00, 0x00, 0x00, 0x00, 0x80, 
  0x01, 0x00, 0x00, 0x00, 0x00, 0x00, 0xFE, 0x00, 0x80, 0xE1, 0xE0, 0x70, 
  0x70, 0x18, 0x0E, 0x0E, 0x07, 0x80, 0x01, 0x00, 0x80, 0x81, 0xE1, 0x00, 
  0x0E, 0x18, 0x00, 0x00, 0x00, 0x00, 0x00, 0x80, 0x01, 0x00, 0x00, 0x00, 
  0x00, 0x00, 0x07, 0x00, 0x80, 0xE1, 0xE0, 0x70, 0x70, 0x18, 0x0E, 0x0E, 
  0x07, 0xFF, 0xFF, 0x00, 0x80, 0x81, 0xFF, 0x00, 0x8E, 0x1F, 0x00, 0x00, 
  0x00, 0x00, 0x00, 0x80, 0x01, 0x00, 0x00, 0x00, 0x00, 0x00, 0x07, 0x00, 
  0x80, 0xE1, 0xE0, 0x70, 0x70, 0x18, 0xFE, 0xFF, 0x07, 0xF8, 0x1F, 0x00, 
  0x80, 0xFF, 0xE1, 0x00, 0x0E, 0x18, 0x00, 0x00, 0x00, 0x00, 0x00, 0x80, 
  0x01, 0x00, 0x00, 0x00, 0x00, 0x00, 0x07, 0x00, 0x80, 0xE1, 0xE0, 0x70, 
  0x70, 0x18, 0x0E, 0x0E, 0x07, 0x0F, 0xF0, 0x00, 0x80, 0x81, 0xFF, 0x00, 
  0x8E, 0x1F, 0x00, 0x00, 0x00, 0x00, 0x00, 0x80, 0x01, 0x00, 0x00, 0x00, 
  0x00, 0x00, 0x07, 0x00, 0x80, 0xE1, 0xE0, 0x70, 0x70, 0x18, 0x0E, 0x0E, 
  0x07, 0x0F, 0xF0, 0x00, 0x80, 0x81, 0xFF, 0x00, 0x8E, 0x1F, 0x00, 0x00, 
  0x00, 0x00, 0x00, 0x80, 0x01, 0x00, 0x00, 0x00, 0x00, 0x00, 0xFF, 0x00, 
  0x80, 0xE1, 0xE0, 0x70, 0x70, 0x18, 0x0E, 0x0E, 0x07, 0x07, 0xE0, 0x00, 
  0x80, 0x81, 0xE1, 0x00, 0x0E, 0x18, 0x00, 0x00, 0x00, 0x00, 0x00, 0x80, 
  0x01, 0x00, 0x00, 0x00, 0x00, 0x00, 0x87, 0x01, 0x80, 0xFF, 0xE0, 0xE0, 
  0x1F, 0x18, 0xF8, 0x07, 0x07, 0x0F, 0xF0, 0x00, 0x00, 0xFF, 0xE0, 0xE0, 
  0x07, 0x18, 0x00, 0x00, 0x00, 0x00, 0x00, 0x80, 0x01, 0x00, 0x00, 0x00, 
  0x00, 0x00, 0x87, 0x01, 0x80, 0xE1, 0xE0, 0x00, 0x00, 0x00, 0x00, 0x00, 
  0x00, 0xF8, 0x1F, 0x00, 0x00, 0x00, 0x00, 0x00, 0x00, 0x00, 0x00, 0x00, 
  0x00, 0x00, 0x00, 0x80, 0x01, 0x00, 0x00, 0x00, 0x00, 0x00, 0x87, 0x01, 
  0x80, 0xE1, 0xE0, 0x00, 0x00, 0x00, 0x00, 0x00, 0x00, 0xF8, 0x1F, 0x00, 
  0x00, 0x00, 0x00, 0x00, 0x00, 0x00, 0x00, 0x00, 0x00, 0x00, 0x00, 0x80, 
  0x01, 0x00, 0x00, 0x00, 0x00, 0x00, 0x87, 0x01, 0x80, 0xE1, 0xE0, 0xE0, 
  0xFF, 0x1F, 0x18, 0x00, 0x00, 0x80, 0x01, 0x00, 0x00, 0x07, 0x00, 0x00, 
  0xFF, 0x07, 0x00, 0x00, 0x00, 0x00, 0x00, 0x80, 0x01, 0x00, 0x00, 0x00, 
  0x00, 0x00, 0x87, 0x81, 0x81, 0xE1, 0xE0, 0x00, 0x00, 0x18, 0x18, 0x00, 
  0x00, 0x80, 0x01, 0x00, 0x00, 0x07, 0x00, 0xE0, 0x01, 0x1E, 0x00, 0x00, 
  0x00, 0x00, 0x00, 0x80, 0x01, 0x00, 0x00, 0x00, 0x00, 0x00, 0xFE, 0x80, 
  0x81, 0xE1, 0xE0, 0xE0, 0xFF, 0x1F, 0x18, 0x00, 0x00, 0x80, 0x01, 0x00, 
  0x00, 0x07, 0x00, 0xE0, 0x00, 0x18, 0x00, 0x00, 0x00, 0x00, 0x00, 0x80, 
  0x01, 0x00, 0x00, 0x00, 0x00, 0x00, 0xFE, 0x80, 0x81, 0xE1, 0xE0, 0xE0, 
  0xFF, 0x1F, 0x18, 0x00, 0x00, 0x80, 0x01, 0x00, 0x00, 0x07, 0x00, 0xE0, 
  0x00, 0x18, 0x00, 0x00, 0x00, 0x00, 0x00, 0x80, 0x01, 0x00, 0x00, 0x00, 
  0x00, 0x00, 0x00, 0x00, 0x00, 0x7F, 0xE0, 0xE0, 0x00, 0x00, 0x18, 0x00, 
  0x80, 0xFF, 0xFF, 0x01, 0x00, 0x07, 0x00, 0xE0, 0x01, 0x1E, 0x00, 0x00, 
  0x00, 0x00, 0x00, 0x80, 0x01, 0x00, 0x00, 0x00, 0x00, 0x00, 0x00, 0x00, 
  0x00, 0x00, 0xE0, 0x80, 0xFF, 0x1F, 0xF0, 0xFF, 0x07, 0x00, 0x00, 0x00, 
  0x00, 0xFE, 0xFF, 0x00, 0xFF, 0x07, 0x00, 0x00, 0x00, 0x00, 0x00, 0x80, 
  0x01, 0x00, 0x00, 0x00, 0x00, 0x00, 0x00, 0x00, 0x00, 0x00, 0x00, 0x00, 
  0x00, 0x00, 0x00, 0x00, 0x00, 0x00, 0x00, 0x00, 0x00, 0x00, 0x00, 0x00, 
  0x00, 0x00, 0x00, 0x00, 0x00, 0x00, 0x00, 0x80, 0x01, 0x00, 0x00, 0x00, 
  0x00, 0x00, 0x00, 0x00, 0x00, 0x00, 0x00, 0x00, 0x00, 0x00, 0x00, 0x00, 
  0x00, 0x00, 0x00, 0x00, 0x00, 0x00, 0x00, 0x00, 0x00, 0x00, 0x00, 0x00, 
  0x00, 0x00, 0x00, 0x80, 0x01, 0x00, 0x00, 0x00, 0x00, 0x0E, 0x00, 0x00, 
  0xE0, 0xFF, 0xEE, 0xFC, 0x1F, 0x03, 0x00, 0xC0, 0x01, 0x0E, 0x00, 0x30, 
  0x00, 0x00, 0x00, 0x00, 0x00, 0x00, 0x00, 0x00, 0x00, 0x00, 0x00, 0x80, 
  0x01, 0x00, 0x00, 0x00, 0x00, 0x0E, 0x00, 0x00, 0xE0, 0xFF, 0xEE, 0xFC, 
  0x1F, 0x03, 0x00, 0xC0, 0x01, 0x0E, 0x00, 0x30, 0x00, 0x00, 0x00, 0x00, 
  0x00, 0x00, 0x00, 0x00, 0x00, 0x00, 0x00, 0x80, 0x01, 0x03, 0x00, 0xC0, 
  0x01, 0x0E, 0x00, 0x03, 0xE0, 0x00, 0xEE, 0x00, 0x1C, 0x03, 0xFF, 0xC1, 
  0x01, 0xC3, 0x3F, 0xE0, 0x00, 0x00, 0x00, 0x00, 0x00, 0x00, 0x00, 0x00, 
  0x00, 0x00, 0x00, 0x80, 0xC1, 0x03, 0x00, 0xC0, 0x01, 0x0E, 0x00, 0x03, 
  0xE0, 0x00, 0xEE, 0x00, 0x1C, 0x03, 0xC0, 0xC1, 0xC1, 0x01, 0xE0, 0xC0, 
  0x01, 0x00, 0x00, 0x00, 0x00, 0x00, 0x00, 0x00, 0x00, 0x00, 0x00, 0x80, 
  0xE1, 0x03, 0x00, 0xC0, 0x01, 0x0E, 0x00, 0x03, 0xE0, 0xFF, 0xEF, 0x00, 
  0x1C, 0x3F, 0xC0, 0xC1, 0xC1, 0x01, 0xE0, 0xC0, 0x01, 0x00, 0x00, 0x00, 
  0x00, 0x00, 0x00, 0x00, 0x00, 0x00, 0x00, 0x80, 0xE1, 0x03, 0x00, 0xC0, 
  0x01, 0x0E, 0x00, 0x03, 0xE0, 0xFF, 0xEF, 0x00, 0x1C, 0x3F, 0xC0, 0xC1, 
  0xC1, 0x01, 0xE0, 0xC0, 0x01, 0x00, 0x00, 0x00, 0x00, 0x00, 0x00, 0x00, 
  0x00, 0x00, 0x00, 0x80, 0x01, 0x03, 0x00, 0xC0, 0x01, 0x0E, 0xC0, 0x0F, 
  0xE0, 0x00, 0xEE, 0xC0, 0x0F, 0x03, 0xC0, 0xC1, 0xC1, 0x01, 0xE0, 0xC0, 
  0x01, 0x00, 0x00, 0x00, 0x00, 0x00, 0x00, 0x00, 0x00, 0x00, 0x00, 0x80, 
  0x01, 0x03, 0x00, 0xC0, 0x01, 0x0E, 0xE0, 0x1C, 0xE0, 0x00, 0xEE, 0xC0, 
  0x01, 0x03, 0xFF, 0xC1, 0xC1, 0x01, 0x3F, 0xC0, 0x01, 0x00, 0x00, 0x00, 
  0x00, 0x00, 0x00, 0x00, 0x00, 0x00, 0x00, 0x80, 0x01, 0x03, 0x00, 0xC0, 
  0x01, 0x0E, 0x3E, 0xF0, 0xC1, 0xFF, 0xEE, 0xFC, 0xFF, 0x03, 0x03, 0xC0, 
  0xC1, 0x01, 0xE0, 0xC0, 0x01, 0x00, 0x00, 0x00, 0x00, 0x00, 0x00, 0x00, 
  0x00, 0x00, 0x00, 0x80, 0x01, 0x03, 0x00, 0xC0, 0x01, 0x0E, 0x3E, 0xF0, 
  0xC1, 0xFF, 0xEE, 0xFC, 0xFF, 0x03, 0x03, 0xC0, 0xC1, 0x01, 0xE0, 0xC0, 
  0x01, 0x00, 0x00, 0x00, 0x00, 0x00, 0x00, 0x00, 0x00, 0x00, 0x00, 0x80, 
  0x01, 0x03, 0x00, 0xC0, 0x01, 0x0E, 0x00, 0x00, 0x00, 0x00, 0x00, 0x00, 
  0x00, 0x03, 0x03, 0xC0, 0xC1, 0x01, 0xE0, 0xC0, 0x01, 0x00, 0x00, 0x00, 
  0x00, 0x00, 0x00, 0x00, 0x00, 0x00, 0x00, 0x80, 0x01, 0x03, 0x00, 0xC0, 
  0x01, 0x0E, 0x00, 0x00, 0xC0, 0xFF, 0xFF, 0x30, 0x00, 0x00, 0x03, 0xC0, 
  0xC1, 0x01, 0xE0, 0xC0, 0x01, 0x00, 0x00, 0x00, 0x00, 0x00, 0x00, 0x00, 
  0x00, 0x00, 0x00, 0x80, 0x01, 0x03, 0x1C, 0xE0, 0x03, 0x0E, 0x00, 0x00, 
  0xC0, 0x01, 0xE0, 0x30, 0x00, 0x00, 0x03, 0xC0, 0xC1, 0x01, 0xE0, 0xC0, 
  0x01, 0x00, 0x00, 0x00, 0x00, 0x00, 0x00, 0x00, 0x00, 0x00, 0x00, 0x80, 
  0x01, 0x03, 0x1C, 0xE0, 0x03, 0x0E, 0x00, 0x00, 0xC0, 0x01, 0xE0, 0x30, 
  0x00, 0x00, 0x03, 0xC0, 0xC1, 0x01, 0xE0, 0xC0, 0x01, 0x00, 0x00, 0x00, 
  0x00, 0x00, 0x00, 0x00, 0x00, 0x00, 0x00, 0x80, 0x01, 0x03, 0x1C, 0x30, 
  0x0E, 0x0E, 0x00, 0x00, 0xC0, 0x01, 0xE0, 0x30, 0x00, 0x00, 0xC3, 0xC1, 
  0xC1, 0xC1, 0x3F, 0xC0, 0x01, 0x00, 0x00, 0x00, 0x00, 0x00, 0x00, 0x00, 
  0x00, 0x00, 0x00, 0x80, 0x01, 0x00, 0x00, 0x1C, 0x1C, 0x0E, 0xFF, 0xFF, 
  0xC3, 0x01, 0xE0, 0x30, 0x00, 0x00, 0xFE, 0xC0, 0x01, 0x03, 0x00, 0xE0, 
  0x00, 0x00, 0x00, 0x00, 0x00, 0x00, 0x00, 0x00, 0x00, 0x00, 0x00, 0x80, 
  0x01, 0x00, 0x00, 0x00, 0x00, 0x0E, 0x00, 0x00, 0x00, 0xFF, 0x3F, 0xE0, 
  0xFF, 0x03, 0x00, 0xC0, 0x01, 0x0E, 0x00, 0x30, 0xF0, 0xFF, 0xFF, 0xFF, 
  0x0F, 0x00, 0x00, 0x00, 0x00, 0x00, 0x00, 0x80, 0x01, 0x00, 0x00, 0x00, 
  0x00, 0x0E, 0x00, 0x00, 0x00, 0xFF, 0x3F, 0xE0, 0xFF, 0x03, 0x00, 0xC0, 
  0x01, 0x0E, 0x00, 0x30, 0xF0, 0xFF, 0xFF, 0xFF, 0x0F, 0x00, 0x00, 0x00, 
  0x00, 0x00, 0x00, 0x80, 0x01, 0x00, 0x00, 0x00, 0x00, 0x00, 0x00, 0x00, 
  0x00, 0x00, 0x00, 0x00, 0x00, 0x00, 0x00, 0x00, 0x00, 0x00, 0x00, 0x00, 
  0x00, 0x00, 0x00, 0x00, 0x00, 0x00, 0x00, 0x00, 0x00, 0x00, 0x00, 0x80, 
  0x01, 0x00, 0x00, 0x00, 0x00, 0x00, 0x00, 0x00, 0x00, 0x00, 0x00, 0x00, 
  0x00, 0x00, 0x00, 0x00, 0x00, 0x00, 0x00, 0x00, 0x00, 0x00, 0x00, 0x00, 
  0x00, 0x00, 0x00, 0x00, 0x00, 0x00, 0x00, 0x80, 0x01, 0x00, 0x00, 0x00, 
  0x00, 0x0E, 0x00, 0x00, 0xE0, 0xFF, 0xEE, 0xC0, 0x01, 0x0E, 0xFF, 0xC3, 
  0x01, 0x0E, 0x00, 0x30, 0x00, 0x00, 0x00, 0x00, 0x00, 0x00, 0x00, 0x00, 
  0x00, 0x00, 0x00, 0x80, 0xF1, 0x0F, 0x00, 0xC0, 0x01, 0x0E, 0x00, 0x03, 
  0xE0, 0x00, 0xEE, 0xC0, 0x01, 0x0E, 0x30, 0xC0, 0x01, 0x03, 0x3E, 0xE0, 
  0x00, 0x00, 0x00, 0x00, 0x00, 0x00, 0x00, 0x00, 0x00, 0x00, 0x00, 0x80, 
  0x01, 0x1C, 0x00, 0xC0, 0x01, 0x0E, 0x00, 0x03, 0xE0, 0x00, 0xEE, 0xC0, 
  0x01, 0x0E, 0x30, 0xC0, 0xC1, 0x01, 0x33, 0xC0, 0x01, 0x00, 0x00, 0x00, 
  0x00, 0x00, 0x00, 0x00, 0x00, 0x00, 0x00, 0x80, 0x01, 0x1C, 0x00, 0xC0, 
  0x01, 0x0E, 0x00, 0x03, 0xE0, 0x00, 0xEE, 0xC0, 0x01, 0x0E, 0x30, 0xC0, 
  0xC1, 0x01, 0x33, 0xC0, 0x01, 0x00, 0x00, 0x00, 0x00, 0x00, 0x00, 0x00, 
  0x00, 0x00, 0x00, 0x80, 0x01, 0x1C, 0x00, 0xC0, 0x01, 0x0E, 0x00, 0x03, 
  0xE0, 0xFF, 0xEF, 0xC0, 0xE1, 0x0F, 0x30, 0xFC, 0xC1, 0xC1, 0x31, 0xC0, 
  0x01, 0x00, 0x00, 0x00, 0x00, 0x00, 0x00, 0x00, 0x00, 0x00, 0x00, 0x80, 
  0x01, 0x1C, 0x00, 0xC0, 0x01, 0x0E, 0xC0, 0x0F, 0xE0, 0x00, 0xEE, 0xE0, 
  0x03, 0x0E, 0xFC, 0xC0, 0xC1, 0xC1, 0x31, 0xC0, 0x01, 0x00, 0x00, 0x00, 
  0x00, 0x00, 0x00, 0x00, 0x00, 0x00, 0x00, 0x80, 0xE1, 0x0F, 0x00, 0xC0, 
  0x01, 0x0E, 0xE0, 0x1C, 0xE0, 0x00, 0xEE, 0x30, 0x0E, 0x0E, 0xCE, 0xC1, 
  0xC1, 0xC1, 0x31, 0xC0, 0x01, 0x00, 0x00, 0x00, 0x00, 0x00, 0x00, 0x00, 
  0x00, 0x00, 0x00, 0x80, 0xE1, 0x0F, 0x00, 0xC0, 0x01, 0x0E, 0xE0, 0x1C, 
  0xE0, 0x00, 0xEE, 0x30, 0x0E, 0x0E, 0xCE, 0xC1, 0xC1, 0xC1, 0x31, 0xC0, 
  0x01, 0x00, 0x00, 0x00, 0x00, 0x00, 0x00, 0x00, 0x00, 0x00, 0x00, 0x80, 
  0x31, 0x00, 0x00, 0xC0, 0x01, 0x0E, 0x3E, 0xF0, 0xC1, 0xFF, 0xEE, 0x1C, 
  0x1C, 0x0E, 0x03, 0xC3, 0xC1, 0xC1, 0xFF, 0xC0, 0x01, 0x00, 0x00, 0x00, 
  0x00, 0x00, 0x00, 0x00, 0x00, 0x00, 0x00, 0x80, 0x31, 0x00, 0x00, 0xC0, 
  0x01, 0x0E, 0x00, 0x00, 0x00, 0x00, 0x00, 0x00, 0x00, 0x00, 0x00, 0x00, 
  0xC0, 0x01, 0x30, 0xC0, 0x01, 0x00, 0x00, 0x00, 0x00, 0x00, 0x00, 0x00, 
  0x00, 0x00, 0x00, 0x80, 0x31, 0x00, 0x00, 0xC0, 0x01, 0x0E, 0x00, 0x00, 
  0xC0, 0xFF, 0xFF, 0xF0, 0xFF, 0x0F, 0xF0, 0x3F, 0xC0, 0x01, 0x30, 0xC0, 
  0x01, 0x00, 0x00, 0x00, 0x00, 0x00, 0x00, 0x00, 0x00, 0x00, 0x00, 0x80, 
  0x31, 0x00, 0x00, 0xC0, 0x01, 0x0E, 0x00, 0x00, 0xC0, 0xFF, 0xFF, 0xF0, 
  0xFF, 0x0F, 0xF0, 0x3F, 0xC0, 0x01, 0x30, 0xC0, 0x01, 0x00, 0x00, 0x00, 
  0x00, 0x00, 0x00, 0x00, 0x00, 0x00, 0x00, 0x80, 0x31, 0x00, 0x1C, 0xE0, 
  0x03, 0x0E, 0x00, 0x00, 0xC0, 0x01, 0xE0, 0x00, 0x00, 0x0E, 0x1E, 0xE0, 
  0xC1, 0x01, 0x30, 0xC0, 0x01, 0x00, 0x00, 0x00, 0x00, 0x00, 0x00, 0x00, 
  0x00, 0x00, 0x00, 0x80, 0xF1, 0x1F, 0x1C, 0x30, 0x0E, 0x0E, 0x00, 0x00, 
  0xC0, 0x01, 0xE0, 0xF0, 0xFF, 0x0F, 0x0E, 0xC0, 0xC1, 0x01, 0x30, 0xC0, 
  0x01, 0x00, 0x00, 0x00, 0x00, 0x00, 0x00, 0x00, 0x00, 0x00, 0x00, 0x80, 
  0x01, 0x00, 0x00, 0x1C, 0x1C, 0x0E, 0xFF, 0xFF, 0xC3, 0x01, 0xE0, 0x30, 
  0x00, 0x00, 0x1E, 0xE0, 0x01, 0x03, 0x00, 0xE0, 0x00, 0x00, 0x00, 0x00, 
  0x00, 0x00, 0x00, 0x00, 0x00, 0x00, 0x00, 0x80, 0x01, 0x00, 0x00, 0x1C, 
  0x1C, 0x0E, 0xFF, 0xFF, 0xC3, 0x01, 0xE0, 0x30, 0x00, 0x00, 0x1E, 0xE0, 
  0x01, 0x03, 0x00, 0xE0, 0x00, 0x00, 0x00, 0x00, 0x00, 0x00, 0x00, 0x00, 
  0x00, 0x00, 0x00, 0x80, 0x01, 0x00, 0x00, 0x00, 0x00, 0x0E, 0x00, 0x00, 
  0x00, 0xFF, 0x3F, 0xE0, 0xFF, 0x0F, 0xF0, 0x3F, 0x00, 0x0E, 0x00, 0x30, 
  0xF0, 0xFF, 0xFF, 0xFF, 0xFF, 0x3F, 0x00, 0x00, 0x00, 0x00, 0x00, 0x80, 
  0x01, 0x00, 0x00, 0x00, 0x00, 0x00, 0x00, 0x00, 0x00, 0x00, 0x00, 0x00, 
  0x00, 0x00, 0x00, 0x00, 0x00, 0x00, 0x00, 0x00, 0x00, 0x00, 0x00, 0x00, 
  0x00, 0x00, 0x00, 0x00, 0x00, 0x00, 0x00, 0x80, 0x01, 0x00, 0x00, 0x00, 
  0x00, 0x00, 0x00, 0x00, 0x00, 0x00, 0x00, 0x00, 0x00, 0x00, 0x00, 0x00, 
  0x00, 0x00, 0x00, 0x00, 0x00, 0x00, 0x00, 0x00, 0x00, 0x00, 0x00, 0x00, 
  0x00, 0x00, 0x00, 0x80, 0x01, 0x00, 0x00, 0x00, 0x00, 0x03, 0xFF, 0xE3, 
  0x00, 0x00, 0x30, 0x00, 0x00, 0x00, 0x00, 0x00, 0x00, 0x0E, 0x00, 0x30, 
  0x00, 0x00, 0x00, 0x00, 0x00, 0x00, 0x00, 0x00, 0x00, 0x00, 0x00, 0x80, 
  0xF1, 0x0F, 0x00, 0xFC, 0x1F, 0x03, 0xCE, 0xE1, 0xE0, 0x1F, 0x30, 0xF0, 
  0xFF, 0x0F, 0xFE, 0xFF, 0x01, 0x03, 0x3F, 0xE0, 0x00, 0x00, 0x00, 0x00, 
  0x00, 0x00, 0x00, 0x00, 0x00, 0x00, 0x00, 0x80, 0x01, 0x1C, 0x00, 0xC0, 
  0x01, 0x03, 0xCE, 0xE1, 0x00, 0x1C, 0x30, 0x30, 0x00, 0x0E, 0x0E, 0x00, 
  0xC0, 0xC1, 0xE1, 0xC0, 0x01, 0x00, 0x00, 0x00, 0x00, 0x00, 0x00, 0x00, 
  0x00, 0x00, 0x00, 0x80, 0x01, 0x1C, 0x00, 0xC0, 0x01, 0x03, 0xCE, 0xE1, 
  0x00, 0x1C, 0x30, 0x30, 0x00, 0x0E, 0x0E, 0x00, 0xC0, 0xC1, 0xE1, 0xC0, 
  0x01, 0x00, 0x00, 0x00, 0x00, 0x00, 0x00, 0x00, 0x00, 0x00, 0x00, 0x80, 
  0x01, 0x1C, 0x00, 0xC0, 0x01, 0x03, 0xCE, 0xE1, 0x0F, 0x1C, 0x30, 0x30, 
  0x00, 0x0E, 0x0E, 0x00, 0xC0, 0xC1, 0xE1, 0xC0, 0x01, 0x00, 0x00, 0x00, 
  0x00, 0x00, 0x00, 0x00, 0x00, 0x00, 0x00, 0x80, 0x01, 0x1C, 0x00, 0xC0, 
  0x01, 0x03, 0xCE, 0xE1, 0x00, 0x1C, 0x30, 0x30, 0x00, 0x0E, 0x0E, 0x00, 
  0xC0, 0xC1, 0xE1, 0xC0, 0x01, 0x00, 0x00, 0x00, 0x00, 0x00, 0x00, 0x00, 
  0x00, 0x00, 0x00, 0x80, 0xE1, 0x0F, 0x00, 0xC0, 0x01, 0x03, 0xCE, 0xE1, 
  0x00, 0x1C, 0x30, 0x30, 0x00, 0x0E, 0x0E, 0x00, 0xC0, 0x01, 0x3F, 0xC0, 
  0x01, 0x00, 0x00, 0x00, 0x00, 0x00, 0x00, 0x00, 0x00, 0x00, 0x00, 0x80, 
  0xE1, 0x0F, 0x00, 0xC0, 0x01, 0x03, 0xCE, 0xE1, 0x00, 0x1C, 0x30, 0x30, 
  0x00, 0x0E, 0x0E, 0x00, 0xC0, 0x01, 0x3F, 0xC0, 0x01, 0x00, 0x00, 0x00, 
  0x00, 0x00, 0x00, 0x00, 0x00, 0x00, 0x00, 0x80, 0x01, 0x1C, 0x00, 0xC0, 
  0x01, 0x3F, 0xFF, 0xE3, 0x00, 0x1C, 0x30, 0x30, 0x00, 0x0E, 0x0E, 0x00, 
  0xC0, 0xC1, 0xE1, 0xC0, 0x01, 0x00, 0x00, 0x00, 0x00, 0x00, 0x00, 0x00, 
  0x00, 0x00, 0x00, 0x80, 0x01, 0x1C, 0x00, 0xC0, 0x01, 0x03, 0x00, 0x00, 
  0x00, 0x1C, 0x30, 0xE0, 0xFF, 0x03, 0xFC, 0xFF, 0xC1, 0xC1, 0xE1, 0xC0, 
  0x01, 0x00, 0x00, 0x00, 0x00, 0x00, 0x00, 0x00, 0x00, 0x00, 0x00, 0x80, 
  0x01, 0x1C, 0x00, 0xC0, 0x01, 0x03, 0x0E, 0x00, 0x00, 0x1C, 0x30, 0x00, 
  0x1C, 0x00, 0x00, 0x00, 0xC0, 0xC1, 0xE1, 0xC0, 0x01, 0x00, 0x00, 0x00, 
  0x00, 0x00, 0x00, 0x00, 0x00, 0x00, 0x00, 0x80, 0x01, 0x1C, 0x00, 0xC0, 
  0x01, 0x03, 0x0E, 0x00, 0x00, 0x1C, 0x30, 0x00, 0x1C, 0x00, 0x00, 0x00, 
  0xC0, 0xC1, 0xE1, 0xC0, 0x01, 0x00, 0x00, 0x00, 0x00, 0x00, 0x00, 0x00, 
  0x00, 0x00, 0x00, 0x80, 0x01, 0x1C, 0x1C, 0xE0, 0x03, 0x03, 0x0E, 0x00, 
  0x00, 0x1C, 0x30, 0x00, 0x1C, 0x00, 0x00, 0x00, 0xC0, 0xC1, 0xE1, 0xC0, 
  0x01, 0x00, 0x00, 0x00, 0x00, 0x00, 0x00, 0x00, 0x00, 0x00, 0x00, 0x80, 
  0xF1, 0x0F, 0x1C, 0x30, 0x0E, 0x03, 0x0E, 0x00, 0x00, 0x0E, 0x30, 0x00, 
  0x1C, 0x00, 0x00, 0x00, 0xC0, 0x01, 0x3F, 0xC0, 0x01, 0x00, 0x00, 0x00, 
  0x00, 0x00, 0x00, 0x00, 0x00, 0x00, 0x00, 0x80, 0x01, 0x00, 0x00, 0x1C, 
  0x1C, 0x03, 0x0E, 0x00, 0xC0, 0x03, 0x30, 0xFC, 0xFF, 0x1F, 0xFF, 0xFF, 
  0x03, 0x03, 0x00, 0xE0, 0x00, 0x00, 0x00, 0x00, 0x00, 0x00, 0x00, 0x00, 
  0x00, 0x00, 0x00, 0x80, 0x01, 0x00, 0x00, 0x1C, 0x1C, 0x03, 0x0E, 0x00, 
  0xC0, 0x03, 0x30, 0xFC, 0xFF, 0x1F, 0xFF, 0xFF, 0x03, 0x03, 0x00, 0xE0, 
  0x00, 0x00, 0x00, 0x00, 0x00, 0x00, 0x00, 0x00, 0x00, 0x00, 0x00, 0x80, 
  0x01, 0x00, 0x00, 0x00, 0x00, 0x03, 0xFC, 0xFF, 0x00, 0x00, 0x30, 0x00, 
  0x00, 0x00, 0x00, 0x00, 0x00, 0x0E, 0x00, 0x30, 0xF0, 0xFF, 0xFF, 0xFF, 
  0xFF, 0xFF, 0xFF, 0xFF, 0xFF, 0xFF, 0xFF, 0x81, 0x01, 0x00, 0x00, 0x00, 
  0x00, 0x00, 0x00, 0x00, 0x00, 0x00, 0x00, 0x00, 0x00, 0x00, 0x00, 0x00, 
  0x00, 0x00, 0x00, 0x00, 0x00, 0x00, 0x00, 0x00, 0x00, 0x00, 0x00, 0x00, 
  0x00, 0x00, 0x00, 0x80, 0x01, 0x00, 0x00, 0x00, 0x00, 0x00, 0x00, 0x00, 
  0x00, 0x00, 0x00, 0x00, 0x00, 0x00, 0x00, 0x00, 0x00, 0x00, 0x00, 0x00, 
  0x00, 0x00, 0x00, 0x00, 0x00, 0x00, 0x00, 0x00, 0x00, 0x00, 0x00, 0x80, 
  0x01, 0x00, 0x00, 0x00, 0xC0, 0x1D, 0xFC, 0xC0, 0xE1, 0xFF, 0x1C, 0x00, 
  0x00, 0x0E, 0x30, 0x00, 0xC0, 0x01, 0x00, 0x00, 0x00, 0x00, 0x00, 0x00, 
  0x00, 0x00, 0x00, 0x00, 0x00, 0x00, 0x00, 0x80, 0xC1, 0x0F, 0x00, 0xFC, 
  0xCF, 0x1D, 0xCE, 0xC1, 0x01, 0xE0, 0x1C, 0xFC, 0x0F, 0x0E, 0x1C, 0xFC, 
  0x01, 0x03, 0x00, 0x00, 0x00, 0x00, 0x00, 0x00, 0x00, 0x00, 0x00, 0x00, 
  0x00, 0x00, 0x00, 0x80, 0xC1, 0x0F, 0x00, 0xFC, 0xCF, 0x1D, 0xCE, 0xC1, 
  0x01, 0xE0, 0x1C, 0xFC, 0x0F, 0x0E, 0x1C, 0xFC, 0x01, 0x03, 0x00, 0x00, 
  0x00, 0x00, 0x00, 0x00, 0x00, 0x00, 0x00, 0x00, 0x00, 0x00, 0x00, 0x80, 
  0xE1, 0x0E, 0x00, 0x1C, 0xCE, 0x1D, 0x03, 0xC3, 0x01, 0xE0, 0x1C, 0x00, 
  0x0E, 0x0E, 0x0E, 0x0E, 0x00, 0x0E, 0x00, 0x00, 0x00, 0x00, 0x00, 0x00, 
  0x00, 0x00, 0x00, 0x00, 0x00, 0x00, 0x00, 0x80, 0x31, 0x0E, 0x00, 0x1C, 
  0xCE, 0x1D, 0x03, 0xC3, 0x01, 0xE0, 0xFC, 0x01, 0x0E, 0x0E, 0x0E, 0x0E, 
  0x00, 0x0E, 0x00, 0x00, 0x00, 0x00, 0x00, 0x00, 0x00, 0x00, 0x00, 0x00, 
  0x00, 0x00, 0x00, 0x80, 0x31, 0x0E, 0x00, 0x1C, 0xCE, 0x1D, 0x03, 0xC3, 
  0x01, 0x3E, 0x1C, 0x00, 0x0E, 0x0E, 0x0E, 0x0E, 0x00, 0x0E, 0x00, 0x00, 
  0x00, 0x00, 0x00, 0x00, 0x00, 0x00, 0x00, 0x00, 0x00, 0x00, 0x00, 0x80, 
  0x31, 0x0E, 0x00, 0x1C, 0xCE, 0x1D, 0x03, 0xC3, 0x01, 0x3E, 0x1C, 0x00, 
  0x0E, 0x0E, 0x0E, 0x0E, 0x00, 0x0E, 0x00, 0x00, 0x00, 0x00, 0x00, 0x00, 
  0x00, 0x00, 0x00, 0x00, 0x00, 0x00, 0x00, 0x80, 0x31, 0x0E, 0x00, 0x1C, 
  0xCE, 0x1D, 0xCE, 0xC1, 0x01, 0x0E, 0x1C, 0xFC, 0x0F, 0x0E, 0x0E, 0xFE, 
  0x01, 0x0E, 0x00, 0x00, 0x00, 0x00, 0x00, 0x00, 0x00, 0x00, 0x00, 0x00, 
  0x00, 0x00, 0x00, 0x80, 0xF1, 0x1F, 0x00, 0x1C, 0xFE, 0x1D, 0xFC, 0xC0, 
  0xE1, 0xFF, 0x1F, 0x1C, 0x00, 0x0E, 0x0E, 0x0E, 0x03, 0x0E, 0x00, 0x00, 
  0x00, 0x00, 0x00, 0x00, 0x00, 0x00, 0x00, 0x00, 0x00, 0x00, 0x00, 0x80, 
  0x01, 0x0E, 0x00, 0x1C, 0xCE, 0x1D, 0x00, 0x00, 0x00, 0x00, 0x1C, 0x1C, 
  0x00, 0x0E, 0x0E, 0x0E, 0x03, 0x0E, 0x00, 0x00, 0x00, 0x00, 0x00, 0x00, 
  0x00, 0x00, 0x00, 0x00, 0x00, 0x00, 0x00, 0x80, 0x01, 0x0E, 0x00, 0x1C, 
  0xCE, 0x1D, 0x00, 0x00, 0x00, 0x00, 0x1C, 0x1C, 0x00, 0x0E, 0x0E, 0x0E, 
  0x03, 0x0E, 0x00, 0x00, 0x00, 0x00, 0x00, 0x00, 0x00, 0x00, 0x00, 0x00, 
  0x00, 0x00, 0x00, 0x80, 0x01, 0x0E, 0x00, 0x1C, 0xCE, 0x1D, 0x0E, 0x00, 
  0xC0, 0x01, 0x00, 0x1C, 0x00, 0x0E, 0x0E, 0x0E, 0x03, 0x0E, 0x00, 0x00, 
  0x00, 0x00, 0x00, 0x00, 0x00, 0x00, 0x00, 0x00, 0x00, 0x00, 0x00, 0x80, 
  0x01, 0x0E, 0x1C, 0x1C, 0xCE, 0x1D, 0x0E, 0x00, 0xC0, 0x01, 0x00, 0x1C, 
  0x00, 0x0E, 0x0E, 0x0E, 0x03, 0x0E, 0x00, 0x00, 0x00, 0x00, 0x00, 0x00, 
  0x00, 0x00, 0x00, 0x00, 0x00, 0x00, 0x00, 0x80, 0x01, 0x0E, 0x1C, 0x1C, 
  0xCE, 0x1D, 0x0E, 0x00, 0xC0, 0x01, 0x00, 0x1C, 0x0E, 0x0E, 0x0E, 0xFC, 
  0x01, 0x0E, 0x00, 0x00, 0x00, 0x00, 0x00, 0x00, 0x00, 0x00, 0x00, 0x00, 
  0x00, 0x00, 0x00, 0x80, 0x01, 0x0E, 0x1C, 0x1C, 0xCE, 0x1D, 0x0E, 0x00, 
  0xC0, 0x01, 0x00, 0x1C, 0x0E, 0x0E, 0x0E, 0xFC, 0x01, 0x0E, 0x00, 0x00, 
  0x00, 0x00, 0x00, 0x00, 0x00, 0x00, 0x00, 0x00, 0x00, 0x00, 0x00, 0x80, 
  0x01, 0x00, 0x00, 0xF0, 0xC3, 0x1D, 0x0E, 0x00, 0xC0, 0x01, 0x00, 0xF0, 
  0x03, 0x0E, 0x1C, 0x00, 0x00, 0x03, 0x00, 0x00, 0x00, 0x00, 0x00, 0x00, 
  0x00, 0x00, 0x00, 0x00, 0x00, 0x00, 0x00, 0x80, 0x01, 0x00, 0x00, 0x00, 
  0xC0, 0x1D, 0xFC, 0xFF, 0x01, 0xFF, 0x1F, 0x00, 0x00, 0x0E, 0x30, 0x00, 
  0xC0, 0x01, 0x00, 0x00, 0xF0, 0xFF, 0xFF, 0xFF, 0xFF, 0xFF, 0xFF, 0xFF, 
  0x0F, 0x00, 0x00, 0x80, 0x01, 0x00, 0x00, 0x00, 0x00, 0x00, 0x00, 0x00, 
  0x00, 0x00, 0x00, 0x00, 0x00, 0x00, 0x00, 0x00, 0x00, 0x00, 0x00, 0x00, 
  0x00, 0x00, 0x00, 0x00, 0x00, 0x00, 0x00, 0x00, 0x00, 0x00, 0x00, 0x80, 
  0x01, 0x00, 0x00, 0x00, 0x00, 0x00, 0x00, 0x00, 0x00, 0x00, 0x00, 0x00, 
  0x00, 0x00, 0x00, 0x00, 0x00, 0x00, 0x00, 0x00, 0x00, 0x00, 0x00, 0x00, 
  0x00, 0x00, 0x00, 0x00, 0x00, 0x00, 0x00, 0x80, 0x01, 0x00, 0x00, 0x00, 
  0x1C, 0x00, 0x00, 0xE0, 0x00, 0x00, 0xEE, 0x00, 0x00, 0x00, 0x30, 0x00, 
  0xC0, 0x01, 0x00, 0x00, 0x00, 0x00, 0x00, 0x00, 0x00, 0x00, 0x00, 0x00, 
  0x00, 0x00, 0x00, 0x80, 0xF1, 0x1F, 0x00, 0xF0, 0xFF, 0x0F, 0xFF, 0xE0, 
  0xE0, 0xFF, 0xEE, 0xF0, 0xFF, 0x0F, 0x1C, 0xFC, 0x01, 0x03, 0x00, 0x00, 
  0x00, 0x00, 0x00, 0x00, 0x00, 0x00, 0x00, 0x00, 0x00, 0x00, 0x00, 0x80, 
  0xF1, 0x1F, 0x00, 0xF0, 0xFF, 0x0F, 0xFF, 0xE0, 0xE0, 0xFF, 0xEE, 0xF0, 
  0xFF, 0x0F, 0x1C, 0xFC, 0x01, 0x03, 0x00, 0x00, 0x00, 0x00, 0x00, 0x00, 
  0x00, 0x00, 0x00, 0x00, 0x00, 0x00, 0x00, 0x80, 0x31, 0x00, 0x00, 0x00, 
  0x1C, 0x00, 0xE0, 0xE0, 0x00, 0x0E, 0xEE, 0x00, 0x00, 0x0E, 0x0E, 0x0E, 
  0x00, 0x0E, 0x00, 0x00, 0x00, 0x00, 0x00, 0x00, 0x00, 0x00, 0x00, 0x00, 
  0x00, 0x00, 0x00, 0x80, 0x31, 0x00, 0x00, 0x00, 0x1C, 0x00, 0xE0, 0xE0, 
  0x00, 0x0E, 0xEE, 0x00, 0x00, 0x0E, 0x0E, 0x0E, 0x00, 0x0E, 0x00, 0x00, 
  0x00, 0x00, 0x00, 0x00, 0x00, 0x00, 0x00, 0x00, 0x00, 0x00, 0x00, 0x80, 
  0x31, 0x00, 0x00, 0x00, 0x3E, 0x00, 0xE0, 0xE0, 0x00, 0x0E, 0xEE, 0x00, 
  0x00, 0x0E, 0x0E, 0x0E, 0x00, 0x0E, 0x00, 0x00, 0x00, 0x00, 0x00, 0x00, 
  0x00, 0x00, 0x00, 0x00, 0x00, 0x00, 0x00, 0x80, 0x31, 0x00, 0x00, 0x00, 
  0x3E, 0x00, 0xE0, 0xE0, 0x00, 0x0E, 0xEE, 0x00, 0x00, 0x0E, 0x0E, 0x0E, 
  0x00, 0x0E, 0x00, 0x00, 0x00, 0x00, 0x00, 0x00, 0x00, 0x00, 0x00, 0x00, 
  0x00, 0x00, 0x00, 0x80, 0xF1, 0x0F, 0x00, 0x00, 0xE3, 0x00, 0xE0, 0xE0, 
  0x00, 0x0E, 0xEE, 0x00, 0x00, 0x0E, 0x0E, 0xFE, 0x01, 0x0E, 0x00, 0x00, 
  0x00, 0x00, 0x00, 0x00, 0x00, 0x00, 0x00, 0x00, 0x00, 0x00, 0x00, 0x80, 
  0x01, 0x1C, 0x00, 0xF0, 0xC1, 0x0F, 0xE0, 0xE0, 0x0F, 0x0E, 0xFE, 0x00, 
  0x1C, 0x0E, 0x0E, 0x0E, 0x03, 0x0E, 0x00, 0x00, 0x00, 0x00, 0x00, 0x00, 
  0x00, 0x00, 0x00, 0x00, 0x00, 0x00, 0x00, 0x80, 0x01, 0x1C, 0x00, 0x00, 
  0x00, 0x00, 0xE0, 0xE0, 0x00, 0x0E, 0xEE, 0x00, 0x1C, 0x03, 0x0E, 0x0E, 
  0x03, 0x0E, 0x00, 0x00, 0x00, 0x00, 0x00, 0x00, 0x00, 0x00, 0x00, 0x00, 
  0x00, 0x00, 0x00, 0x80, 0x01, 0x1C, 0x00, 0x00, 0x00, 0x00, 0xE0, 0xE0, 
  0x00, 0x0E, 0xEE, 0x00, 0x1C, 0x03, 0x0E, 0x0E, 0x03, 0x0E, 0x00, 0x00, 
  0x00, 0x00, 0x00, 0x00, 0x00, 0x00, 0x00, 0x00, 0x00, 0x00, 0x00, 0x80, 
  0x01, 0x1C, 0x00, 0xFC, 0xFF, 0x1F, 0xE0, 0xE0, 0x00, 0x0E, 0xEE, 0x00, 
  0x1C, 0x00, 0x0E, 0x0E, 0x03, 0x0E, 0x00, 0x00, 0x00, 0x00, 0x00, 0x00, 
  0x00, 0x00, 0x00, 0x00, 0x00, 0x00, 0x00, 0x80, 0x01, 0x1C, 0x1C, 0x00, 
  0x1C, 0x00, 0xE0, 0xE0, 0x00, 0x1F, 0xEE, 0x00, 0x1C, 0x00, 0x0E, 0x0E, 
  0x03, 0x0E, 0x00, 0x00, 0x00, 0x00, 0x00, 0x00, 0x00, 0x00, 0x00, 0x00, 
  0x00, 0x00, 0x00, 0x80, 0xF1, 0x0F, 0x1C, 0x00, 0x1C, 0x00, 0x30, 0xE0, 
  0xC0, 0x31, 0xEE, 0x00, 0x1C, 0x00, 0x0E, 0xFC, 0x01, 0x0E, 0x00, 0x00, 
  0x00, 0x00, 0x00, 0x00, 0x00, 0x00, 0x00, 0x00, 0x00, 0x00, 0x00, 0x80, 
  0xF1, 0x0F, 0x1C, 0x00, 0x1C, 0x00, 0x30, 0xE0, 0xC0, 0x31, 0xEE, 0x00, 
  0x1C, 0x00, 0x0E, 0xFC, 0x01, 0x0E, 0x00, 0x00, 0x00, 0x00, 0x00, 0x00, 
  0x00, 0x00, 0x00, 0x00, 0x00, 0x00, 0x00, 0x80, 0x01, 0x00, 0x00, 0x00, 
  0x1C, 0x00, 0x1E, 0xE0, 0xE0, 0xE0, 0xEE, 0xFC, 0xFF, 0x1F, 0x1C, 0x00, 
  0x00, 0x03, 0x00, 0x00, 0x00, 0x00, 0x00, 0x00, 0x00, 0x00, 0x00, 0x00, 
  0x00, 0x00, 0x00, 0x80, 0x01, 0x00, 0x00, 0x00, 0x1C, 0x00, 0x00, 0xE0, 
  0x00, 0x00, 0xEE, 0x00, 0x00, 0x00, 0x30, 0x00, 0xC0, 0x01, 0x00, 0x00, 
  0xF0, 0xFF, 0xFF, 0xFF, 0xFF, 0xFF, 0xFF, 0xFF, 0x0F, 0x00, 0x00, 0x80, 
  0x01, 0x00, 0x00, 0x00, 0x00, 0x00, 0x00, 0x00, 0x00, 0x00, 0x00, 0x00, 
  0x00, 0x00, 0x00, 0x00, 0x00, 0x00, 0x00, 0x00, 0x00, 0x00, 0x00, 0x00, 
  0x00, 0x00, 0x00, 0x00, 0x00, 0x00, 0x00, 0x80, 0x01, 0x00, 0x00, 0x00, 
  0x00, 0x00, 0x00, 0x00, 0x00, 0x00, 0x00, 0x00, 0x00, 0x00, 0x00, 0x00, 
  0x00, 0x00, 0x00, 0x00, 0x00, 0x00, 0x00, 0x00, 0x00, 0x00, 0x00, 0x00, 
  0x00, 0x00, 0x00, 0x80, 0x01, 0x00, 0x00, 0x00, 0x00, 0x00, 0xFE, 0xFF, 
  0xE1, 0xFF, 0x1C, 0x00, 0xC0, 0x1D, 0x30, 0x00, 0xC0, 0x01, 0x00, 0x00, 
  0x00, 0x00, 0x00, 0x00, 0x00, 0x00, 0x00, 0x00, 0x00, 0x00, 0x00, 0x80, 
  0x01, 0x00, 0x00, 0x00, 0x00, 0x00, 0xFE, 0xFF, 0xE1, 0xFF, 0x1C, 0x00, 
  0xC0, 0x1D, 0x30, 0x00, 0xC0, 0x01, 0x00, 0x00, 0x00, 0x00, 0x00, 0x00, 
  0x00, 0x00, 0x00, 0x00, 0x00, 0x00, 0x00, 0x80, 0xE1, 0x0F, 0x00, 0x00, 
  0x1C, 0x00, 0x0E, 0x00, 0xC0, 0x31, 0x1C, 0xFC, 0xCF, 0x1D, 0x1C, 0xFC, 
  0x01, 0x03, 0x00, 0x00, 0x00, 0x00, 0x00, 0x00, 0x00, 0x00, 0x00, 0x00, 
  0x00, 0x00, 0x00, 0x80, 0x31, 0x00, 0x00, 0x00, 0x1C, 0x00, 0x0E, 0x00, 
  0xC0, 0x31, 0x1C, 0x1C, 0xCE, 0x1D, 0x0E, 0x0E, 0x00, 0x0E, 0x00, 0x00, 
  0x00, 0x00, 0x00, 0x00, 0x00, 0x00, 0x00, 0x00, 0x00, 0x00, 0x00, 0x80, 
  0x31, 0x00, 0x00, 0x00, 0x1C, 0x00, 0x0E, 0x00, 0xC0, 0x31, 0xFC, 0x1D, 
  0xCE, 0x1D, 0x0E, 0x0E, 0x00, 0x0E, 0x00, 0x00, 0x00, 0x00, 0x00, 0x00, 
  0x00, 0x00, 0x00, 0x00, 0x00, 0x00, 0x00, 0x80, 0x31, 0x00, 0x00, 0x00, 
  0x1C, 0x00, 0x0E, 0x00, 0xC0, 0x31, 0xFC, 0x1D, 0xCE, 0x1D, 0x0E, 0x0E, 
  0x00, 0x0E, 0x00, 0x00, 0x00, 0x00, 0x00, 0x00, 0x00, 0x00, 0x00, 0x00, 
  0x00, 0x00, 0x00, 0x80, 0x31, 0x00, 0x00, 0x00, 0x3E, 0x00, 0xFC, 0xFF, 
  0xC1, 0x31, 0x1C, 0x1C, 0xCE, 0x1D, 0x0E, 0x0E, 0x00, 0x0E, 0x00, 0x00, 
  0x00, 0x00, 0x00, 0x00, 0x00, 0x00, 0x00, 0x00, 0x00, 0x00, 0x00, 0x80, 
  0xF1, 0x0F, 0x00, 0x00, 0xE3, 0x00, 0x00, 0x03, 0xC0, 0x31, 0x1C, 0x1C, 
  0xCE, 0x1D, 0x0E, 0xFE, 0x01, 0x0E, 0x00, 0x00, 0x00, 0x00, 0x00, 0x00, 
  0x00, 0x00, 0x00, 0x00, 0x00, 0x00, 0x00, 0x80, 0x31, 0x1C, 0x00, 0xF0, 
  0xC1, 0x0F, 0xFF, 0xFF, 0xE3, 0xFF, 0x1C, 0x1C, 0xCE, 0x1F, 0x0E, 0x0E, 
  0x03, 0x0E, 0x00, 0x00, 0x00, 0x00, 0x00, 0x00, 0x00, 0x00, 0x00, 0x00, 
  0x00, 0x00, 0x00, 0x80, 0x31, 0x1C, 0x00, 0xF0, 0xC1, 0x0F, 0xFF, 0xFF, 
  0xE3, 0xFF, 0x1C, 0x1C, 0xCE, 0x1F, 0x0E, 0x0E, 0x03, 0x0E, 0x00, 0x00, 
  0x00, 0x00, 0x00, 0x00, 0x00, 0x00, 0x00, 0x00, 0x00, 0x00, 0x00, 0x80, 
  0x31, 0x1C, 0x00, 0x00, 0x00, 0x00, 0x00, 0x00, 0x00, 0x00, 0x00, 0x1C, 
  0xCE, 0x1D, 0x0E, 0x0E, 0x03, 0x0E, 0x00, 0x00, 0x00, 0x00, 0x00, 0x00, 
  0x00, 0x00, 0x00, 0x00, 0x00, 0x00, 0x00, 0x80, 0x31, 0x1C, 0x00, 0xFC, 
  0xFF, 0x1F, 0xF0, 0x3F, 0xC0, 0x01, 0x00, 0x1C, 0xCE, 0x1D, 0x0E, 0x0E, 
  0x03, 0x0E, 0x00, 0x00, 0x00, 0x00, 0x00, 0x00, 0x00, 0x00, 0x00, 0x00, 
  0x00, 0x00, 0x00, 0x80, 0x31, 0x1C, 0x1C, 0x00, 0x1C, 0x00, 0x1E, 0xE0, 
  0xC1, 0x01, 0x00, 0x1C, 0xCE, 0x1D, 0x0E, 0x0E, 0x03, 0x0E, 0x00, 0x00, 
  0x00, 0x00, 0x00, 0x00, 0x00, 0x00, 0x00, 0x00, 0x00, 0x00, 0x00, 0x80, 
  0x31, 0x1C, 0x1C, 0x00, 0x1C, 0x00, 0x1E, 0xE0, 0xC1, 0x01, 0x00, 0x1C, 
  0xCE, 0x1D, 0x0E, 0x0E, 0x03, 0x0E, 0x00, 0x00, 0x00, 0x00, 0x00, 0x00, 
  0x00, 0x00, 0x00, 0x00, 0x00, 0x00, 0x00, 0x80, 0xE1, 0x0F, 0x1C, 0x00, 
  0x1C, 0x00, 0x0E, 0xC0, 0xC1, 0x01, 0x00, 0x1C, 0xCE, 0x1D, 0x0E, 0xFC, 
  0x01, 0x0E, 0x00, 0x00, 0x00, 0x00, 0x00, 0x00, 0x00, 0x00, 0x00, 0x00, 
  0x00, 0x00, 0x00, 0x80, 0x01, 0x00, 0x00, 0x00, 0x1C, 0x00, 0x1E, 0xE0, 
  0xC1, 0x01, 0x00, 0xF0, 0xC3, 0x1D, 0x1C, 0x00, 0x00, 0x03, 0x00, 0x00, 
  0x00, 0x00, 0x00, 0x00, 0x00, 0x00, 0x00, 0x00, 0x00, 0x00, 0x00, 0x80, 
  0x01, 0x00, 0x00, 0x00, 0x1C, 0x00, 0xF0, 0x3F, 0x00, 0xFF, 0x1F, 0x00, 
  0xC0, 0x1D, 0x30, 0x00, 0xC0, 0x01, 0x00, 0x00, 0xF0, 0xFF, 0xFF, 0xFF, 
  0xFF, 0xFF, 0xFF, 0xFF, 0x0F, 0x00, 0x00, 0x80, 0x01, 0x00, 0x00, 0x00, 
  0x1C, 0x00, 0xF0, 0x3F, 0x00, 0xFF, 0x1F, 0x00, 0xC0, 0x1D, 0x30, 0x00, 
  0xC0, 0x01, 0x00, 0x00, 0xF0, 0xFF, 0xFF, 0xFF, 0xFF, 0xFF, 0xFF, 0xFF, 
  0x0F, 0x00, 0x00, 0x80, 0x01, 0x00, 0x00, 0x00, 0x00, 0x00, 0x00, 0x00, 
  0x00, 0x00, 0x00, 0x00, 0x00, 0x00, 0x00, 0x00, 0x00, 0x00, 0x00, 0x00, 
  0x00, 0x00, 0x00, 0x00, 0x00, 0x00, 0x00, 0x00, 0x00, 0x00, 0x00, 0x80, 
  0x01, 0x00, 0x00, 0x00, 0x00, 0x00, 0x00, 0x00, 0x00, 0x00, 0x00, 0x00, 
  0x00, 0x00, 0x00, 0x00, 0x00, 0x00, 0x00, 0x00, 0x00, 0x00, 0x00, 0x00, 
  0x00, 0x00, 0x00, 0x00, 0x00, 0x00, 0x00, 0x80, 0x01, 0x00, 0x00, 0x00, 
  0x00, 0x0E, 0x03, 0xC3, 0xE1, 0xE0, 0x30, 0xFC, 0x03, 0x0E, 0x30, 0x00, 
  0xC0, 0x01, 0x00, 0x00, 0x00, 0x00, 0x00, 0x00, 0x00, 0x00, 0x00, 0x00, 
  0x00, 0x00, 0x00, 0x80, 0xF1, 0x1F, 0x00, 0x1C, 0x0E, 0x0E, 0x03, 0xC3, 
  0xE1, 0xE0, 0x30, 0x00, 0x03, 0x0E, 0x1C, 0xFC, 0x01, 0x03, 0x00, 0x00, 
  0x00, 0x00, 0x00, 0x00, 0x00, 0x00, 0x00, 0x00, 0x00, 0x00, 0x00, 0x80, 
  0x01, 0x1C, 0x00, 0x1C, 0x0E, 0x0E, 0x03, 0xC3, 0xE1, 0xE0, 0x3F, 0x00, 
  0xE3, 0x0F, 0x0E, 0x0E, 0x00, 0x0E, 0x00, 0x00, 0x00, 0x00, 0x00, 0x00, 
  0x00, 0x00, 0x00, 0x00, 0x00, 0x00, 0x00, 0x80, 0x01, 0x1C, 0x00, 0x1C, 
  0x0E, 0x0E, 0x03, 0xC3, 0xE1, 0xE0, 0x3F, 0x00, 0xE3, 0x0F, 0x0E, 0x0E, 
  0x00, 0x0E, 0x00, 0x00, 0x00, 0x00, 0x00, 0x00, 0x00, 0x00, 0x00, 0x00, 
  0x00, 0x00, 0x00, 0x80, 0x01, 0x1C, 0x00, 0x1C, 0x0E, 0x0E, 0xFF, 0xFF, 
  0xE1, 0xFF, 0x30, 0x00, 0x03, 0x0E, 0x0E, 0x0E, 0x00, 0x0E, 0x00, 0x00, 
  0x00, 0x00, 0x00, 0x00, 0x00, 0x00, 0x00, 0x00, 0x00, 0x00, 0x00, 0x80, 
  0x01, 0x1C, 0x00, 0x1C, 0x0E, 0x0E, 0x03, 0xC3, 0xE1, 0xE0, 0x3F, 0x00, 
  0xE3, 0x0F, 0x0E, 0x0E, 0x00, 0x0E, 0x00, 0x00, 0x00, 0x00, 0x00, 0x00, 
  0x00, 0x00, 0x00, 0x00, 0x00, 0x00, 0x00, 0x80, 0x01, 0x0F, 0x00, 0x1C, 
  0x0E, 0x0E, 0x03, 0xC3, 0xE1, 0xE0, 0x30, 0x00, 0x03, 0x0E, 0x0E, 0xFE, 
  0x01, 0x0E, 0x00, 0x00, 0x00, 0x00, 0x00, 0x00, 0x00, 0x00, 0x00, 0x00, 
  0x00, 0x00, 0x00, 0x80, 0x01, 0x0F, 0x00, 0x1C, 0x0E, 0x0E, 0x03, 0xC3, 
  0xE1, 0xE0, 0x30, 0x00, 0x03, 0x0E, 0x0E, 0xFE, 0x01, 0x0E, 0x00, 0x00, 
  0x00, 0x00, 0x00, 0x00, 0x00, 0x00, 0x00, 0x00, 0x00, 0x00, 0x00, 0x80, 
  0xC1, 0x01, 0x00, 0xFC, 0x0F, 0x0E, 0xFE, 0xC1, 0xC1, 0x3F, 0x30, 0xF0, 
  0x01, 0x0E, 0x0E, 0x0E, 0x03, 0x0E, 0x00, 0x00, 0x00, 0x00, 0x00, 0x00, 
  0x00, 0x00, 0x00, 0x00, 0x00, 0x00, 0x00, 0x80, 0xC1, 0x01, 0x00, 0x1C, 
  0x0E, 0x0E, 0x00, 0x00, 0x00, 0x00, 0x00, 0x00, 0x00, 0x00, 0x0E, 0x0E, 
  0x03, 0x0E, 0x00, 0x00, 0x00, 0x00, 0x00, 0x00, 0x00, 0x00, 0x00, 0x00, 
  0x00, 0x00, 0x00, 0x80, 0xC1, 0x01, 0x00, 0x1C, 0x0E, 0x0E, 0x0E, 0x00, 
  0xC0, 0x01, 0x00, 0xC0, 0xFF, 0x01, 0x0E, 0x0E, 0x03, 0x0E, 0x00, 0x00, 
  0x00, 0x00, 0x00, 0x00, 0x00, 0x00, 0x00, 0x00, 0x00, 0x00, 0x00, 0x80, 
  0xC1, 0x01, 0x00, 0x1C, 0x0E, 0x0E, 0x0E, 0x00, 0xC0, 0x01, 0x00, 0xC0, 
  0xFF, 0x01, 0x0E, 0x0E, 0x03, 0x0E, 0x00, 0x00, 0x00, 0x00, 0x00, 0x00, 
  0x00, 0x00, 0x00, 0x00, 0x00, 0x00, 0x00, 0x80, 0xC1, 0x01, 0x1C, 0x1C, 
  0x0E, 0x0E, 0x0E, 0x00, 0xC0, 0x01, 0x00, 0xF0, 0x00, 0x0F, 0x0E, 0x0E, 
  0x03, 0x0E, 0x00, 0x00, 0x00, 0x00, 0x00, 0x00, 0x00, 0x00, 0x00, 0x00, 
  0x00, 0x00, 0x00, 0x80, 0xC1, 0x01, 0x1C, 0x1C, 0x0E, 0x0E, 0x0E, 0x00, 
  0xC0, 0x01, 0x00, 0x30, 0x00, 0x0E, 0x0E, 0xFC, 0x01, 0x0E, 0x00, 0x00, 
  0x00, 0x00, 0x00, 0x00, 0x00, 0x00, 0x00, 0x00, 0x00, 0x00, 0x00, 0x80, 
  0x01, 0x00, 0x00, 0xF0, 0x03, 0x0E, 0x0E, 0x00, 0xC0, 0x01, 0x00, 0xF0, 
  0x00, 0x0F, 0x1C, 0x00, 0x00, 0x03, 0x00, 0x00, 0x00, 0x00, 0x00, 0x00, 
  0x00, 0x00, 0x00, 0x00, 0x00, 0x00, 0x00, 0x80, 0x01, 0x00, 0x00, 0xF0, 
  0x03, 0x0E, 0x0E, 0x00, 0xC0, 0x01, 0x00, 0xF0, 0x00, 0x0F, 0x1C, 0x00, 
  0x00, 0x03, 0x00, 0x00, 0x00, 0x00, 0x00, 0x00, 0x00, 0x00, 0x00, 0x00, 
  0x00, 0x00, 0x00, 0x80, 0x01, 0x00, 0x00, 0x00, 0x00, 0x0E, 0xFC, 0xFF, 
  0x01, 0xFF, 0x3F, 0xC0, 0xFF, 0x01, 0x30, 0x00, 0xC0, 0x01, 0x00, 0x00, 
  0xF0, 0xFF, 0xFF, 0xFF, 0xFF, 0xFF, 0xFF, 0xFF, 0x0F, 0x00, 0x00, 0x80, 
  0x01, 0x00, 0x00, 0x00, 0x00, 0x00, 0x00, 0x00, 0x00, 0x00, 0x00, 0x00, 
  0x00, 0x00, 0x00, 0x00, 0x00, 0x00, 0x00, 0x00, 0x00, 0x00, 0x00, 0x00, 
  0x00, 0x00, 0x00, 0x00, 0x00, 0x00, 0x00, 0x80, 0x01, 0x00, 0x00, 0x00, 
  0x00, 0x00, 0x00, 0x00, 0x00, 0x00, 0x00, 0x00, 0x00, 0x00, 0x00, 0x00, 
  0x00, 0x00, 0x00, 0x00, 0x00, 0x00, 0x00, 0x00, 0x00, 0x00, 0x00, 0x00, 
  0x00, 0x00, 0x00, 0x80, 0x01, 0x00, 0x00, 0x00, 0x00, 0x00, 0x00, 0x00, 
  0x00, 0x00, 0x00, 0x00, 0x00, 0x00, 0x00, 0x00, 0x00, 0x00, 0x00, 0x00, 
  0x00, 0x00, 0x00, 0x00, 0x00, 0x00, 0x00, 0x00, 0x00, 0x00, 0x00, 0x80, 
  0xFF, 0xFF, 0xFF, 0xFF, 0xFF, 0xFF, 0xFF, 0xFF, 0xFF, 0xFF, 0xFF, 0xFF, 
  0xFF, 0xFF, 0xFF, 0xFF, 0xFF, 0xFF, 0xFF, 0xFF, 0xFF, 0xFF, 0xFF, 0xFF, 
  0xFF, 0xFF, 0xFF, 0xFF, 0xFF, 0xFF, 0xFF, 0xFF, };
