#define SalesInfo1669459258_width 256
#define SalesInfo1669459258_height 160
static char SalesInfo1669459258_bits[] = {
  0xFF, 0xFF, 0xFF, 0xFF, 0xFF, 0xFF, 0xFF, 0xFF, 0xFF, 0xFF, 0xFF, 0xFF, 
  0xFF, 0xFF, 0xFF, 0xFF, 0xFF, 0xFF, 0xFF, 0xFF, 0xFF, 0xFF, 0xFF, 0xFF, 
  0xFF, 0xFF, 0xFF, 0xFF, 0xFF, 0xFF, 0xFF, 0xFF, 0x01, 0x00, 0x00, 0x00, 
  0x00, 0x00, 0x00, 0x00, 0x00, 0x00, 0x00, 0x00, 0x00, 0x00, 0x00, 0x00, 
  0x00, 0x00, 0x00, 0x00, 0x00, 0x00, 0x00, 0x00, 0x00, 0x00, 0x00, 0x00, 
  0x00, 0x00, 0x00, 0x80, 0x01, 0x00, 0x00, 0x00, 0x00, 0x00, 0x00, 0x00, 
  0x00, 0x00, 0x00, 0x00, 0x00, 0x00, 0x00, 0x00, 0x00, 0x00, 0x00, 0x00, 
  0x00, 0x00, 0x00, 0x00, 0x00, 0x00, 0x00, 0x00, 0x00, 0x00, 0x00, 0x80, 
  0x01, 0x00, 0x00, 0x00, 0x00, 0x00, 0x00, 0x00, 0x00, 0x00, 0x00, 0x00, 
  0xFE, 0x8F, 0x01, 0x00, 0x98, 0xF1, 0x7F, 0x18, 0x00, 0x00, 0x00, 0x00, 
  0x00, 0x00, 0x00, 0x00, 0x00, 0x00, 0x00, 0x80, 0x01, 0x00, 0x00, 0x00, 
  0x00, 0x00, 0x00, 0x00, 0x00, 0x80, 0x01, 0x00, 0x18, 0x87, 0x81, 0xFF, 
  0x98, 0x01, 0x07, 0x18, 0x18, 0x00, 0x07, 0x00, 0x00, 0x00, 0x00, 0x00, 
  0x00, 0x00, 0x00, 0x80, 0x01, 0x00, 0x00, 0x00, 0x00, 0x00, 0x00, 0x00, 
  0x00, 0xE0, 0x01, 0x00, 0x18, 0x87, 0x81, 0xE1, 0x98, 0x01, 0x07, 0x18, 
  0x18, 0x00, 0x07, 0x00, 0x00, 0x00, 0x00, 0x00, 0x00, 0x00, 0x00, 0x80, 
  0x01, 0x00, 0x00, 0x00, 0x00, 0x00, 0x00, 0x00, 0x00, 0xE0, 0x01, 0x00, 
  0x18, 0x87, 0x81, 0xE1, 0x98, 0x01, 0x07, 0x18, 0x18, 0x00, 0x07, 0x00, 
  0x00, 0x00, 0x00, 0x00, 0x00, 0x00, 0x00, 0x80, 0x01, 0x00, 0x00, 0x00, 
  0x00, 0x00, 0x00, 0x00, 0x00, 0xF0, 0x01, 0x00, 0x18, 0x87, 0x9F, 0xE1, 
  0x98, 0x01, 0x87, 0x1F, 0x18, 0x00, 0x07, 0x00, 0x00, 0x00, 0x00, 0x00, 
  0x00, 0x00, 0x00, 0x80, 0x01, 0x00, 0x00, 0x00, 0x00, 0x00, 0x00, 0x00, 
  0x00, 0x80, 0x01, 0x00, 0x18, 0x87, 0x81, 0xE1, 0x98, 0x81, 0x0F, 0x18, 
  0xF8, 0xFF, 0x07, 0x00, 0x00, 0x00, 0x00, 0x00, 0x00, 0x00, 0x00, 0x80, 
  0x01, 0x00, 0x00, 0x00, 0x00, 0x00, 0x00, 0x00, 0x00, 0x80, 0x01, 0x00, 
  0x18, 0x87, 0x81, 0xE1, 0x98, 0xE1, 0x18, 0x18, 0x18, 0x00, 0x07, 0x00, 
  0x00, 0x00, 0x00, 0x00, 0x00, 0x00, 0x00, 0x80, 0x01, 0x00, 0x00, 0x00, 
  0x00, 0x00, 0x00, 0x00, 0x00, 0x80, 0x01, 0x00, 0x18, 0x87, 0x81, 0xE1, 
  0x98, 0xE1, 0x18, 0x18, 0x18, 0x00, 0x07, 0x00, 0x00, 0x00, 0x00, 0x00, 
  0x00, 0x00, 0x00, 0x80, 0x01, 0x00, 0x00, 0x00, 0x00, 0x00, 0x00, 0x00, 
  0x00, 0x80, 0x01, 0x00, 0xFE, 0x8F, 0x81, 0xE1, 0xF8, 0x71, 0x70, 0x18, 
  0x18, 0x00, 0x07, 0x00, 0x00, 0x00, 0x00, 0x00, 0x00, 0x00, 0x00, 0x80, 
  0x01, 0x00, 0x00, 0x00, 0x00, 0x00, 0x00, 0x00, 0x00, 0x80, 0x01, 0x00, 
  0x00, 0x00, 0x80, 0xE1, 0x98, 0x01, 0x00, 0x00, 0xF0, 0xFF, 0x01, 0x00, 
  0x00, 0x00, 0x00, 0x00, 0x00, 0x00, 0x00, 0x80, 0x01, 0x00, 0x00, 0x00, 
  0x00, 0x00, 0x00, 0x00, 0x00, 0x80, 0x01, 0x00, 0x18, 0x00, 0x80, 0xE1, 
  0x98, 0x01, 0xFF, 0x07, 0x00, 0x0E, 0x00, 0x00, 0x00, 0x00, 0x00, 0x00, 
  0x00, 0x00, 0x00, 0x80, 0x01, 0x00, 0x00, 0x00, 0x00, 0x00, 0x00, 0x00, 
  0x00, 0x80, 0x01, 0x00, 0x18, 0x00, 0x80, 0xE1, 0x98, 0x01, 0xFF, 0x07, 
  0x00, 0x0E, 0x00, 0x00, 0x00, 0x00, 0x00, 0x00, 0x00, 0x00, 0x00, 0x80, 
  0x01, 0x00, 0x00, 0x00, 0x00, 0x00, 0x00, 0x00, 0x00, 0x80, 0x01, 0x0E, 
  0x18, 0x00, 0x80, 0xE1, 0x98, 0xE1, 0x01, 0x1E, 0x00, 0x0E, 0x00, 0x00, 
  0x00, 0x00, 0x00, 0x00, 0x00, 0x00, 0x00, 0x80, 0x01, 0x00, 0x00, 0x00, 
  0x00, 0x00, 0x00, 0x00, 0x00, 0x80, 0x01, 0x0E, 0x18, 0x00, 0x80, 0xE1, 
  0x98, 0xE1, 0x00, 0x18, 0x00, 0x0E, 0x00, 0x00, 0x00, 0x00, 0x00, 0x00, 
  0x00, 0x00, 0x00, 0x80, 0x01, 0x00, 0x00, 0x00, 0x00, 0x00, 0x00, 0x00, 
  0x00, 0x00, 0x00, 0x00, 0x18, 0x00, 0x00, 0x7F, 0x98, 0xE1, 0x01, 0x1E, 
  0xFE, 0xFF, 0x0F, 0x00, 0x00, 0x00, 0x00, 0x00, 0x00, 0x00, 0x00, 0x80, 
  0x01, 0x00, 0x00, 0x00, 0x00, 0x00, 0x00, 0x00, 0x00, 0x00, 0x00, 0x00, 
  0x18, 0x00, 0x00, 0x7F, 0x98, 0xE1, 0x01, 0x1E, 0xFE, 0xFF, 0x0F, 0x00, 
  0x00, 0x00, 0x00, 0x00, 0x00, 0x00, 0x00, 0x80, 0x01, 0x00, 0x00, 0x00, 
  0x00, 0x00, 0x00, 0x00, 0x00, 0x00, 0x00, 0x00, 0xF0, 0xFF, 0x01, 0x00, 
  0x98, 0x01, 0xFF, 0x07, 0x00, 0x00, 0x00, 0x00, 0x00, 0x00, 0x00, 0x00, 
  0x00, 0x00, 0x00, 0x80, 0x01, 0x00, 0x00, 0x00, 0x00, 0x00, 0x00, 0x00, 
  0x00, 0x00, 0x00, 0x00, 0x00, 0x00, 0x00, 0x00, 0x00, 0x00, 0x00, 0x00, 
  0x00, 0x00, 0x00, 0x00, 0x00, 0x00, 0x00, 0x00, 0x00, 0x00, 0x00, 0x80, 
  0x01, 0x00, 0x00, 0x00, 0x00, 0x00, 0x00, 0x00, 0x00, 0x00, 0x00, 0x00, 
  0x00, 0x00, 0x00, 0x00, 0x00, 0x00, 0x00, 0x00, 0x00, 0x00, 0x00, 0x00, 
  0x00, 0x00, 0x00, 0x00, 0x00, 0x00, 0x00, 0x80, 0x01, 0x00, 0x00, 0x00, 
  0x00, 0x00, 0x00, 0x00, 0x00, 0x00, 0x00, 0x00, 0x00, 0x00, 0x00, 0x00, 
  0x00, 0x00, 0x00, 0x00, 0x00, 0x00, 0x00, 0x00, 0x00, 0x00, 0x00, 0x00, 
  0x00, 0x00, 0x00, 0x80, 0x01, 0x00, 0x00, 0x00, 0x00, 0x00, 0x00, 0x00, 
  0x00, 0x00, 0x00, 0x00, 0x00, 0x00, 0x00, 0x00, 0x00, 0x00, 0x00, 0x00, 
  0x00, 0x00, 0x00, 0x00, 0x00, 0x00, 0x00, 0x00, 0x00, 0x00, 0x00, 0x80, 
  0x01, 0x00, 0x00, 0x00, 0x00, 0x00, 0x00, 0x00, 0x00, 0x00, 0x00, 0x00, 
  0x00, 0x00, 0x00, 0x00, 0x00, 0x00, 0x00, 0x00, 0x00, 0x00, 0x00, 0x00, 
  0x00, 0x00, 0x00, 0x00, 0x00, 0x00, 0x00, 0x80, 0x01, 0x00, 0x00, 0x00, 
  0x00, 0x00, 0x00, 0x00, 0x00, 0x00, 0x00, 0x00, 0x00, 0x00, 0x00, 0x00, 
  0x00, 0x00, 0x00, 0x00, 0x00, 0x00, 0x00, 0x00, 0x00, 0x00, 0x00, 0x00, 
  0x00, 0x00, 0x00, 0x80, 0x01, 0x00, 0x00, 0x00, 0x00, 0x00, 0x00, 0x00, 
  0x00, 0x00, 0x00, 0x00, 0x00, 0x00, 0x00, 0x00, 0x00, 0x00, 0x00, 0x00, 
  0x00, 0x00, 0x00, 0x00, 0x00, 0x00, 0x00, 0x00, 0x00, 0x00, 0x00, 0x80, 
  0x01, 0x00, 0x00, 0x00, 0x00, 0x00, 0x00, 0x00, 0x00, 0x00, 0x00, 0x00, 
  0x00, 0x00, 0x00, 0x00, 0x00, 0x00, 0x00, 0x00, 0x00, 0x00, 0x00, 0x00, 
  0x00, 0x00, 0x00, 0x00, 0x00, 0x00, 0x00, 0x80, 0x01, 0x00, 0x00, 0x00, 
  0x00, 0x00, 0x00, 0x00, 0x00, 0x00, 0x00, 0x00, 0x00, 0x00, 0x00, 0x00, 
  0x00, 0x00, 0x00, 0x00, 0x00, 0x00, 0x00, 0x00, 0x00, 0x00, 0x00, 0x00, 
  0x00, 0x00, 0x00, 0x80, 0x01, 0x00, 0x00, 0x00, 0x00, 0x00, 0x00, 0x00, 
  0x00, 0x00, 0x00, 0x00, 0x00, 0x00, 0x00, 0x00, 0x00, 0x00, 0x00, 0x00, 
  0x00, 0x00, 0x00, 0x00, 0x00, 0x00, 0x00, 0x00, 0x00, 0x00, 0x00, 0x80, 
  0x01, 0x00, 0x00, 0x00, 0x00, 0x00, 0x00, 0x00, 0x00, 0x00, 0x00, 0x00, 
  0x00, 0x00, 0x00, 0x00, 0x00, 0x00, 0x00, 0x00, 0x00, 0x00, 0x00, 0x00, 
  0x00, 0x00, 0x00, 0x00, 0x00, 0x00, 0x00, 0x80, 0x01, 0x00, 0x00, 0x00, 
  0x00, 0x00, 0x00, 0x00, 0x00, 0x00, 0x00, 0x00, 0x00, 0x00, 0x00, 0x00, 
  0x00, 0x00, 0x00, 0x00, 0x00, 0x00, 0x00, 0x00, 0x00, 0x00, 0x00, 0x00, 
  0x00, 0x00, 0x00, 0x80, 0x01, 0x00, 0x00, 0x00, 0x00, 0x00, 0x00, 0x00, 
  0x00, 0x00, 0x00, 0x00, 0x00, 0x00, 0x00, 0x00, 0x00, 0x00, 0x00, 0x00, 
  0x00, 0x00, 0x00, 0x00, 0x00, 0x00, 0x00, 0x00, 0x00, 0x00, 0x00, 0x80, 
  0x01, 0x00, 0x00, 0x00, 0x00, 0x00, 0x00, 0x00, 0x00, 0x00, 0x00, 0x00, 
  0x00, 0x00, 0x00, 0x00, 0x00, 0x00, 0x00, 0x00, 0x00, 0x00, 0x00, 0x00, 
  0x00, 0x00, 0x00, 0x00, 0x00, 0x00, 0x00, 0x80, 0x01, 0x00, 0x00, 0x00, 
  0x00, 0x00, 0x00, 0x00, 0x00, 0x00, 0x00, 0x00, 0x00, 0x00, 0x00, 0x00, 
  0x00, 0x00, 0x00, 0x00, 0x00, 0x00, 0x00, 0x00, 0x00, 0x00, 0x00, 0x00, 
  0x00, 0x00, 0x00, 0x80, 0x01, 0x00, 0x00, 0x00, 0x00, 0x00, 0x00, 0x00, 
  0x00, 0x00, 0x00, 0x00, 0x00, 0x00, 0x00, 0x00, 0x00, 0x00, 0x00, 0x00, 
  0x00, 0x00, 0x00, 0x00, 0x00, 0x00, 0x00, 0x00, 0x00, 0x00, 0x00, 0x80, 
  0x01, 0x00, 0x00, 0x00, 0x00, 0x00, 0x00, 0x00, 0x00, 0x00, 0x00, 0x00, 
  0x00, 0x00, 0x00, 0x00, 0x00, 0x00, 0x00, 0x00, 0x00, 0x00, 0x00, 0x00, 
  0x00, 0x00, 0x00, 0x00, 0x00, 0x00, 0x00, 0x80, 0x01, 0x00, 0x00, 0x00, 
  0x00, 0x00, 0x00, 0x00, 0x00, 0x00, 0x00, 0x00, 0x00, 0x00, 0x00, 0x00, 
  0x00, 0x00, 0x00, 0x00, 0x00, 0x00, 0x00, 0x00, 0x00, 0x00, 0x00, 0x00, 
  0x00, 0x00, 0x00, 0x80, 0x01, 0x00, 0x00, 0x00, 0x00, 0x00, 0x00, 0x00, 
  0x00, 0x00, 0x00, 0x00, 0x00, 0x00, 0x00, 0x00, 0x00, 0x00, 0x00, 0x00, 
  0x00, 0x00, 0x00, 0x00, 0x00, 0x00, 0x00, 0x00, 0x00, 0x00, 0x00, 0x80, 
  0x01, 0x00, 0x00, 0x00, 0x00, 0x00, 0x00, 0x00, 0x00, 0x00, 0x00, 0x00, 
  0x00, 0x00, 0x00, 0x00, 0x00, 0x00, 0x00, 0x00, 0x00, 0x00, 0x00, 0x00, 
  0x00, 0x00, 0x00, 0x00, 0x00, 0x00, 0x00, 0x80, 0x01, 0x00, 0x00, 0x00, 
  0x00, 0x00, 0x00, 0x00, 0x00, 0x00, 0x00, 0x00, 0x00, 0x00, 0x00, 0x00, 
  0x00, 0x00, 0x00, 0x00, 0x00, 0x00, 0x00, 0x00, 0x00, 0x00, 0x00, 0x00, 
  0x00, 0x00, 0x00, 0x80, 0x01, 0x00, 0x00, 0x0E, 0x00, 0x00, 0xFE, 0x8F, 
  0x01, 0x00, 0x98, 0xF1, 0x0F, 0x18, 0x00, 0x00, 0x00, 0x00, 0x00, 0x00, 
  0x00, 0x00, 0x00, 0x00, 0x00, 0x00, 0x00, 0x00, 0x80, 0x7F, 0xE0, 0x80, 
  0x01, 0x00, 0x00, 0x0E, 0x00, 0x00, 0xFE, 0x8F, 0x01, 0x00, 0x98, 0xF1, 
  0x0F, 0x18, 0x00, 0x00, 0x00, 0x00, 0x00, 0x00, 0x00, 0x00, 0x00, 0x00, 
  0x00, 0x00, 0x00, 0x00, 0x80, 0x7F, 0xE0, 0x80, 0x01, 0x00, 0xF8, 0xFF, 
  0x07, 0x00, 0x18, 0x87, 0x81, 0xFF, 0x98, 0x01, 0x0E, 0x18, 0x00, 0x00, 
  0x00, 0x00, 0x00, 0x00, 0x00, 0x00, 0x00, 0x00, 0x00, 0x00, 0x00, 0x00, 
  0x00, 0x70, 0xE0, 0x80, 0x81, 0x01, 0x00, 0x1F, 0x00, 0x00, 0x18, 0x87, 
  0x81, 0xE1, 0x98, 0x01, 0x0E, 0x18, 0x00, 0x00, 0x00, 0x00, 0x00, 0x00, 
  0x00, 0x00, 0x00, 0x00, 0x00, 0x00, 0x00, 0x00, 0x00, 0x70, 0xE0, 0x80, 
  0x01, 0x07, 0x80, 0x71, 0x00, 0x00, 0x18, 0x87, 0x9F, 0xE1, 0x98, 0x01, 
  0x8E, 0x1F, 0x00, 0x00, 0x00, 0x00, 0x00, 0x00, 0x00, 0x00, 0x00, 0x00, 
  0x00, 0x00, 0x00, 0x00, 0x00, 0x70, 0xFE, 0x80, 0x01, 0x07, 0x80, 0x71, 
  0x00, 0x00, 0x18, 0x87, 0x9F, 0xE1, 0x98, 0x01, 0x8E, 0x1F, 0x00, 0x00, 
  0x00, 0x00, 0x00, 0x00, 0x00, 0x00, 0x00, 0x00, 0x00, 0x00, 0x00, 0x00, 
  0x00, 0x70, 0xFE, 0x80, 0x01, 0x0E, 0xF8, 0xEE, 0x07, 0x00, 0x18, 0x87, 
  0x81, 0xE1, 0x98, 0x01, 0x0E, 0x18, 0x00, 0x00, 0x00, 0x00, 0x00, 0x00, 
  0x00, 0x00, 0x00, 0x00, 0x00, 0x00, 0x00, 0x00, 0x00, 0x70, 0xE0, 0x80, 
  0x01, 0x18, 0x00, 0x0E, 0x00, 0x00, 0x18, 0x87, 0x81, 0xE1, 0x98, 0x01, 
  0x0E, 0x18, 0x00, 0x00, 0x00, 0x00, 0x00, 0x00, 0x00, 0x00, 0x00, 0x00, 
  0x00, 0x00, 0x00, 0x00, 0x00, 0x70, 0xE0, 0x80, 0x01, 0x70, 0xFE, 0xFF, 
  0x0F, 0x00, 0xFE, 0x8F, 0x81, 0xE1, 0xF8, 0xE1, 0x07, 0x18, 0x00, 0x00, 
  0x00, 0x00, 0x00, 0x00, 0x00, 0x00, 0x00, 0x00, 0x00, 0x00, 0x00, 0x00, 
  0x00, 0x1F, 0xE0, 0x80, 0x01, 0x70, 0xFE, 0xFF, 0x0F, 0x00, 0xFE, 0x8F, 
  0x81, 0xE1, 0xF8, 0xE1, 0x07, 0x18, 0x00, 0x00, 0x00, 0x00, 0x00, 0x00, 
  0x00, 0x00, 0x00, 0x00, 0x00, 0x00, 0x00, 0x00, 0x00, 0x1F, 0xE0, 0x80, 
  0x01, 0x18, 0x00, 0x00, 0x00, 0x00, 0x00, 0x00, 0x80, 0xE1, 0x98, 0x01, 
  0x00, 0x00, 0x00, 0x00, 0x00, 0x00, 0x00, 0x00, 0x00, 0x00, 0x00, 0x00, 
  0x00, 0x00, 0x00, 0x00, 0x00, 0x00, 0x00, 0x80, 0x01, 0x0E, 0xE0, 0xFF, 
  0x00, 0x00, 0x18, 0x00, 0x80, 0xE1, 0x98, 0xE1, 0x00, 0x00, 0x00, 0x00, 
  0x00, 0x00, 0x00, 0x00, 0x00, 0x00, 0x00, 0x00, 0x00, 0x00, 0x00, 0x00, 
  0x00, 0x07, 0x00, 0x80, 0x01, 0x07, 0x78, 0x80, 0x07, 0x00, 0x18, 0x00, 
  0x80, 0xE1, 0x98, 0xE1, 0x00, 0x00, 0x00, 0x00, 0x00, 0x00, 0x00, 0x00, 
  0x00, 0x00, 0x00, 0x00, 0x00, 0x00, 0x00, 0x00, 0x00, 0x07, 0x00, 0x80, 
  0x01, 0x07, 0x78, 0x80, 0x07, 0x00, 0x18, 0x00, 0x80, 0xE1, 0x98, 0xE1, 
  0x00, 0x00, 0x00, 0x00, 0x00, 0x00, 0x00, 0x00, 0x00, 0x00, 0x00, 0x00, 
  0x00, 0x00, 0x00, 0x00, 0x00, 0x07, 0x00, 0x80, 0x81, 0x01, 0x18, 0x00, 
  0x07, 0x00, 0x18, 0x00, 0x80, 0xE1, 0x98, 0xE1, 0x00, 0x00, 0x00, 0x00, 
  0x00, 0x00, 0x00, 0x00, 0x00, 0x00, 0x00, 0x00, 0x00, 0x00, 0x00, 0x00, 
  0x00, 0x07, 0x00, 0x80, 0x01, 0x00, 0x78, 0x80, 0x07, 0x00, 0x18, 0x00, 
  0x00, 0x7F, 0x98, 0xE1, 0x00, 0x00, 0x00, 0x00, 0x00, 0x00, 0x00, 0x00, 
  0x00, 0x00, 0x00, 0x00, 0x00, 0x00, 0x00, 0x00, 0x00, 0x07, 0x00, 0x80, 
  0x01, 0x00, 0xE0, 0xFF, 0x00, 0x00, 0xF0, 0xFF, 0x01, 0x00, 0x98, 0x81, 
  0xFF, 0x1F, 0x00, 0x00, 0x00, 0x00, 0x00, 0x00, 0x00, 0x00, 0x00, 0x00, 
  0x00, 0x00, 0x00, 0x00, 0x00, 0xFE, 0xFF, 0x80, 0x01, 0x00, 0xE0, 0xFF, 
  0x00, 0x00, 0xF0, 0xFF, 0x01, 0x00, 0x98, 0x81, 0xFF, 0x1F, 0x00, 0x00, 
  0x00, 0x00, 0x00, 0x00, 0x00, 0x00, 0x00, 0x00, 0x00, 0x00, 0x00, 0x00, 
  0x00, 0xFE, 0xFF, 0x80, 0x01, 0x00, 0x00, 0x00, 0x00, 0x00, 0x00, 0x00, 
  0x00, 0x00, 0x00, 0x00, 0x00, 0x00, 0x00, 0x00, 0x00, 0x00, 0x00, 0x00, 
  0x00, 0x00, 0x00, 0x00, 0x00, 0x00, 0x00, 0x00, 0x00, 0x00, 0x00, 0x80, 
  0x01, 0x00, 0x00, 0x0E, 0x00, 0x00, 0xFE, 0x8F, 0x01, 0x00, 0x98, 0x81, 
  0x0F, 0x77, 0x00, 0x00, 0x00, 0x00, 0x00, 0x00, 0x00, 0x00, 0x00, 0x00, 
  0x00, 0x00, 0x00, 0x00, 0x00, 0x7E, 0xE0, 0x80, 0x01, 0x00, 0x00, 0x0E, 
  0x00, 0x00, 0xFE, 0x8F, 0x01, 0x00, 0x98, 0x81, 0x0F, 0x77, 0x00, 0x00, 
  0x00, 0x00, 0x00, 0x00, 0x00, 0x00, 0x00, 0x00, 0x00, 0x00, 0x00, 0x00, 
  0x00, 0x7E, 0xE0, 0x80, 0x01, 0x00, 0xF8, 0xFF, 0x07, 0x00, 0x18, 0x87, 
  0x81, 0xFF, 0x98, 0xE1, 0x18, 0x77, 0x00, 0x00, 0x00, 0x00, 0x00, 0x00, 
  0x00, 0x00, 0x00, 0x00, 0x00, 0x00, 0x00, 0x00, 0x80, 0xE7, 0xE1, 0x80, 
  0x81, 0x01, 0x00, 0x1F, 0x00, 0x00, 0x18, 0x87, 0x81, 0xE1, 0x98, 0x71, 
  0x70, 0x77, 0x00, 0x00, 0x00, 0x00, 0x00, 0x00, 0x00, 0x00, 0x00, 0x00, 
  0x00, 0x00, 0x00, 0x00, 0x80, 0x81, 0xE1, 0x80, 0x01, 0x07, 0x80, 0x71, 
  0x00, 0x00, 0x18, 0x87, 0x9F, 0xE1, 0x98, 0x71, 0x70, 0x7F, 0x00, 0x00, 
  0x00, 0x00, 0x00, 0x00, 0x00, 0x00, 0x00, 0x00, 0x00, 0x00, 0x00, 0x00, 
  0x80, 0xE7, 0xE1, 0x80, 0x01, 0x07, 0x80, 0x71, 0x00, 0x00, 0x18, 0x87, 
  0x9F, 0xE1, 0x98, 0x71, 0x70, 0x7F, 0x00, 0x00, 0x00, 0x00, 0x00, 0x00, 
  0x00, 0x00, 0x00, 0x00, 0x00, 0x00, 0x00, 0x00, 0x80, 0xE7, 0xE1, 0x80, 
  0x01, 0x0E, 0xF8, 0xEE, 0x07, 0x00, 0x18, 0x87, 0x81, 0xE1, 0x98, 0x71, 
  0x70, 0x77, 0x00, 0x00, 0x00, 0x00, 0x00, 0x00, 0x00, 0x00, 0x00, 0x00, 
  0x00, 0x00, 0x00, 0x00, 0x00, 0x7E, 0xE0, 0x80, 0x01, 0x18, 0x00, 0x0E, 
  0x00, 0x00, 0x18, 0x87, 0x81, 0xE1, 0x98, 0xE1, 0x18, 0x77, 0x00, 0x00, 
  0x00, 0x00, 0x00, 0x00, 0x00, 0x00, 0x00, 0x00, 0x00, 0x00, 0x00, 0x00, 
  0x80, 0xFF, 0xFF, 0x80, 0x01, 0x70, 0xFE, 0xFF, 0x0F, 0x00, 0xFE, 0x8F, 
  0x81, 0xE1, 0xF8, 0x81, 0x0F, 0x77, 0x00, 0x00, 0x00, 0x00, 0x00, 0x00, 
  0x00, 0x00, 0x00, 0x00, 0x00, 0x00, 0x00, 0x00, 0x00, 0x18, 0xFE, 0x80, 
  0x01, 0x70, 0xFE, 0xFF, 0x0F, 0x00, 0xFE, 0x8F, 0x81, 0xE1, 0xF8, 0x81, 
  0x0F, 0x77, 0x00, 0x00, 0x00, 0x00, 0x00, 0x00, 0x00, 0x00, 0x00, 0x00, 
  0x00, 0x00, 0x00, 0x00, 0x00, 0x18, 0xFE, 0x80, 0x01, 0x18, 0x00, 0x00, 
  0x00, 0x00, 0x00, 0x00, 0x80, 0xE1, 0x98, 0x01, 0x00, 0x00, 0x00, 0x00, 
  0x00, 0x00, 0x00, 0x00, 0x00, 0x00, 0x00, 0x00, 0x00, 0x00, 0x00, 0x00, 
  0x00, 0x18, 0xE0, 0x80, 0x01, 0x0E, 0xE0, 0xFF, 0x00, 0x00, 0x18, 0x00, 
  0x80, 0xE1, 0x98, 0xE1, 0xFF, 0x7F, 0x00, 0x00, 0x00, 0x00, 0x00, 0x00, 
  0x00, 0x00, 0x00, 0x00, 0x00, 0x00, 0x00, 0x00, 0x00, 0x07, 0x00, 0x80, 
  0x01, 0x07, 0x78, 0x80, 0x07, 0x00, 0x18, 0x00, 0x80, 0xE1, 0x98, 0x01, 
  0x00, 0x70, 0x00, 0x00, 0x00, 0x00, 0x00, 0x00, 0x00, 0x00, 0x00, 0x00, 
  0x00, 0x00, 0x00, 0x00, 0x00, 0x07, 0x00, 0x80, 0x01, 0x07, 0x78, 0x80, 
  0x07, 0x00, 0x18, 0x00, 0x80, 0xE1, 0x98, 0x01, 0x00, 0x70, 0x00, 0x00, 
  0x00, 0x00, 0x00, 0x00, 0x00, 0x00, 0x00, 0x00, 0x00, 0x00, 0x00, 0x00, 
  0x00, 0x07, 0x00, 0x80, 0x81, 0x01, 0x18, 0x00, 0x07, 0x00, 0x18, 0x00, 
  0x80, 0xE1, 0x98, 0x01, 0x00, 0x70, 0x00, 0x00, 0x00, 0x00, 0x00, 0x00, 
  0x00, 0x00, 0x00, 0x00, 0x00, 0x00, 0x00, 0x00, 0x00, 0x07, 0x00, 0x80, 
  0x01, 0x00, 0x78, 0x80, 0x07, 0x00, 0x18, 0x00, 0x00, 0x7F, 0x98, 0x01, 
  0x00, 0x70, 0x00, 0x00, 0x00, 0x00, 0x00, 0x00, 0x00, 0x00, 0x00, 0x00, 
  0x00, 0x00, 0x00, 0x00, 0x00, 0x07, 0x00, 0x80, 0x01, 0x00, 0xE0, 0xFF, 
  0x00, 0x00, 0xF0, 0xFF, 0x01, 0x00, 0x98, 0x01, 0x00, 0x10, 0x00, 0x00, 
  0x00, 0x00, 0x00, 0x00, 0x00, 0x00, 0x00, 0x00, 0x00, 0x00, 0x00, 0x00, 
  0x00, 0xFE, 0xFF, 0x80, 0x01, 0x00, 0xE0, 0xFF, 0x00, 0x00, 0xF0, 0xFF, 
  0x01, 0x00, 0x98, 0x01, 0x00, 0x10, 0x00, 0x00, 0x00, 0x00, 0x00, 0x00, 
  0x00, 0x00, 0x00, 0x00, 0x00, 0x00, 0x00, 0x00, 0x00, 0xFE, 0xFF, 0x80, 
  0x01, 0x00, 0x00, 0x00, 0x00, 0x00, 0x00, 0x00, 0x00, 0x00, 0x00, 0x00, 
  0x00, 0x00, 0x00, 0x00, 0x00, 0x00, 0x00, 0x00, 0x00, 0x00, 0x00, 0x00, 
  0x00, 0x00, 0x00, 0x00, 0x00, 0x00, 0x00, 0x80, 0x01, 0x00, 0x00, 0x00, 
  0x00, 0x00, 0x00, 0x00, 0x00, 0x00, 0x00, 0x00, 0x00, 0x00, 0x00, 0x00, 
  0x00, 0x00, 0x00, 0x00, 0x00, 0x00, 0x00, 0x00, 0x00, 0x00, 0x00, 0x00, 
  0x00, 0x00, 0x00, 0x80, 0x01, 0x00, 0x00, 0x00, 0x00, 0xFF, 0xFF, 0x00, 
  0x80, 0xFF, 0x71, 0x00, 0x00, 0x77, 0xFE, 0x01, 0x07, 0x00, 0x00, 0x00, 
  0x00, 0x00, 0x00, 0x00, 0x00, 0x00, 0x00, 0x00, 0x80, 0x7F, 0xE0, 0x80, 
  0x01, 0x00, 0x00, 0x0E, 0x00, 0x07, 0x00, 0x00, 0x00, 0xE7, 0x70, 0xF0, 
  0x1F, 0x77, 0x80, 0x01, 0x07, 0x00, 0x00, 0x00, 0x00, 0x00, 0x00, 0x00, 
  0x00, 0x00, 0x00, 0x00, 0x00, 0x70, 0xE0, 0x80, 0x81, 0x01, 0x00, 0x0E, 
  0x00, 0x07, 0x00, 0x00, 0x00, 0xE7, 0x70, 0x70, 0x18, 0x77, 0x80, 0x01, 
  0x07, 0x00, 0x00, 0x00, 0x00, 0x00, 0x00, 0x00, 0x00, 0x00, 0x00, 0x00, 
  0x00, 0x70, 0xE0, 0x80, 0x81, 0x01, 0x00, 0x0E, 0x00, 0x07, 0x00, 0x00, 
  0x00, 0xE7, 0x70, 0x70, 0x18, 0x77, 0x80, 0x01, 0x07, 0x00, 0x00, 0x00, 
  0x00, 0x00, 0x00, 0x00, 0x00, 0x00, 0x00, 0x00, 0x00, 0x70, 0xE0, 0x80, 
  0x01, 0x07, 0x00, 0x0E, 0x00, 0x07, 0x00, 0x00, 0x00, 0xE7, 0xF0, 0x77, 
  0x18, 0x77, 0x80, 0xF1, 0x07, 0x00, 0x00, 0x00, 0x00, 0x00, 0x00, 0x00, 
  0x00, 0x00, 0x00, 0x00, 0x00, 0x70, 0xFE, 0x80, 0x01, 0x0E, 0x00, 0x1F, 
  0x00, 0xFE, 0xFF, 0x00, 0x00, 0xE7, 0x70, 0x70, 0x18, 0x77, 0x80, 0x01, 
  0x07, 0x00, 0x00, 0x00, 0x00, 0x00, 0x00, 0x00, 0x00, 0x00, 0x00, 0x00, 
  0x00, 0x70, 0xE0, 0x80, 0x01, 0x18, 0x80, 0x71, 0x00, 0x80, 0x01, 0x00, 
  0x00, 0xE7, 0x70, 0x70, 0x18, 0x77, 0x80, 0x01, 0x07, 0x00, 0x00, 0x00, 
  0x00, 0x00, 0x00, 0x00, 0x00, 0x00, 0x00, 0x00, 0x00, 0x70, 0xE0, 0x80, 
  0x01, 0x18, 0x80, 0x71, 0x00, 0x80, 0x01, 0x00, 0x00, 0xE7, 0x70, 0x70, 
  0x18, 0x77, 0x80, 0x01, 0x07, 0x00, 0x00, 0x00, 0x00, 0x00, 0x00, 0x00, 
  0x00, 0x00, 0x00, 0x00, 0x00, 0x70, 0xE0, 0x80, 0x01, 0x70, 0xF8, 0xE0, 
  0x87, 0xFF, 0xFF, 0x01, 0x80, 0xFF, 0x71, 0x70, 0x18, 0x7F, 0xF8, 0x00, 
  0x07, 0x00, 0x00, 0x00, 0x00, 0x00, 0x00, 0x00, 0x00, 0x00, 0x00, 0x00, 
  0x00, 0x1F, 0xE0, 0x80, 0x01, 0x18, 0x00, 0x00, 0x00, 0x00, 0x00, 0x00, 
  0x00, 0x00, 0x00, 0x70, 0x18, 0x77, 0x00, 0x00, 0x00, 0x00, 0x00, 0x00, 
  0x00, 0x00, 0x00, 0x00, 0x00, 0x00, 0x00, 0x00, 0x00, 0x00, 0x00, 0x80, 
  0x01, 0x0E, 0xFE, 0xFF, 0x0F, 0xF8, 0x1F, 0x00, 0x00, 0x07, 0x00, 0x70, 
  0x18, 0x77, 0x18, 0x00, 0x00, 0x00, 0x00, 0x00, 0x00, 0x00, 0x00, 0x00, 
  0x00, 0x00, 0x00, 0x00, 0x00, 0x07, 0x00, 0x80, 0x01, 0x0E, 0xFE, 0xFF, 
  0x0F, 0xF8, 0x1F, 0x00, 0x00, 0x07, 0x00, 0x70, 0x18, 0x77, 0x18, 0x00, 
  0x00, 0x00, 0x00, 0x00, 0x00, 0x00, 0x00, 0x00, 0x00, 0x00, 0x00, 0x00, 
  0x00, 0x07, 0x00, 0x80, 0x01, 0x07, 0x00, 0x0E, 0x00, 0x0F, 0xF0, 0x00, 
  0x00, 0x07, 0x00, 0x70, 0x18, 0x77, 0x18, 0x00, 0x00, 0x00, 0x00, 0x00, 
  0x00, 0x00, 0x00, 0x00, 0x00, 0x00, 0x00, 0x00, 0x00, 0x07, 0x00, 0x80, 
  0x81, 0x01, 0x00, 0x0E, 0x00, 0x07, 0xE0, 0x00, 0x00, 0x07, 0x00, 0x70, 
  0x18, 0x77, 0x18, 0x00, 0x00, 0x00, 0x00, 0x00, 0x00, 0x00, 0x00, 0x00, 
  0x00, 0x00, 0x00, 0x00, 0x00, 0x07, 0x00, 0x80, 0x01, 0x00, 0x00, 0x0E, 
  0x00, 0x0F, 0xF0, 0x00, 0x00, 0x07, 0x00, 0xE0, 0x0F, 0x77, 0x18, 0x00, 
  0x00, 0x00, 0x00, 0x00, 0x00, 0x00, 0x00, 0x00, 0x00, 0x00, 0x00, 0x00, 
  0x00, 0x07, 0x00, 0x80, 0x01, 0x00, 0x00, 0x0E, 0x00, 0x0F, 0xF0, 0x00, 
  0x00, 0x07, 0x00, 0xE0, 0x0F, 0x77, 0x18, 0x00, 0x00, 0x00, 0x00, 0x00, 
  0x00, 0x00, 0x00, 0x00, 0x00, 0x00, 0x00, 0x00, 0x00, 0x07, 0x00, 0x80, 
  0x01, 0x00, 0x00, 0x0E, 0x00, 0xF8, 0x1F, 0x00, 0x00, 0xFE, 0x7F, 0x00, 
  0x00, 0x77, 0xF0, 0xFF, 0x07, 0x00, 0x00, 0x00, 0x00, 0x00, 0x00, 0x00, 
  0x00, 0x00, 0x00, 0x00, 0x00, 0xFE, 0xFF, 0x80, 0x01, 0x00, 0x00, 0x00, 
  0x00, 0x00, 0x00, 0x00, 0x00, 0x00, 0x00, 0x00, 0x00, 0x00, 0x00, 0x00, 
  0x00, 0x00, 0x00, 0x00, 0x00, 0x00, 0x00, 0x00, 0x00, 0x00, 0x00, 0x00, 
  0x00, 0x00, 0x00, 0x80, 0x01, 0x00, 0x00, 0x00, 0x00, 0x00, 0x00, 0x00, 
  0x00, 0x00, 0x00, 0x00, 0x00, 0x00, 0x00, 0x00, 0x00, 0x00, 0x00, 0x00, 
  0x00, 0x00, 0x00, 0x00, 0x00, 0x00, 0x00, 0x00, 0x00, 0x00, 0x00, 0x80, 
  0x01, 0x00, 0x00, 0x00, 0x00, 0xFF, 0xFF, 0x00, 0x80, 0xFF, 0x71, 0x00, 
  0x00, 0x77, 0xF0, 0xE1, 0x0E, 0x00, 0x00, 0x00, 0x00, 0x00, 0x00, 0x00, 
  0x00, 0x00, 0x00, 0x00, 0x00, 0x7E, 0xE0, 0x80, 0x01, 0x00, 0x00, 0x0E, 
  0x00, 0x07, 0x00, 0x00, 0x00, 0xE7, 0x70, 0xF0, 0x1F, 0x77, 0x18, 0xE7, 
  0x0E, 0x00, 0x00, 0x00, 0x00, 0x00, 0x00, 0x00, 0x00, 0x00, 0x00, 0x00, 
  0x80, 0xE7, 0xE1, 0x80, 0x81, 0x01, 0x00, 0x0E, 0x00, 0x07, 0x00, 0x00, 
  0x00, 0xE7, 0x70, 0x70, 0x18, 0x77, 0x0E, 0xEE, 0x0E, 0x00, 0x00, 0x00, 
  0x00, 0x00, 0x00, 0x00, 0x00, 0x00, 0x00, 0x00, 0x80, 0x81, 0xE1, 0x80, 
  0x81, 0x01, 0x00, 0x0E, 0x00, 0x07, 0x00, 0x00, 0x00, 0xE7, 0x70, 0x70, 
  0x18, 0x77, 0x0E, 0xEE, 0x0E, 0x00, 0x00, 0x00, 0x00, 0x00, 0x00, 0x00, 
  0x00, 0x00, 0x00, 0x00, 0x80, 0x81, 0xE1, 0x80, 0x01, 0x07, 0x00, 0x0E, 
  0x00, 0x07, 0x00, 0x00, 0x00, 0xE7, 0xF0, 0x77, 0x18, 0x77, 0x0E, 0xEE, 
  0x0F, 0x00, 0x00, 0x00, 0x00, 0x00, 0x00, 0x00, 0x00, 0x00, 0x00, 0x00, 
  0x80, 0xE7, 0xE1, 0x80, 0x01, 0x0E, 0x00, 0x1F, 0x00, 0xFE, 0xFF, 0x00, 
  0x00, 0xE7, 0x70, 0x70, 0x18, 0x77, 0x0E, 0xEE, 0x0E, 0x00, 0x00, 0x00, 
  0x00, 0x00, 0x00, 0x00, 0x00, 0x00, 0x00, 0x00, 0x00, 0x7E, 0xE0, 0x80, 
  0x01, 0x18, 0x80, 0x71, 0x00, 0x80, 0x01, 0x00, 0x00, 0xE7, 0x70, 0x70, 
  0x18, 0x77, 0x18, 0xE7, 0x0E, 0x00, 0x00, 0x00, 0x00, 0x00, 0x00, 0x00, 
  0x00, 0x00, 0x00, 0x00, 0x80, 0xFF, 0xFF, 0x80, 0x01, 0x18, 0x80, 0x71, 
  0x00, 0x80, 0x01, 0x00, 0x00, 0xE7, 0x70, 0x70, 0x18, 0x77, 0x18, 0xE7, 
  0x0E, 0x00, 0x00, 0x00, 0x00, 0x00, 0x00, 0x00, 0x00, 0x00, 0x00, 0x00, 
  0x80, 0xFF, 0xFF, 0x80, 0x01, 0x70, 0xF8, 0xE0, 0x87, 0xFF, 0xFF, 0x01, 
  0x80, 0xFF, 0x71, 0x70, 0x18, 0x7F, 0xF0, 0xE1, 0x0E, 0x00, 0x00, 0x00, 
  0x00, 0x00, 0x00, 0x00, 0x00, 0x00, 0x00, 0x00, 0x00, 0x18, 0xFE, 0x80, 
  0x01, 0x18, 0x00, 0x00, 0x00, 0x00, 0x00, 0x00, 0x00, 0x00, 0x00, 0x70, 
  0x18, 0x77, 0x00, 0x00, 0x00, 0x00, 0x00, 0x00, 0x00, 0x00, 0x00, 0x00, 
  0x00, 0x00, 0x00, 0x00, 0x00, 0x18, 0xE0, 0x80, 0x01, 0x0E, 0xFE, 0xFF, 
  0x0F, 0xF8, 0x1F, 0x00, 0x00, 0x07, 0x00, 0x70, 0x18, 0x77, 0xF8, 0xFF, 
  0x0F, 0x00, 0x00, 0x00, 0x00, 0x00, 0x00, 0x00, 0x00, 0x00, 0x00, 0x00, 
  0x00, 0x07, 0x00, 0x80, 0x01, 0x0E, 0xFE, 0xFF, 0x0F, 0xF8, 0x1F, 0x00, 
  0x00, 0x07, 0x00, 0x70, 0x18, 0x77, 0xF8, 0xFF, 0x0F, 0x00, 0x00, 0x00, 
  0x00, 0x00, 0x00, 0x00, 0x00, 0x00, 0x00, 0x00, 0x00, 0x07, 0x00, 0x80, 
  0x01, 0x07, 0x00, 0x0E, 0x00, 0x0F, 0xF0, 0x00, 0x00, 0x07, 0x00, 0x70, 
  0x18, 0x77, 0x00, 0x00, 0x0E, 0x00, 0x00, 0x00, 0x00, 0x00, 0x00, 0x00, 
  0x00, 0x00, 0x00, 0x00, 0x00, 0x07, 0x00, 0x80, 0x81, 0x01, 0x00, 0x0E, 
  0x00, 0x07, 0xE0, 0x00, 0x00, 0x07, 0x00, 0x70, 0x18, 0x77, 0x00, 0x00, 
  0x0E, 0x00, 0x00, 0x00, 0x00, 0x00, 0x00, 0x00, 0x00, 0x00, 0x00, 0x00, 
  0x00, 0x07, 0x00, 0x80, 0x01, 0x00, 0x00, 0x0E, 0x00, 0x0F, 0xF0, 0x00, 
  0x00, 0x07, 0x00, 0xE0, 0x0F, 0x77, 0x00, 0x00, 0x0E, 0x00, 0x00, 0x00, 
  0x00, 0x00, 0x00, 0x00, 0x00, 0x00, 0x00, 0x00, 0x00, 0x07, 0x00, 0x80, 
  0x01, 0x00, 0x00, 0x0E, 0x00, 0x0F, 0xF0, 0x00, 0x00, 0x07, 0x00, 0xE0, 
  0x0F, 0x77, 0x00, 0x00, 0x0E, 0x00, 0x00, 0x00, 0x00, 0x00, 0x00, 0x00, 
  0x00, 0x00, 0x00, 0x00, 0x00, 0x07, 0x00, 0x80, 0x01, 0x00, 0x00, 0x0E, 
  0x00, 0xF8, 0x1F, 0x00, 0x00, 0xFE, 0x7F, 0x00, 0x00, 0x77, 0x00, 0x00, 
  0x06, 0x00, 0x00, 0x00, 0x00, 0x00, 0x00, 0x00, 0x00, 0x00, 0x00, 0x00, 
  0x00, 0xFE, 0xFF, 0x80, 0x01, 0x00, 0x00, 0x00, 0x00, 0x00, 0x00, 0x00, 
  0x00, 0x00, 0x00, 0x00, 0x00, 0x00, 0x00, 0x00, 0x00, 0x00, 0x00, 0x00, 
  0x00, 0x00, 0x00, 0x00, 0x00, 0x00, 0x00, 0x00, 0x00, 0x00, 0x00, 0x80, 
  0x01, 0x00, 0x00, 0x00, 0x00, 0x00, 0x00, 0x00, 0x00, 0x00, 0x00, 0x00, 
  0x00, 0x00, 0x00, 0x00, 0x00, 0x00, 0x00, 0x00, 0x00, 0x00, 0x00, 0x00, 
  0x00, 0x00, 0x00, 0x00, 0x00, 0x00, 0x00, 0x80, 0x01, 0x1F, 0xFE, 0x01, 
  0x87, 0xFF, 0xE1, 0xE0, 0x07, 0x00, 0x00, 0x00, 0x80, 0x7F, 0x70, 0x00, 
  0x00, 0x00, 0x00, 0xE0, 0xFF, 0x1F, 0x00, 0x00, 0x00, 0x00, 0x00, 0x00, 
  0x07, 0x18, 0x70, 0x80, 0x01, 0x07, 0x80, 0x01, 0x07, 0x18, 0xE0, 0x00, 
  0xE7, 0x1F, 0x00, 0x0E, 0x00, 0x70, 0x70, 0x00, 0x00, 0x07, 0x00, 0x00, 
  0x00, 0x18, 0x00, 0x00, 0x70, 0x00, 0xFE, 0x01, 0x87, 0xFF, 0x71, 0x80, 
  0x01, 0x07, 0x80, 0x01, 0x07, 0x18, 0xE0, 0x00, 0xE7, 0x1F, 0x00, 0x0E, 
  0x00, 0x70, 0x70, 0x00, 0x00, 0x07, 0x00, 0x00, 0x00, 0x18, 0x00, 0x00, 
  0x70, 0x00, 0xFE, 0x01, 0x87, 0xFF, 0x71, 0x80, 0x01, 0x07, 0x80, 0xF1, 
  0x07, 0x18, 0xE0, 0x00, 0x07, 0x70, 0xF8, 0xFF, 0x07, 0x70, 0x70, 0x00, 
  0x00, 0x07, 0x00, 0xE0, 0xFF, 0x1F, 0x00, 0xE0, 0xFF, 0x1F, 0x80, 0x01, 
  0x07, 0x7E, 0x70, 0x80, 0x01, 0x07, 0x80, 0x01, 0x07, 0x18, 0xFE, 0x00, 
  0x07, 0x70, 0x00, 0x0E, 0x00, 0x70, 0xF0, 0x07, 0x00, 0x07, 0x00, 0xE0, 
  0x00, 0x00, 0x00, 0x00, 0x70, 0x00, 0x80, 0x01, 0x07, 0xE7, 0x70, 0x80, 
  0x01, 0x07, 0x80, 0xF1, 0x07, 0x7E, 0xE0, 0x00, 0x07, 0x70, 0x00, 0x0E, 
  0x00, 0x70, 0x70, 0x00, 0x00, 0x07, 0x00, 0x80, 0xFF, 0x1F, 0x00, 0x00, 
  0x70, 0x00, 0x80, 0x01, 0x87, 0x81, 0x71, 0x80, 0x01, 0x07, 0x80, 0xF1, 
  0x07, 0x7E, 0xE0, 0x00, 0x07, 0x70, 0x00, 0x0E, 0x00, 0x70, 0x70, 0x00, 
  0x00, 0x07, 0x00, 0x80, 0xFF, 0x1F, 0x00, 0x00, 0x70, 0x00, 0x80, 0x01, 
  0x87, 0x81, 0x71, 0x80, 0x01, 0x07, 0x80, 0x01, 0x07, 0xE7, 0xE0, 0x00, 
  0x87, 0x1F, 0x00, 0x1F, 0x00, 0x70, 0x70, 0x00, 0x00, 0xFE, 0xFF, 0x00, 
  0x00, 0x00, 0x00, 0x00, 0xF8, 0x00, 0x80, 0x01, 0x87, 0x81, 0x71, 0x80, 
  0x01, 0x07, 0xF8, 0x00, 0x87, 0x81, 0xE1, 0x00, 0x07, 0x70, 0x80, 0x71, 
  0x00, 0x1F, 0x70, 0x00, 0x00, 0x00, 0x00, 0xF0, 0xFF, 0x7F, 0x00, 0x00, 
  0x8E, 0x01, 0x80, 0x01, 0x07, 0xE7, 0xF0, 0x87, 0x01, 0x07, 0x00, 0x00, 
  0x00, 0x00, 0x00, 0x00, 0x07, 0x70, 0xF8, 0xE0, 0x07, 0x00, 0x00, 0x00, 
  0x00, 0x00, 0x00, 0x00, 0x00, 0x00, 0x00, 0xE0, 0x07, 0x1F, 0x80, 0x01, 
  0x07, 0x7E, 0x70, 0x80, 0x01, 0x07, 0x00, 0x00, 0x00, 0x00, 0x00, 0x00, 
  0x07, 0x70, 0xF8, 0xE0, 0x07, 0x00, 0x00, 0x00, 0x00, 0x00, 0x00, 0x00, 
  0x00, 0x00, 0x00, 0xE0, 0x07, 0x1F, 0x80, 0x01, 0x07, 0x7E, 0x70, 0x80, 
  0x01, 0x07, 0xF8, 0xFF, 0x07, 0xF8, 0x1F, 0x00, 0x07, 0x70, 0x00, 0x0E, 
  0x00, 0x07, 0x00, 0x00, 0x80, 0xFF, 0xFF, 0xE1, 0xFF, 0x1F, 0x00, 0x00, 
  0x70, 0x00, 0x80, 0x01, 0x07, 0x18, 0x70, 0x80, 0x01, 0x07, 0x00, 0x00, 
  0x07, 0x0F, 0xF0, 0x00, 0x07, 0x70, 0x00, 0x0E, 0x00, 0x07, 0x00, 0x00, 
  0x00, 0x80, 0x01, 0xE0, 0x00, 0x18, 0x00, 0x00, 0x70, 0x00, 0x80, 0x01, 
  0x07, 0x18, 0x70, 0x80, 0x01, 0x07, 0xF8, 0xFF, 0x07, 0x07, 0xE0, 0x00, 
  0xE7, 0x1F, 0x00, 0x0E, 0x00, 0x07, 0x00, 0x00, 0x00, 0x80, 0x01, 0xE0, 
  0x00, 0x18, 0x00, 0x00, 0x70, 0x00, 0xE0, 0x00, 0x07, 0x18, 0x70, 0x80, 
  0x01, 0x07, 0xF8, 0xFF, 0x07, 0x07, 0xE0, 0x00, 0xE7, 0x1F, 0x00, 0x0E, 
  0x00, 0x07, 0x00, 0x00, 0x00, 0x80, 0x01, 0xE0, 0x00, 0x18, 0x00, 0x00, 
  0x70, 0x00, 0xE0, 0x00, 0x07, 0x18, 0x70, 0x80, 0x01, 0x07, 0x18, 0x00, 
  0x00, 0x0F, 0xF0, 0x00, 0x07, 0x00, 0xFE, 0xFF, 0x0F, 0x07, 0x00, 0x00, 
  0x00, 0x80, 0x01, 0xE0, 0x00, 0x18, 0x00, 0xF0, 0xFF, 0x7F, 0x78, 0x00, 
  0x87, 0xFF, 0x7F, 0x80, 0x01, 0x1F, 0xF0, 0xFF, 0x07, 0xF8, 0x1F, 0xE0, 
  0x07, 0x00, 0x00, 0x00, 0x00, 0xFE, 0x7F, 0x00, 0x00, 0x80, 0x01, 0x80, 
  0xFF, 0x0F, 0x00, 0x00, 0x00, 0x00, 0x00, 0x00, 0x07, 0x00, 0x70, 0x80, 
  0x01, 0x00, 0x00, 0x00, 0x00, 0x00, 0x00, 0x00, 0x00, 0x00, 0x00, 0x00, 
  0x00, 0x00, 0x00, 0x00, 0x00, 0x00, 0x00, 0x00, 0x00, 0x00, 0x00, 0x00, 
  0x00, 0x00, 0x00, 0x00, 0x00, 0x00, 0x00, 0x80, 0x01, 0x00, 0x00, 0x00, 
  0x00, 0x00, 0x00, 0x00, 0x00, 0x00, 0x00, 0x00, 0x00, 0x00, 0x00, 0x00, 
  0x00, 0x00, 0x00, 0x00, 0x00, 0x00, 0x00, 0x00, 0x00, 0x00, 0x00, 0x00, 
  0x00, 0x00, 0x00, 0x80, 0x01, 0x00, 0x00, 0x00, 0x00, 0x00, 0xF8, 0x00, 
  0x07, 0x18, 0x00, 0x00, 0x00, 0x1F, 0x00, 0x00, 0x00, 0x18, 0xFE, 0x0F, 
  0x87, 0xFF, 0x71, 0x00, 0x00, 0x77, 0x00, 0x00, 0x00, 0x00, 0x00, 0x80, 
  0x01, 0x00, 0x00, 0x00, 0x00, 0x00, 0xF8, 0x00, 0x07, 0x18, 0x00, 0x00, 
  0x00, 0x1F, 0x00, 0x00, 0x00, 0x18, 0xFE, 0x0F, 0x87, 0xFF, 0x71, 0x00, 
  0x00, 0x77, 0x00, 0x00, 0x00, 0x00, 0x00, 0x80, 0x01, 0x00, 0x00, 0x00, 
  0x00, 0x00, 0x18, 0xF0, 0x7F, 0x18, 0x00, 0x0E, 0x00, 0x18, 0x00, 0x80, 
  0x0F, 0x18, 0xE0, 0x00, 0x87, 0x01, 0x70, 0xF0, 0x0F, 0x77, 0x00, 0x00, 
  0x00, 0x00, 0x00, 0x80, 0x01, 0x00, 0x00, 0x00, 0x00, 0x00, 0x18, 0x00, 
  0x07, 0x18, 0x00, 0x0E, 0x00, 0x18, 0x00, 0xE0, 0x18, 0x18, 0xE0, 0x00, 
  0x87, 0x01, 0x70, 0x00, 0x0E, 0x77, 0x00, 0x00, 0x00, 0x00, 0x00, 0x80, 
  0x01, 0x00, 0x00, 0x00, 0x00, 0x00, 0x18, 0x80, 0x0F, 0x18, 0x00, 0x0E, 
  0x00, 0x18, 0x00, 0x70, 0x70, 0x18, 0xE0, 0xF0, 0x87, 0x01, 0xF0, 0x07, 
  0x0E, 0x77, 0x00, 0x00, 0x00, 0x00, 0x00, 0x80, 0x01, 0x00, 0x00, 0x00, 
  0x00, 0x00, 0x18, 0x80, 0x0F, 0x18, 0x00, 0x0E, 0x00, 0x18, 0x00, 0x70, 
  0x70, 0x18, 0xE0, 0xF0, 0x87, 0x01, 0xF0, 0x07, 0x0E, 0x77, 0x00, 0x00, 
  0x00, 0x00, 0x00, 0x80, 0x01, 0x00, 0x00, 0x00, 0x00, 0x00, 0x18, 0xE0, 
  0x18, 0x18, 0x00, 0x1F, 0x00, 0x18, 0x00, 0x70, 0x70, 0x18, 0xF0, 0x01, 
  0x87, 0x01, 0x70, 0x00, 0xEE, 0x77, 0x00, 0x00, 0x00, 0x00, 0x00, 0x80, 
  0x01, 0x00, 0x00, 0x00, 0x00, 0x00, 0x18, 0x70, 0x70, 0x18, 0x80, 0x71, 
  0x00, 0x18, 0x00, 0x70, 0x70, 0x18, 0x18, 0x07, 0x87, 0x01, 0x70, 0x00, 
  0x0E, 0x77, 0x00, 0x00, 0x00, 0x00, 0x00, 0x80, 0x01, 0x00, 0x00, 0x00, 
  0x00, 0x00, 0x18, 0x00, 0x00, 0x18, 0xF8, 0xE0, 0x07, 0x18, 0x00, 0x70, 
  0x70, 0x18, 0x0E, 0x0E, 0x07, 0xFF, 0x71, 0x00, 0x0E, 0x77, 0x00, 0x00, 
  0x00, 0x00, 0x00, 0x80, 0x01, 0x00, 0x00, 0x00, 0x00, 0x00, 0x18, 0x00, 
  0x00, 0x18, 0xF8, 0xE0, 0x07, 0x18, 0x00, 0x70, 0x70, 0x18, 0x0E, 0x0E, 
  0x07, 0xFF, 0x71, 0x00, 0x0E, 0x77, 0x00, 0x00, 0x00, 0x00, 0x00, 0x80, 
  0x01, 0x00, 0x00, 0x00, 0x00, 0x00, 0x18, 0xF0, 0xFF, 0x1F, 0x00, 0x00, 
  0x00, 0x18, 0x00, 0x70, 0x70, 0x18, 0x00, 0x00, 0x00, 0x00, 0x00, 0x00, 
  0x0E, 0x77, 0x00, 0x00, 0x00, 0x00, 0x00, 0x80, 0x01, 0x00, 0x00, 0x00, 
  0x00, 0x00, 0x18, 0x00, 0x07, 0x18, 0x00, 0x0E, 0x00, 0x18, 0x00, 0x70, 
  0x70, 0x18, 0x18, 0x00, 0x00, 0x07, 0x00, 0x00, 0xEE, 0x77, 0x00, 0x00, 
  0x00, 0x00, 0x00, 0x80, 0x01, 0x00, 0x00, 0x00, 0x00, 0x00, 0x18, 0x00, 
  0x07, 0x18, 0x00, 0x0E, 0x00, 0x18, 0x00, 0x70, 0x70, 0x18, 0x18, 0x00, 
  0x00, 0x07, 0x00, 0x00, 0x0E, 0x77, 0x00, 0x00, 0x00, 0x00, 0x00, 0x80, 
  0x01, 0x00, 0x00, 0x00, 0x00, 0x00, 0x18, 0x00, 0x07, 0x18, 0x00, 0x0E, 
  0x00, 0x18, 0x00, 0x70, 0x70, 0x18, 0x18, 0x00, 0x00, 0x07, 0x00, 0x00, 
  0x0E, 0x77, 0x00, 0x00, 0x00, 0x00, 0x00, 0x80, 0x01, 0x00, 0x00, 0x00, 
  0x00, 0x00, 0x18, 0x00, 0x07, 0x18, 0x00, 0x0E, 0x00, 0x18, 0x00, 0xE0, 
  0x18, 0x18, 0x18, 0x00, 0x00, 0x07, 0x00, 0x00, 0x07, 0x77, 0x00, 0x00, 
  0x00, 0x00, 0x00, 0x80, 0x01, 0x00, 0x00, 0x00, 0x00, 0x00, 0x18, 0x00, 
  0x07, 0x18, 0xFE, 0xFF, 0x0F, 0x18, 0x00, 0x80, 0x0F, 0x18, 0x18, 0x00, 
  0x00, 0x07, 0x00, 0xE0, 0x01, 0x77, 0x00, 0x00, 0x00, 0x00, 0x00, 0x80, 
  0x01, 0x00, 0x00, 0x00, 0x00, 0x00, 0xF8, 0x00, 0x07, 0x18, 0x00, 0x00, 
  0x00, 0x1F, 0x00, 0x00, 0x00, 0x18, 0xF0, 0xFF, 0x07, 0xFE, 0x7F, 0x00, 
  0x00, 0x77, 0x00, 0x00, 0x00, 0x00, 0x00, 0x80, 0x01, 0x00, 0x00, 0x00, 
  0x00, 0x00, 0xF8, 0x00, 0x07, 0x18, 0x00, 0x00, 0x00, 0x1F, 0x00, 0x00, 
  0x00, 0x18, 0xF0, 0xFF, 0x07, 0xFE, 0x7F, 0x00, 0x00, 0x77, 0x00, 0x00, 
  0x00, 0x00, 0x00, 0x80, 0x01, 0x00, 0x00, 0x00, 0x00, 0x00, 0x00, 0x00, 
  0x00, 0x00, 0x00, 0x00, 0x00, 0x00, 0x00, 0x00, 0x00, 0x00, 0x00, 0x00, 
  0x00, 0x00, 0x00, 0x00, 0x00, 0x00, 0x00, 0x00, 0x00, 0x00, 0x00, 0x80, 
  0x01, 0x00, 0x00, 0x00, 0x00, 0x00, 0x00, 0x00, 0x00, 0x00, 0x00, 0x00, 
  0x00, 0x00, 0x00, 0x00, 0x00, 0x00, 0x00, 0x00, 0x00, 0x00, 0x00, 0x00, 
  0x00, 0x00, 0x00, 0x00, 0x00, 0x00, 0x00, 0x80, 0x01, 0x00, 0x00, 0x00, 
  0x00, 0x00, 0x00, 0x00, 0x00, 0x00, 0x00, 0x00, 0x00, 0x00, 0x00, 0x00, 
  0x00, 0x00, 0x00, 0x00, 0x00, 0x00, 0x00, 0x00, 0x00, 0x00, 0x00, 0x00, 
  0x00, 0x00, 0x00, 0x80, 0x01, 0x00, 0x00, 0x00, 0x00, 0x00, 0x00, 0x00, 
  0x00, 0x00, 0x00, 0x00, 0x00, 0x00, 0x00, 0x00, 0x00, 0x00, 0x00, 0x00, 
  0x00, 0x00, 0x00, 0x00, 0x00, 0x00, 0x00, 0x00, 0x00, 0x00, 0x00, 0x80, 
  0xFF, 0xFF, 0xFF, 0xFF, 0xFF, 0xFF, 0xFF, 0xFF, 0xFF, 0xFF, 0xFF, 0xFF, 
  0xFF, 0xFF, 0xFF, 0xFF, 0xFF, 0xFF, 0xFF, 0xFF, 0xFF, 0xFF, 0xFF, 0xFF, 
  0xFF, 0xFF, 0xFF, 0xFF, 0xFF, 0xFF, 0xFF, 0xFF, };
