#define StopSelling1666515726_width 256
#define StopSelling1666515726_height 160
static char StopSelling1666515726_bits[] = {
  0xFF, 0xFF, 0xFF, 0xFF, 0xFF, 0xFF, 0xFF, 0xFF, 0xFF, 0xFF, 0xFF, 0xFF, 
  0xFF, 0xFF, 0xFF, 0xFF, 0xFF, 0xFF, 0xFF, 0xFF, 0xFF, 0xFF, 0xFF, 0xFF, 
  0xFF, 0xFF, 0xFF, 0xFF, 0xFF, 0xFF, 0xFF, 0xFF, 0x01, 0x00, 0x00, 0x00, 
  0x00, 0x00, 0x00, 0x00, 0x00, 0x00, 0x00, 0x00, 0x00, 0x00, 0x00, 0x00, 
  0x00, 0x00, 0x00, 0x00, 0x00, 0x00, 0x00, 0x00, 0x00, 0x00, 0x00, 0x00, 
  0x00, 0x00, 0x00, 0x80, 0x01, 0x00, 0x00, 0x00, 0x00, 0x00, 0x00, 0x00, 
  0x00, 0x00, 0x00, 0x00, 0x00, 0x00, 0x00, 0x00, 0x00, 0x00, 0x00, 0x00, 
  0x00, 0x00, 0x00, 0x00, 0x00, 0x00, 0x00, 0x00, 0x00, 0x00, 0x00, 0x80, 
  0x01, 0x00, 0x00, 0x00, 0x00, 0x00, 0x00, 0x00, 0x00, 0x00, 0x00, 0x00, 
  0x00, 0x00, 0x00, 0x00, 0x00, 0x00, 0x00, 0x00, 0x00, 0x00, 0x00, 0x00, 
  0x00, 0x00, 0x00, 0x00, 0x00, 0x00, 0x00, 0x80, 0x01, 0x00, 0x00, 0x00, 
  0x00, 0x00, 0x00, 0x00, 0x00, 0x00, 0x00, 0x00, 0x00, 0x00, 0x00, 0x00, 
  0x00, 0x00, 0x00, 0x00, 0x00, 0x00, 0x00, 0x00, 0x00, 0x00, 0x00, 0x00, 
  0x00, 0x00, 0x00, 0x80, 0x01, 0x00, 0x00, 0x00, 0x00, 0x00, 0x00, 0x00, 
  0x00, 0x00, 0x00, 0x00, 0x00, 0x00, 0x00, 0x00, 0x00, 0x00, 0x00, 0x00, 
  0x00, 0x00, 0x00, 0x00, 0x00, 0x00, 0x00, 0x00, 0x00, 0x00, 0x00, 0x80, 
  0x01, 0x00, 0x00, 0x00, 0x00, 0x00, 0x00, 0x00, 0x00, 0x00, 0x00, 0x00, 
  0x00, 0x00, 0x00, 0x00, 0x00, 0x00, 0x00, 0x00, 0x00, 0x00, 0x00, 0x00, 
  0x00, 0x00, 0x00, 0x00, 0x00, 0x00, 0x00, 0x80, 0x01, 0x00, 0x00, 0x00, 
  0x00, 0x00, 0x00, 0x00, 0x00, 0x00, 0x00, 0x00, 0x00, 0x00, 0x00, 0x00, 
  0x00, 0x00, 0x00, 0x00, 0x00, 0x00, 0x00, 0x00, 0x00, 0x00, 0x00, 0x00, 
  0x00, 0x00, 0x00, 0x80, 0x01, 0x00, 0x00, 0x00, 0x00, 0x00, 0x00, 0x00, 
  0x00, 0x00, 0x00, 0x00, 0x00, 0x00, 0x00, 0x00, 0x00, 0x00, 0x00, 0x00, 
  0x00, 0x00, 0x00, 0x00, 0x00, 0x00, 0x00, 0x00, 0x00, 0x00, 0x00, 0x80, 
  0x01, 0x00, 0x00, 0x00, 0x00, 0x00, 0x00, 0x00, 0x00, 0x00, 0x00, 0x00, 
  0x00, 0x00, 0x00, 0x00, 0x00, 0x00, 0x00, 0x00, 0x00, 0x00, 0x00, 0x00, 
  0x00, 0x00, 0x00, 0x00, 0x00, 0x00, 0x00, 0x80, 0x01, 0x00, 0x00, 0x00, 
  0x00, 0x00, 0x00, 0x00, 0x00, 0x00, 0x00, 0x00, 0x00, 0x00, 0x00, 0x00, 
  0x00, 0x00, 0x00, 0x00, 0x00, 0x00, 0x00, 0x00, 0x00, 0x00, 0x00, 0x00, 
  0x00, 0x00, 0x00, 0x80, 0x01, 0x00, 0x00, 0x00, 0x00, 0x00, 0x00, 0x00, 
  0x00, 0x00, 0x00, 0x00, 0x00, 0x00, 0x00, 0x00, 0x00, 0x00, 0x00, 0x00, 
  0x00, 0x00, 0x00, 0x00, 0x00, 0x00, 0x00, 0x00, 0x00, 0x00, 0x00, 0x80, 
  0x01, 0x00, 0x00, 0x00, 0x00, 0x00, 0x00, 0x00, 0x00, 0x00, 0x00, 0x00, 
  0x00, 0x00, 0x00, 0x00, 0x00, 0x00, 0x00, 0x00, 0x00, 0x00, 0x00, 0x00, 
  0x00, 0x00, 0x00, 0x00, 0x00, 0x00, 0x00, 0x80, 0x01, 0x00, 0x00, 0x00, 
  0x00, 0x00, 0x00, 0x00, 0x00, 0x00, 0x00, 0x00, 0x00, 0x00, 0x00, 0x00, 
  0x00, 0x00, 0x00, 0x00, 0x00, 0x00, 0x00, 0x00, 0x00, 0x00, 0x00, 0x00, 
  0x00, 0x00, 0x00, 0x80, 0x01, 0x00, 0x00, 0x00, 0x00, 0x00, 0x00, 0x00, 
  0x00, 0x00, 0x00, 0x00, 0x00, 0x00, 0x00, 0x00, 0x00, 0x00, 0x00, 0x00, 
  0x00, 0x00, 0x00, 0x00, 0x00, 0x00, 0x00, 0x00, 0x00, 0x00, 0x00, 0x80, 
  0x01, 0x00, 0x00, 0x00, 0x00, 0x00, 0x00, 0x00, 0x00, 0x00, 0x00, 0x00, 
  0x00, 0x00, 0x00, 0x00, 0x00, 0x00, 0x00, 0x00, 0x00, 0x00, 0x00, 0x00, 
  0x00, 0x00, 0x00, 0x00, 0x00, 0x00, 0x00, 0x80, 0x01, 0x00, 0x00, 0x00, 
  0x00, 0x00, 0x00, 0x00, 0x00, 0x00, 0x00, 0x00, 0x00, 0x00, 0x00, 0x00, 
  0x00, 0x00, 0x00, 0x00, 0x00, 0x00, 0x00, 0x00, 0x00, 0x00, 0x00, 0x00, 
  0x00, 0x00, 0x00, 0x80, 0xF1, 0xFF, 0xFF, 0xFF, 0x0F, 0xF0, 0x0F, 0x00, 
  0x00, 0x00, 0x00, 0x00, 0x00, 0xFF, 0xF0, 0x0F, 0x00, 0xFF, 0xFF, 0xFF, 
  0xFF, 0xFF, 0xFF, 0x00, 0x00, 0x00, 0x00, 0x00, 0x00, 0x00, 0xFF, 0x80, 
  0xF1, 0xFF, 0xFF, 0xFF, 0x0F, 0xF0, 0x0F, 0x00, 0x00, 0x00, 0x00, 0x00, 
  0x00, 0xFF, 0xF0, 0x0F, 0x00, 0xFF, 0xFF, 0xFF, 0xFF, 0xFF, 0xFF, 0x00, 
  0x00, 0x00, 0x00, 0x00, 0x00, 0x00, 0xFF, 0x80, 0xF1, 0xFF, 0xFF, 0xFF, 
  0x0F, 0xF0, 0x0F, 0x00, 0x00, 0x00, 0x00, 0x00, 0x00, 0xFF, 0xF0, 0x0F, 
  0x00, 0xFF, 0xFF, 0xFF, 0xFF, 0xFF, 0xFF, 0x00, 0x00, 0x00, 0x00, 0x00, 
  0x00, 0x00, 0xFF, 0x80, 0xF1, 0xFF, 0xFF, 0xFF, 0x0F, 0xF0, 0x0F, 0x00, 
  0x00, 0x00, 0x00, 0x00, 0x00, 0xFF, 0xF0, 0x0F, 0x00, 0xFF, 0xFF, 0xFF, 
  0xFF, 0xFF, 0xFF, 0x00, 0x00, 0x00, 0x00, 0x00, 0x00, 0x00, 0xFF, 0x80, 
  0x01, 0xFF, 0x00, 0xFF, 0x00, 0xF0, 0x0F, 0x00, 0xF0, 0xFF, 0xFF, 0xFF, 
  0x00, 0xFF, 0xF0, 0x0F, 0x00, 0x00, 0x00, 0xF0, 0x0F, 0x00, 0x00, 0x00, 
  0xF0, 0xFF, 0xFF, 0xFF, 0x0F, 0x00, 0xFF, 0x80, 0x01, 0xFF, 0x00, 0xFF, 
  0x00, 0xF0, 0x0F, 0x00, 0xF0, 0xFF, 0xFF, 0xFF, 0x00, 0xFF, 0xF0, 0x0F, 
  0x00, 0x00, 0x00, 0xF0, 0x0F, 0x00, 0x00, 0x00, 0xF0, 0xFF, 0xFF, 0xFF, 
  0x0F, 0x00, 0xFF, 0x80, 0x01, 0xFF, 0x00, 0xFF, 0x00, 0xF0, 0x0F, 0x00, 
  0xF0, 0xFF, 0xFF, 0xFF, 0x00, 0xFF, 0xF0, 0x0F, 0x00, 0x00, 0x00, 0xF0, 
  0x0F, 0x00, 0x00, 0x00, 0xF0, 0xFF, 0xFF, 0xFF, 0x0F, 0x00, 0xFF, 0x80, 
  0x01, 0xFF, 0x00, 0xFF, 0x00, 0xF0, 0x0F, 0x00, 0xF0, 0xFF, 0xFF, 0xFF, 
  0x00, 0xFF, 0xF0, 0x0F, 0x00, 0x00, 0x00, 0xF0, 0x0F, 0x00, 0x00, 0x00, 
  0xF0, 0xFF, 0xFF, 0xFF, 0x0F, 0x00, 0xFF, 0x80, 0x01, 0xFF, 0x00, 0xFF, 
  0x00, 0xF0, 0x0F, 0x00, 0xF0, 0x0F, 0x00, 0xFF, 0x00, 0xFF, 0xF0, 0x0F, 
  0x00, 0x00, 0x00, 0xFF, 0xFF, 0x00, 0x00, 0x00, 0x00, 0x00, 0xFF, 0x00, 
  0x00, 0x00, 0xFF, 0x80, 0x01, 0xFF, 0x00, 0xFF, 0x00, 0xF0, 0x0F, 0x00, 
  0xF0, 0x0F, 0x00, 0xFF, 0x00, 0xFF, 0xF0, 0x0F, 0x00, 0x00, 0x00, 0xFF, 
  0xFF, 0x00, 0x00, 0x00, 0x00, 0x00, 0xFF, 0x00, 0x00, 0x00, 0xFF, 0x80, 
  0x01, 0xFF, 0x00, 0xFF, 0x00, 0xF0, 0x0F, 0x00, 0xF0, 0x0F, 0x00, 0xFF, 
  0x00, 0xFF, 0xF0, 0x0F, 0x00, 0x00, 0x00, 0xFF, 0xFF, 0x00, 0x00, 0x00, 
  0x00, 0x00, 0xFF, 0x00, 0x00, 0x00, 0xFF, 0x80, 0x01, 0xFF, 0x00, 0xFF, 
  0x00, 0xF0, 0x0F, 0x00, 0xF0, 0x0F, 0x00, 0xFF, 0x00, 0xFF, 0xF0, 0x0F, 
  0x00, 0x00, 0x00, 0xFF, 0xFF, 0x00, 0x00, 0x00, 0x00, 0x00, 0xFF, 0x00, 
  0x00, 0x00, 0xFF, 0x80, 0x01, 0xFF, 0x00, 0xFF, 0x00, 0xF0, 0xFF, 0xFF, 
  0xF0, 0x0F, 0x00, 0xFF, 0x00, 0xFF, 0xF0, 0x0F, 0x00, 0x00, 0xF0, 0x0F, 
  0xF0, 0x0F, 0x00, 0x00, 0x00, 0x00, 0xFF, 0x00, 0x00, 0x00, 0xFF, 0x80, 
  0x01, 0xFF, 0x00, 0xFF, 0x00, 0xF0, 0xFF, 0xFF, 0xF0, 0x0F, 0x00, 0xFF, 
  0x00, 0xFF, 0xF0, 0x0F, 0x00, 0x00, 0xF0, 0x0F, 0xF0, 0x0F, 0x00, 0x00, 
  0x00, 0x00, 0xFF, 0x00, 0x00, 0x00, 0xFF, 0x80, 0x01, 0xFF, 0x00, 0xFF, 
  0x00, 0xF0, 0xFF, 0xFF, 0xF0, 0x0F, 0x00, 0xFF, 0x00, 0xFF, 0xF0, 0x0F, 
  0x00, 0x00, 0xF0, 0x0F, 0xF0, 0x0F, 0x00, 0x00, 0x00, 0x00, 0xFF, 0x00, 
  0x00, 0x00, 0xFF, 0x80, 0x01, 0xFF, 0x00, 0xFF, 0x00, 0xF0, 0xFF, 0xFF, 
  0xF0, 0x0F, 0x00, 0xFF, 0x00, 0xFF, 0xF0, 0x0F, 0x00, 0x00, 0xF0, 0x0F, 
  0xF0, 0x0F, 0x00, 0x00, 0x00, 0x00, 0xFF, 0x00, 0x00, 0x00, 0xFF, 0x80, 
  0x01, 0xFF, 0x00, 0xFF, 0x00, 0xF0, 0x0F, 0x00, 0xF0, 0x0F, 0x00, 0xFF, 
  0x00, 0xFF, 0xF0, 0x0F, 0x00, 0xFF, 0xFF, 0x00, 0x00, 0xFF, 0xFF, 0x00, 
  0x00, 0x00, 0xFF, 0x00, 0x00, 0x00, 0xFF, 0x80, 0x01, 0xFF, 0x00, 0xFF, 
  0x00, 0xF0, 0x0F, 0x00, 0xF0, 0x0F, 0x00, 0xFF, 0x00, 0xFF, 0xF0, 0x0F, 
  0x00, 0xFF, 0xFF, 0x00, 0x00, 0xFF, 0xFF, 0x00, 0x00, 0x00, 0xFF, 0x00, 
  0x00, 0x00, 0xFF, 0x80, 0x01, 0xFF, 0x00, 0xFF, 0x00, 0xF0, 0x0F, 0x00, 
  0xF0, 0x0F, 0x00, 0xFF, 0x00, 0xFF, 0xF0, 0x0F, 0x00, 0xFF, 0xFF, 0x00, 
  0x00, 0xFF, 0xFF, 0x00, 0x00, 0x00, 0xFF, 0x00, 0x00, 0x00, 0xFF, 0x80, 
  0x01, 0xFF, 0x00, 0xFF, 0x00, 0xF0, 0x0F, 0x00, 0xF0, 0x0F, 0x00, 0xFF, 
  0x00, 0xFF, 0xF0, 0x0F, 0x00, 0xFF, 0xFF, 0x00, 0x00, 0xFF, 0xFF, 0x00, 
  0x00, 0x00, 0xFF, 0x00, 0x00, 0x00, 0xFF, 0x80, 0x01, 0xFF, 0x00, 0xFF, 
  0x00, 0xF0, 0x0F, 0x00, 0xF0, 0x0F, 0x00, 0xFF, 0x00, 0xFF, 0xF0, 0x0F, 
  0x00, 0x00, 0x00, 0x00, 0x00, 0x00, 0x00, 0x00, 0x00, 0x00, 0xFF, 0x00, 
  0x00, 0x00, 0xFF, 0x80, 0x01, 0xFF, 0x00, 0xFF, 0x00, 0xF0, 0x0F, 0x00, 
  0xF0, 0x0F, 0x00, 0xFF, 0x00, 0xFF, 0xF0, 0x0F, 0x00, 0x00, 0x00, 0x00, 
  0x00, 0x00, 0x00, 0x00, 0x00, 0x00, 0xFF, 0x00, 0x00, 0x00, 0xFF, 0x80, 
  0x01, 0xFF, 0x00, 0xFF, 0x00, 0xF0, 0x0F, 0x00, 0xF0, 0x0F, 0x00, 0xFF, 
  0x00, 0xFF, 0xF0, 0x0F, 0x00, 0x00, 0x00, 0x00, 0x00, 0x00, 0x00, 0x00, 
  0x00, 0x00, 0xFF, 0x00, 0x00, 0x00, 0xFF, 0x80, 0x01, 0xFF, 0x00, 0xFF, 
  0x00, 0xF0, 0x0F, 0x00, 0xF0, 0x0F, 0x00, 0xFF, 0x00, 0xFF, 0xF0, 0x0F, 
  0x00, 0x00, 0x00, 0x00, 0x00, 0x00, 0x00, 0x00, 0x00, 0x00, 0xFF, 0x00, 
  0x00, 0x00, 0xFF, 0x80, 0xF1, 0xFF, 0xFF, 0xFF, 0x0F, 0xF0, 0x0F, 0x00, 
  0xF0, 0x0F, 0x00, 0xFF, 0x00, 0xFF, 0xFF, 0x0F, 0xF0, 0xFF, 0xFF, 0xFF, 
  0xFF, 0xFF, 0xFF, 0x0F, 0x00, 0x00, 0xFF, 0x00, 0x00, 0x00, 0xFF, 0x80, 
  0xF1, 0xFF, 0xFF, 0xFF, 0x0F, 0xF0, 0x0F, 0x00, 0xF0, 0x0F, 0x00, 0xFF, 
  0x00, 0xFF, 0xFF, 0x0F, 0xF0, 0xFF, 0xFF, 0xFF, 0xFF, 0xFF, 0xFF, 0x0F, 
  0x00, 0x00, 0xFF, 0x00, 0x00, 0x00, 0xFF, 0x80, 0xF1, 0xFF, 0xFF, 0xFF, 
  0x0F, 0xF0, 0x0F, 0x00, 0xF0, 0x0F, 0x00, 0xFF, 0x00, 0xFF, 0xFF, 0x0F, 
  0xF0, 0xFF, 0xFF, 0xFF, 0xFF, 0xFF, 0xFF, 0x0F, 0x00, 0x00, 0xFF, 0x00, 
  0x00, 0x00, 0xFF, 0x80, 0xF1, 0xFF, 0xFF, 0xFF, 0x0F, 0xF0, 0x0F, 0x00, 
  0xF0, 0x0F, 0x00, 0xFF, 0x00, 0xFF, 0xFF, 0x0F, 0xF0, 0xFF, 0xFF, 0xFF, 
  0xFF, 0xFF, 0xFF, 0x0F, 0x00, 0x00, 0xFF, 0x00, 0x00, 0x00, 0xFF, 0x80, 
  0x01, 0x00, 0x00, 0x00, 0x00, 0x00, 0x00, 0x00, 0xF0, 0x0F, 0x00, 0xFF, 
  0x00, 0xFF, 0xF0, 0x0F, 0x00, 0x00, 0x00, 0xF0, 0x0F, 0x00, 0x00, 0x00, 
  0x00, 0x00, 0xFF, 0x00, 0x00, 0x00, 0xFF, 0x80, 0x01, 0x00, 0x00, 0x00, 
  0x00, 0x00, 0x00, 0x00, 0xF0, 0x0F, 0x00, 0xFF, 0x00, 0xFF, 0xF0, 0x0F, 
  0x00, 0x00, 0x00, 0xF0, 0x0F, 0x00, 0x00, 0x00, 0x00, 0x00, 0xFF, 0x00, 
  0x00, 0x00, 0xFF, 0x80, 0x01, 0x00, 0x00, 0x00, 0x00, 0x00, 0x00, 0x00, 
  0xF0, 0x0F, 0x00, 0xFF, 0x00, 0xFF, 0xF0, 0x0F, 0x00, 0x00, 0x00, 0xF0, 
  0x0F, 0x00, 0x00, 0x00, 0x00, 0x00, 0xFF, 0x00, 0x00, 0x00, 0xFF, 0x80, 
  0x01, 0x00, 0x00, 0x00, 0x00, 0x00, 0x00, 0x00, 0xF0, 0x0F, 0x00, 0xFF, 
  0x00, 0xFF, 0xF0, 0x0F, 0x00, 0x00, 0x00, 0xF0, 0x0F, 0x00, 0x00, 0x00, 
  0x00, 0x00, 0xFF, 0x00, 0x00, 0x00, 0xFF, 0x80, 0x01, 0xFF, 0x00, 0x00, 
  0x00, 0x00, 0x00, 0x00, 0xF0, 0x0F, 0x00, 0xFF, 0x00, 0xFF, 0xF0, 0x0F, 
  0x00, 0x00, 0xFF, 0xFF, 0xFF, 0xFF, 0x00, 0x00, 0x00, 0x00, 0xFF, 0x00, 
  0x00, 0x00, 0xFF, 0x80, 0x01, 0xFF, 0x00, 0x00, 0x00, 0x00, 0x00, 0x00, 
  0xF0, 0x0F, 0x00, 0xFF, 0x00, 0xFF, 0xF0, 0x0F, 0x00, 0x00, 0xFF, 0xFF, 
  0xFF, 0xFF, 0x00, 0x00, 0x00, 0x00, 0xFF, 0x00, 0x00, 0x00, 0xFF, 0x80, 
  0x01, 0xFF, 0x00, 0x00, 0x00, 0x00, 0x00, 0x00, 0xF0, 0x0F, 0x00, 0xFF, 
  0x00, 0xFF, 0xF0, 0x0F, 0x00, 0x00, 0xFF, 0xFF, 0xFF, 0xFF, 0x00, 0x00, 
  0x00, 0x00, 0xFF, 0x00, 0x00, 0x00, 0xFF, 0x80, 0x01, 0xFF, 0x00, 0x00, 
  0x00, 0x00, 0x00, 0x00, 0xF0, 0x0F, 0x00, 0xFF, 0x00, 0xFF, 0xF0, 0x0F, 
  0x00, 0x00, 0xFF, 0xFF, 0xFF, 0xFF, 0x00, 0x00, 0x00, 0x00, 0xFF, 0x00, 
  0x00, 0x00, 0xFF, 0x80, 0x01, 0xFF, 0x00, 0x00, 0x00, 0x00, 0x00, 0x00, 
  0xF0, 0x0F, 0x00, 0xFF, 0x00, 0xFF, 0xF0, 0x0F, 0x00, 0xFF, 0x0F, 0x00, 
  0x00, 0xF0, 0xFF, 0x00, 0x00, 0xF0, 0xFF, 0x0F, 0x00, 0x00, 0xFF, 0x80, 
  0x01, 0xFF, 0x00, 0x00, 0x00, 0x00, 0x00, 0x00, 0xF0, 0x0F, 0x00, 0xFF, 
  0x00, 0xFF, 0xF0, 0x0F, 0x00, 0xFF, 0x0F, 0x00, 0x00, 0xF0, 0xFF, 0x00, 
  0x00, 0xF0, 0xFF, 0x0F, 0x00, 0x00, 0xFF, 0x80, 0x01, 0xFF, 0x00, 0x00, 
  0x00, 0x00, 0x00, 0x00, 0xF0, 0x0F, 0x00, 0xFF, 0x00, 0xFF, 0xF0, 0x0F, 
  0x00, 0xFF, 0x0F, 0x00, 0x00, 0xF0, 0xFF, 0x00, 0x00, 0xF0, 0xFF, 0x0F, 
  0x00, 0x00, 0xFF, 0x80, 0x01, 0xFF, 0x00, 0x00, 0x00, 0x00, 0x00, 0x00, 
  0xF0, 0x0F, 0x00, 0xFF, 0x00, 0xFF, 0xF0, 0x0F, 0x00, 0xFF, 0x0F, 0x00, 
  0x00, 0xF0, 0xFF, 0x00, 0x00, 0xF0, 0xFF, 0x0F, 0x00, 0x00, 0xFF, 0x80, 
  0x01, 0xFF, 0x00, 0x00, 0x00, 0x00, 0x00, 0x00, 0xF0, 0x0F, 0x00, 0xFF, 
  0x00, 0xFF, 0xF0, 0x0F, 0x00, 0xFF, 0x00, 0x00, 0x00, 0x00, 0xFF, 0x00, 
  0x00, 0xFF, 0x00, 0xFF, 0x00, 0x00, 0xFF, 0x80, 0x01, 0xFF, 0x00, 0x00, 
  0x00, 0x00, 0x00, 0x00, 0xF0, 0x0F, 0x00, 0xFF, 0x00, 0xFF, 0xF0, 0x0F, 
  0x00, 0xFF, 0x00, 0x00, 0x00, 0x00, 0xFF, 0x00, 0x00, 0xFF, 0x00, 0xFF, 
  0x00, 0x00, 0xFF, 0x80, 0x01, 0xFF, 0x00, 0x00, 0x00, 0x00, 0x00, 0x00, 
  0xF0, 0x0F, 0x00, 0xFF, 0x00, 0xFF, 0xF0, 0x0F, 0x00, 0xFF, 0x00, 0x00, 
  0x00, 0x00, 0xFF, 0x00, 0x00, 0xFF, 0x00, 0xFF, 0x00, 0x00, 0xFF, 0x80, 
  0x01, 0xFF, 0x00, 0x00, 0x00, 0x00, 0x00, 0x00, 0xF0, 0x0F, 0x00, 0xFF, 
  0x00, 0xFF, 0xF0, 0x0F, 0x00, 0xFF, 0x00, 0x00, 0x00, 0x00, 0xFF, 0x00, 
  0x00, 0xFF, 0x00, 0xFF, 0x00, 0x00, 0xFF, 0x80, 0x01, 0xFF, 0x00, 0x00, 
  0x00, 0x00, 0x00, 0x00, 0x00, 0xFF, 0xFF, 0x0F, 0x00, 0xFF, 0xF0, 0x0F, 
  0x00, 0xFF, 0x0F, 0x00, 0x00, 0xF0, 0xFF, 0x00, 0xF0, 0x0F, 0x00, 0xF0, 
  0x0F, 0x00, 0xFF, 0x80, 0x01, 0xFF, 0x00, 0x00, 0x00, 0x00, 0x00, 0x00, 
  0x00, 0xFF, 0xFF, 0x0F, 0x00, 0xFF, 0xF0, 0x0F, 0x00, 0xFF, 0x0F, 0x00, 
  0x00, 0xF0, 0xFF, 0x00, 0xF0, 0x0F, 0x00, 0xF0, 0x0F, 0x00, 0xFF, 0x80, 
  0x01, 0xFF, 0x00, 0x00, 0x00, 0x00, 0x00, 0x00, 0x00, 0xFF, 0xFF, 0x0F, 
  0x00, 0xFF, 0xF0, 0x0F, 0x00, 0xFF, 0x0F, 0x00, 0x00, 0xF0, 0xFF, 0x00, 
  0xF0, 0x0F, 0x00, 0xF0, 0x0F, 0x00, 0xFF, 0x80, 0x01, 0xFF, 0x00, 0x00, 
  0x00, 0x00, 0x00, 0x00, 0x00, 0xFF, 0xFF, 0x0F, 0x00, 0xFF, 0xF0, 0x0F, 
  0x00, 0xFF, 0x0F, 0x00, 0x00, 0xF0, 0xFF, 0x00, 0xF0, 0x0F, 0x00, 0xF0, 
  0x0F, 0x00, 0xFF, 0x80, 0x01, 0xF0, 0xFF, 0xFF, 0xFF, 0xFF, 0x0F, 0x00, 
  0x00, 0x00, 0x00, 0x00, 0x00, 0xFF, 0xF0, 0x0F, 0x00, 0x00, 0xFF, 0xFF, 
  0xFF, 0xFF, 0x00, 0x00, 0x00, 0x00, 0x00, 0x00, 0x00, 0x00, 0xFF, 0x80, 
  0x01, 0xF0, 0xFF, 0xFF, 0xFF, 0xFF, 0x0F, 0x00, 0x00, 0x00, 0x00, 0x00, 
  0x00, 0xFF, 0xF0, 0x0F, 0x00, 0x00, 0xFF, 0xFF, 0xFF, 0xFF, 0x00, 0x00, 
  0x00, 0x00, 0x00, 0x00, 0x00, 0x00, 0xFF, 0x80, 0x01, 0xF0, 0xFF, 0xFF, 
  0xFF, 0xFF, 0x0F, 0x00, 0x00, 0x00, 0x00, 0x00, 0x00, 0xFF, 0xF0, 0x0F, 
  0x00, 0x00, 0xFF, 0xFF, 0xFF, 0xFF, 0x00, 0x00, 0x00, 0x00, 0x00, 0x00, 
  0x00, 0x00, 0xFF, 0x80, 0x01, 0xF0, 0xFF, 0xFF, 0xFF, 0xFF, 0x0F, 0x00, 
  0x00, 0x00, 0x00, 0x00, 0x00, 0xFF, 0xF0, 0x0F, 0x00, 0x00, 0xFF, 0xFF, 
  0xFF, 0xFF, 0x00, 0x00, 0x00, 0x00, 0x00, 0x00, 0x00, 0x00, 0xFF, 0x80, 
  0x01, 0x00, 0x00, 0x00, 0x00, 0x00, 0x00, 0x00, 0x00, 0x00, 0x00, 0x00, 
  0x00, 0x00, 0x00, 0x00, 0x00, 0x00, 0x00, 0x00, 0x00, 0x00, 0x00, 0x00, 
  0x00, 0x00, 0x00, 0x00, 0x00, 0x00, 0x00, 0x80, 0x01, 0x00, 0x00, 0x00, 
  0x00, 0x00, 0x00, 0x00, 0x00, 0x00, 0x00, 0x00, 0x00, 0x00, 0x00, 0x00, 
  0x00, 0x00, 0x00, 0x00, 0x00, 0x00, 0x00, 0x00, 0x00, 0x00, 0x00, 0x00, 
  0x00, 0x00, 0x00, 0x80, 0x01, 0x00, 0x00, 0x00, 0x00, 0x00, 0x00, 0x00, 
  0x00, 0x00, 0x00, 0x00, 0x00, 0x00, 0x00, 0x00, 0x00, 0x00, 0x00, 0x00, 
  0x00, 0x00, 0x00, 0x00, 0x00, 0x00, 0x00, 0x00, 0x00, 0x00, 0x00, 0x80, 
  0x01, 0x00, 0x00, 0x00, 0x00, 0x00, 0x00, 0x00, 0x00, 0x00, 0x00, 0x00, 
  0x00, 0x00, 0x00, 0x00, 0x00, 0x00, 0x00, 0x00, 0x00, 0x00, 0x00, 0x00, 
  0x00, 0x00, 0x00, 0x00, 0x00, 0x00, 0x00, 0x80, 0x01, 0x00, 0x00, 0x00, 
  0x00, 0x00, 0x00, 0x00, 0x00, 0x00, 0x00, 0x00, 0x00, 0x00, 0x00, 0x00, 
  0x00, 0x00, 0x00, 0x00, 0x00, 0x00, 0x00, 0x00, 0x00, 0x00, 0x00, 0x00, 
  0x00, 0x00, 0x00, 0x80, 0x01, 0x00, 0x00, 0x00, 0x00, 0x00, 0x00, 0x00, 
  0x00, 0x00, 0x00, 0x00, 0x00, 0x00, 0x00, 0x00, 0x00, 0x00, 0x00, 0x00, 
  0x00, 0x00, 0x00, 0x00, 0x00, 0x00, 0x00, 0x00, 0x00, 0x00, 0x00, 0x80, 
  0x01, 0x00, 0x00, 0x00, 0x00, 0x00, 0x00, 0x00, 0x00, 0x00, 0x00, 0x00, 
  0x00, 0x00, 0x00, 0x00, 0x00, 0x00, 0x00, 0x00, 0x00, 0x00, 0x00, 0x00, 
  0x00, 0x00, 0x00, 0x00, 0x00, 0x00, 0x00, 0x80, 0x01, 0x00, 0x00, 0x00, 
  0x00, 0x00, 0x00, 0x00, 0x00, 0x00, 0x00, 0x00, 0x00, 0x00, 0x00, 0x00, 
  0x00, 0x00, 0x00, 0x00, 0x00, 0x00, 0x00, 0x00, 0x00, 0x00, 0x00, 0x00, 
  0x00, 0x00, 0x00, 0x80, 0x01, 0x00, 0x00, 0x00, 0x00, 0x00, 0x00, 0x00, 
  0x00, 0x00, 0x00, 0x00, 0x00, 0x00, 0x00, 0x00, 0x00, 0x00, 0x00, 0x00, 
  0x00, 0x00, 0x00, 0x00, 0x00, 0x00, 0x00, 0x00, 0x00, 0x00, 0x00, 0x80, 
  0x01, 0x00, 0x00, 0x00, 0x00, 0x00, 0x00, 0x00, 0x00, 0x00, 0x00, 0x00, 
  0x00, 0x00, 0x00, 0x00, 0x00, 0x00, 0x00, 0x00, 0x00, 0x00, 0x00, 0x00, 
  0x00, 0x00, 0x00, 0x00, 0x00, 0x00, 0x00, 0x80, 0x01, 0x00, 0x00, 0x00, 
  0x00, 0x00, 0x00, 0x00, 0x00, 0x00, 0x00, 0x00, 0x00, 0x00, 0x00, 0x00, 
  0x00, 0x00, 0x00, 0x00, 0x00, 0x00, 0x00, 0x00, 0x00, 0x00, 0x00, 0x00, 
  0x00, 0x00, 0x00, 0x80, 0x01, 0x00, 0x00, 0x00, 0x00, 0x00, 0x00, 0x00, 
  0x00, 0x00, 0x00, 0x00, 0x00, 0x00, 0x00, 0x00, 0x00, 0x00, 0x00, 0x00, 
  0x00, 0x00, 0x00, 0x00, 0x00, 0x00, 0x00, 0x00, 0x00, 0x00, 0x00, 0x80, 
  0x01, 0x00, 0x00, 0x00, 0x00, 0x00, 0x00, 0x00, 0x00, 0x00, 0x00, 0x00, 
  0x00, 0x00, 0x00, 0x00, 0x00, 0x00, 0x00, 0x00, 0x00, 0x00, 0x00, 0x00, 
  0x00, 0x00, 0x00, 0x00, 0x00, 0x00, 0x00, 0x80, 0x01, 0x00, 0x00, 0x00, 
  0x00, 0x00, 0x00, 0x00, 0x00, 0x00, 0x00, 0x00, 0x00, 0x00, 0x00, 0x00, 
  0x00, 0x00, 0x00, 0x00, 0x00, 0x00, 0x00, 0x00, 0x00, 0x00, 0x00, 0x00, 
  0x00, 0x00, 0x00, 0x80, 0x01, 0x00, 0x00, 0x00, 0x00, 0x00, 0x00, 0x00, 
  0x00, 0x00, 0x00, 0x00, 0x00, 0x00, 0x00, 0x00, 0x00, 0x00, 0x00, 0x00, 
  0x00, 0x00, 0x00, 0x00, 0x00, 0x00, 0x00, 0x00, 0x00, 0x00, 0x00, 0x80, 
  0x01, 0x00, 0x00, 0x00, 0x00, 0x00, 0x00, 0x00, 0x00, 0x00, 0x00, 0x00, 
  0x00, 0x00, 0x00, 0x00, 0x00, 0x00, 0x00, 0x00, 0x00, 0x00, 0x00, 0x00, 
  0x00, 0x00, 0x00, 0x00, 0x00, 0x00, 0x00, 0x80, 0x01, 0x80, 0x00, 0x00, 
  0x00, 0x06, 0x00, 0x00, 0xE0, 0x7F, 0x66, 0xC0, 0xFF, 0x01, 0x00, 0xFC, 
  0x1F, 0x86, 0x7F, 0xC0, 0x01, 0x06, 0x1C, 0x00, 0xC0, 0x1D, 0x00, 0x00, 
  0x00, 0x00, 0x00, 0x80, 0x01, 0x80, 0x00, 0xC0, 0x01, 0x06, 0x80, 0x03, 
  0x60, 0x00, 0x66, 0x78, 0x80, 0x07, 0x00, 0xC0, 0x01, 0x06, 0x60, 0xC0, 
  0xE1, 0x7F, 0x1C, 0xC0, 0xC1, 0x1D, 0xF8, 0x3F, 0x80, 0x03, 0x1C, 0x80, 
  0x01, 0x80, 0x01, 0xC0, 0x01, 0x06, 0x80, 0x03, 0x60, 0x00, 0x66, 0x38, 
  0x00, 0x06, 0x00, 0xC0, 0x01, 0x06, 0x60, 0xC0, 0x01, 0x00, 0x1C, 0xC0, 
  0xC1, 0x1D, 0x1C, 0x60, 0x80, 0x03, 0x1C, 0x80, 0x01, 0xC0, 0x01, 0xC0, 
  0x01, 0x06, 0x80, 0x03, 0x60, 0x00, 0x66, 0x38, 0x00, 0x06, 0x00, 0xC0, 
  0x01, 0x06, 0x60, 0xC0, 0x01, 0x00, 0x1C, 0xC0, 0xC1, 0x1D, 0x1C, 0x60, 
  0x80, 0x03, 0x1C, 0x80, 0x01, 0xC0, 0x03, 0xC0, 0x01, 0x06, 0x80, 0x03, 
  0xE0, 0xFF, 0x67, 0x78, 0x80, 0x07, 0x00, 0xC0, 0xE1, 0x07, 0x60, 0xFC, 
  0x81, 0x1F, 0x1C, 0xC0, 0xC1, 0x1D, 0x06, 0xC0, 0x81, 0x03, 0x1C, 0x80, 
  0x01, 0xFF, 0x7F, 0xC0, 0x01, 0x06, 0xC0, 0x07, 0x60, 0x00, 0x66, 0xC0, 
  0xFF, 0x01, 0x00, 0xE0, 0x03, 0x06, 0x60, 0xC0, 0xC1, 0x39, 0x1C, 0xC0, 
  0xC1, 0x1D, 0x06, 0xC0, 0x81, 0x03, 0x1C, 0x80, 0x01, 0xFC, 0x3F, 0xC0, 
  0x01, 0x06, 0x60, 0x1C, 0x60, 0x00, 0x66, 0x00, 0x00, 0x00, 0x00, 0x38, 
  0x06, 0x06, 0x60, 0xC0, 0x61, 0x60, 0x1C, 0xC0, 0xC1, 0x1D, 0x06, 0xC0, 
  0x81, 0x03, 0x1C, 0x80, 0x01, 0xF8, 0x1F, 0xC0, 0x01, 0x06, 0x60, 0x1C, 
  0x60, 0x00, 0x66, 0x00, 0x00, 0x00, 0x00, 0x38, 0x06, 0x06, 0x60, 0xC0, 
  0x61, 0x60, 0x1C, 0xC0, 0xC1, 0x1D, 0x06, 0xC0, 0x81, 0x03, 0x1C, 0x80, 
  0x01, 0xF0, 0x07, 0xC0, 0x01, 0x06, 0x3E, 0xF8, 0xC1, 0x7F, 0x66, 0xFC, 
  0xFF, 0x1F, 0x00, 0x1C, 0x1C, 0x06, 0x3E, 0xC0, 0x61, 0x60, 0xFC, 0xC1, 
  0xF9, 0x1D, 0x1C, 0x60, 0x80, 0x03, 0x1C, 0x80, 0x01, 0xF0, 0x07, 0xC0, 
  0x01, 0x06, 0x00, 0x00, 0x00, 0x00, 0x00, 0x00, 0x00, 0x00, 0x00, 0x00, 
  0x00, 0x00, 0x00, 0x00, 0x60, 0x60, 0x1C, 0xC0, 0xC1, 0x1D, 0xF8, 0x3F, 
  0x80, 0x03, 0x1C, 0x80, 0x01, 0xF0, 0x0F, 0xC0, 0x01, 0x06, 0x00, 0x00, 
  0xC0, 0xFF, 0x7F, 0xF8, 0xFF, 0x07, 0x00, 0xF8, 0xFF, 0x07, 0xFE, 0xFF, 
  0x61, 0x60, 0x1C, 0xC0, 0xC1, 0x1D, 0x38, 0x38, 0x00, 0x00, 0x00, 0x80, 
  0x01, 0x70, 0x0F, 0xC0, 0x01, 0x06, 0x00, 0x00, 0xC0, 0xFF, 0x7F, 0xF8, 
  0xFF, 0x07, 0x00, 0xF8, 0xFF, 0x07, 0xFE, 0xFF, 0x61, 0x60, 0x1C, 0xC0, 
  0xC1, 0x1D, 0x38, 0x38, 0x00, 0x00, 0x00, 0x80, 0x01, 0x38, 0x0C, 0xE0, 
  0x03, 0x06, 0x00, 0x00, 0xC0, 0x01, 0x60, 0x00, 0x00, 0x06, 0x00, 0x38, 
  0x00, 0x06, 0x06, 0xC0, 0x61, 0x60, 0x1C, 0xE0, 0xC3, 0x1D, 0x38, 0x38, 
  0x80, 0x03, 0x1C, 0x80, 0x01, 0x08, 0x08, 0x38, 0x06, 0x06, 0x00, 0x00, 
  0xC0, 0x01, 0x60, 0xF8, 0xFF, 0x07, 0x00, 0x38, 0x00, 0x06, 0x06, 0xC0, 
  0xC1, 0x39, 0x1C, 0x38, 0xC6, 0x1D, 0x38, 0x38, 0x80, 0x03, 0x1C, 0x80, 
  0x01, 0x00, 0x00, 0x1C, 0x1C, 0x86, 0xFF, 0xFF, 0xC3, 0x01, 0x60, 0x38, 
  0x00, 0x00, 0x00, 0x38, 0x00, 0x06, 0x06, 0xC0, 0x81, 0x1F, 0x1C, 0x1C, 
  0xDC, 0x9D, 0xFF, 0xFF, 0x03, 0x00, 0x00, 0x80, 0x01, 0x00, 0x00, 0x1C, 
  0x1C, 0x86, 0xFF, 0xFF, 0xC3, 0x01, 0x60, 0x38, 0x00, 0x00, 0x00, 0x38, 
  0x00, 0x06, 0x06, 0xC0, 0x81, 0x1F, 0x1C, 0x1C, 0xDC, 0x9D, 0xFF, 0xFF, 
  0x03, 0x00, 0x00, 0x80, 0x01, 0x00, 0x00, 0x00, 0x00, 0x06, 0x00, 0x00, 
  0x80, 0xFF, 0x3F, 0xE0, 0xFF, 0x07, 0x00, 0xE0, 0xFF, 0x03, 0xFC, 0x7F, 
  0x00, 0x00, 0x1C, 0x00, 0xC0, 0x1D, 0x00, 0x00, 0x00, 0x00, 0x00, 0x80, 
  0x01, 0x00, 0x00, 0x00, 0x00, 0x00, 0x00, 0x00, 0x00, 0x00, 0x00, 0x00, 
  0x00, 0x00, 0x00, 0x00, 0x00, 0x00, 0x00, 0x00, 0x00, 0x00, 0x00, 0x00, 
  0x00, 0x00, 0x00, 0x00, 0x00, 0x00, 0x00, 0x80, 0x01, 0x00, 0x00, 0x00, 
  0x00, 0x00, 0x00, 0x00, 0x00, 0x00, 0x00, 0x00, 0x00, 0x00, 0x00, 0x00, 
  0x00, 0x00, 0x00, 0x00, 0x00, 0x00, 0x00, 0x00, 0x00, 0x00, 0x00, 0x00, 
  0x00, 0x00, 0x00, 0x80, 0x01, 0x00, 0x00, 0x00, 0x00, 0x00, 0x00, 0x00, 
  0x00, 0x00, 0x00, 0x00, 0x00, 0x00, 0x00, 0x00, 0x00, 0x00, 0x00, 0x00, 
  0x00, 0x00, 0x00, 0x00, 0x00, 0x00, 0x00, 0x00, 0x00, 0x00, 0x00, 0x80, 
  0x01, 0x00, 0x00, 0x00, 0x00, 0x00, 0x00, 0x00, 0x00, 0x00, 0x00, 0x00, 
  0x00, 0x00, 0x00, 0x00, 0x00, 0x00, 0x00, 0x00, 0x00, 0x00, 0x00, 0x00, 
  0x00, 0x00, 0x00, 0x00, 0x00, 0x00, 0x00, 0x80, 0x01, 0x00, 0x00, 0x00, 
  0x00, 0x00, 0x00, 0x00, 0x00, 0x00, 0x00, 0x00, 0x00, 0x00, 0x00, 0x00, 
  0x00, 0x00, 0x00, 0x00, 0x00, 0x00, 0x00, 0x00, 0x00, 0x00, 0x00, 0x00, 
  0x00, 0x00, 0x00, 0x80, 0x01, 0x00, 0x00, 0x00, 0x00, 0x00, 0x00, 0x00, 
  0x00, 0x00, 0x00, 0x00, 0x00, 0x00, 0x00, 0x00, 0x00, 0x00, 0x00, 0x00, 
  0x00, 0x00, 0x00, 0x00, 0x00, 0x00, 0x00, 0x00, 0x00, 0x00, 0x00, 0x80, 
  0x01, 0x00, 0x00, 0x00, 0x00, 0x00, 0x00, 0x00, 0x00, 0x00, 0x00, 0x00, 
  0x00, 0x00, 0x00, 0x00, 0x00, 0x00, 0x00, 0x00, 0x00, 0x00, 0x00, 0x00, 
  0x00, 0x00, 0x00, 0x00, 0x00, 0x00, 0x00, 0x80, 0x01, 0x00, 0x00, 0x00, 
  0x00, 0x00, 0x00, 0x00, 0x00, 0x00, 0x00, 0x00, 0x00, 0x00, 0x00, 0x00, 
  0x00, 0x00, 0x00, 0x00, 0x00, 0x00, 0x00, 0x00, 0x00, 0x00, 0x00, 0x00, 
  0x00, 0x00, 0x00, 0x80, 0xE1, 0xF0, 0x7F, 0x0E, 0x00, 0x00, 0x07, 0x00, 
  0x70, 0x00, 0x00, 0x77, 0x00, 0xE0, 0x0E, 0x00, 0xF0, 0x01, 0x87, 0xFF, 
  0x71, 0x00, 0x07, 0x77, 0x00, 0x00, 0x00, 0x00, 0xE0, 0xF0, 0x7F, 0x98, 
  0x71, 0x00, 0x70, 0x0E, 0xFE, 0x07, 0x87, 0xFF, 0x71, 0x80, 0x0F, 0x77, 
  0xFE, 0xE1, 0x0E, 0x00, 0x18, 0x07, 0x07, 0x80, 0x71, 0xF0, 0x7F, 0x77, 
  0xF8, 0xFF, 0x07, 0x18, 0xE0, 0x70, 0x70, 0x98, 0x71, 0x00, 0x70, 0x0E, 
  0xFE, 0x07, 0x87, 0xFF, 0x71, 0x80, 0x0F, 0x77, 0xFE, 0xE1, 0x0E, 0x00, 
  0x18, 0x07, 0x07, 0x80, 0x71, 0xF0, 0x7F, 0x77, 0xF8, 0xFF, 0x07, 0x18, 
  0xE0, 0x70, 0x70, 0x98, 0x19, 0x00, 0x70, 0x0E, 0x00, 0x07, 0x07, 0x18, 
  0x70, 0xE0, 0x18, 0x77, 0x80, 0xE1, 0x0E, 0x00, 0x0E, 0xFE, 0x07, 0x80, 
  0x71, 0x00, 0x00, 0x77, 0x00, 0x0E, 0x00, 0x18, 0xE0, 0x70, 0xF0, 0x9F, 
  0x19, 0x00, 0x70, 0xFE, 0x00, 0x07, 0x07, 0x18, 0x70, 0x70, 0x70, 0x77, 
  0x80, 0xE1, 0x0E, 0x00, 0x0E, 0x0E, 0x87, 0xFF, 0xF1, 0x87, 0x0F, 0x77, 
  0x00, 0x0E, 0x00, 0x18, 0xE0, 0x70, 0x70, 0x98, 0x19, 0x00, 0x1F, 0x0E, 
  0x00, 0x07, 0x07, 0x18, 0x70, 0x70, 0x70, 0x77, 0x80, 0xE1, 0x0E, 0x00, 
  0x0E, 0xFE, 0x87, 0x01, 0x70, 0xE0, 0x18, 0x77, 0x00, 0x1F, 0x00, 0x18, 
  0xE0, 0x70, 0xF0, 0x9F, 0x19, 0x00, 0x1F, 0x0E, 0x00, 0x07, 0x07, 0x18, 
  0x70, 0x70, 0x70, 0x77, 0x80, 0xE1, 0x0E, 0x00, 0x0E, 0xFE, 0x87, 0x01, 
  0x70, 0xE0, 0x18, 0x77, 0x00, 0x1F, 0x00, 0x18, 0xE0, 0x70, 0xF0, 0x9F, 
  0x19, 0x00, 0x07, 0x0E, 0xFE, 0x07, 0x07, 0x18, 0x70, 0x70, 0x70, 0x77, 
  0x80, 0xE1, 0x0E, 0x00, 0x18, 0x07, 0x87, 0x01, 0x70, 0x70, 0x70, 0x77, 
  0x80, 0x71, 0x00, 0x18, 0xE0, 0x70, 0x70, 0x98, 0x19, 0xF0, 0xFF, 0x0F, 
  0x0E, 0x00, 0x07, 0x18, 0xF0, 0x77, 0xF0, 0x77, 0x80, 0xF9, 0x0E, 0x00, 
  0xF0, 0x01, 0x07, 0xFF, 0x71, 0x70, 0x70, 0x7F, 0xF8, 0xE0, 0x07, 0x18, 
  0xE0, 0xE0, 0x1F, 0x98, 0x19, 0x00, 0x00, 0x0E, 0x0E, 0x00, 0x07, 0x18, 
  0x70, 0x70, 0x70, 0x77, 0x80, 0xE1, 0x0E, 0x00, 0x00, 0x00, 0x00, 0x00, 
  0x00, 0x70, 0x70, 0x77, 0x00, 0x00, 0x00, 0x18, 0xE0, 0x00, 0x00, 0x80, 
  0x19, 0x00, 0x00, 0x0E, 0x0E, 0x00, 0x07, 0x18, 0x70, 0x70, 0x70, 0x77, 
  0x80, 0xE1, 0x0E, 0x00, 0x00, 0x00, 0x00, 0x00, 0x00, 0x70, 0x70, 0x77, 
  0x00, 0x00, 0x00, 0x18, 0xE0, 0x00, 0x00, 0x80, 0x19, 0xE0, 0x00, 0x00, 
  0x0E, 0x00, 0x07, 0x18, 0x70, 0x70, 0x70, 0x77, 0x80, 0xE1, 0x0E, 0x00, 
  0x18, 0x00, 0x00, 0xFF, 0x7F, 0x70, 0x70, 0x77, 0xFE, 0xFF, 0x0F, 0x18, 
  0xE0, 0xE0, 0x00, 0x80, 0x19, 0xE0, 0x00, 0x00, 0x0E, 0x00, 0x07, 0x7E, 
  0x70, 0x70, 0x70, 0x77, 0x80, 0xE1, 0x0E, 0x00, 0x18, 0x00, 0x00, 0x00, 
  0x70, 0x70, 0x70, 0x77, 0x00, 0x0E, 0x00, 0x7E, 0xE0, 0xE0, 0x00, 0x80, 
  0x19, 0xE0, 0x00, 0x00, 0x0E, 0x07, 0x07, 0xE7, 0x70, 0xE0, 0x18, 0x77, 
  0xE0, 0xE0, 0x0E, 0x00, 0x18, 0x00, 0x00, 0x00, 0x70, 0xE0, 0x18, 0x77, 
  0x00, 0x0E, 0x00, 0xE7, 0xE0, 0xE0, 0x00, 0x80, 0x19, 0xE0, 0x00, 0x00, 
  0x0E, 0x07, 0x07, 0xE7, 0x70, 0xE0, 0x18, 0x77, 0xE0, 0xE0, 0x0E, 0x00, 
  0x18, 0x00, 0x00, 0x00, 0x70, 0xE0, 0x18, 0x77, 0x00, 0x0E, 0x00, 0xE7, 
  0xE0, 0xE0, 0x00, 0x80, 0x71, 0xE0, 0x00, 0x00, 0xF8, 0x01, 0x87, 0x81, 
  0x71, 0x80, 0x0F, 0x77, 0x78, 0xE0, 0x0E, 0x00, 0x18, 0x00, 0x00, 0x00, 
  0x70, 0x80, 0x0F, 0x77, 0x00, 0x0E, 0x80, 0x81, 0xE1, 0xE0, 0x00, 0x80, 
  0xE1, 0x80, 0xFF, 0x0F, 0x00, 0x00, 0x07, 0x00, 0x70, 0x00, 0x00, 0x77, 
  0x00, 0xE0, 0x0E, 0x00, 0xF0, 0xFF, 0x07, 0x00, 0x10, 0x00, 0x00, 0x77, 
  0x00, 0x0E, 0x00, 0x00, 0xE0, 0x80, 0xFF, 0x9F, 0x01, 0x00, 0x00, 0x00, 
  0x00, 0x00, 0x00, 0x00, 0x00, 0x00, 0x00, 0x00, 0x00, 0x00, 0x00, 0x00, 
  0x00, 0x00, 0x00, 0x00, 0x00, 0x00, 0x00, 0x00, 0x00, 0x00, 0x00, 0x00, 
  0x00, 0x00, 0x00, 0x80, 0x01, 0x00, 0x00, 0x00, 0x00, 0x00, 0x00, 0x00, 
  0x00, 0x00, 0x00, 0x00, 0x00, 0x00, 0x00, 0x00, 0x00, 0x00, 0x00, 0x00, 
  0x00, 0x00, 0x00, 0x00, 0x00, 0x00, 0x00, 0x00, 0x00, 0x00, 0x00, 0x80, 
  0x01, 0x00, 0x00, 0x00, 0x00, 0x00, 0x00, 0x00, 0x00, 0x00, 0x00, 0x00, 
  0x00, 0x00, 0x00, 0x00, 0x00, 0x00, 0x00, 0x00, 0x00, 0x00, 0x00, 0x00, 
  0x00, 0x00, 0x00, 0x00, 0x00, 0x00, 0x00, 0x80, 0x01, 0x00, 0x00, 0x00, 
  0x00, 0x00, 0x00, 0x00, 0x00, 0x00, 0x00, 0x00, 0x00, 0x00, 0x00, 0x00, 
  0x00, 0x00, 0x00, 0x00, 0x00, 0x00, 0x00, 0x00, 0x00, 0x00, 0x00, 0x00, 
  0x00, 0x00, 0x00, 0x80, 0x01, 0x00, 0x00, 0x00, 0x00, 0x00, 0x00, 0x00, 
  0x00, 0x00, 0x00, 0x00, 0x00, 0x00, 0x00, 0x00, 0x00, 0x00, 0x00, 0x00, 
  0x00, 0x00, 0x00, 0x00, 0x00, 0x00, 0x00, 0x00, 0x00, 0x00, 0x00, 0x80, 
  0x01, 0x00, 0x00, 0x00, 0x00, 0x00, 0x00, 0x00, 0x00, 0x00, 0x00, 0x00, 
  0x00, 0x00, 0x00, 0x00, 0x00, 0x00, 0x00, 0x00, 0x00, 0x00, 0x00, 0x00, 
  0x00, 0x00, 0x00, 0x00, 0x00, 0x00, 0x00, 0x80, 0x01, 0x00, 0x00, 0x00, 
  0x00, 0x00, 0x00, 0x00, 0x00, 0x00, 0x00, 0x00, 0x00, 0x00, 0x00, 0x00, 
  0x00, 0x00, 0x00, 0x00, 0x00, 0x00, 0x00, 0x00, 0x00, 0x00, 0x00, 0x00, 
  0x00, 0x00, 0x00, 0x80, 0x01, 0x00, 0x00, 0x00, 0x00, 0x00, 0x00, 0x00, 
  0x00, 0x00, 0x00, 0x00, 0x00, 0x00, 0x00, 0x00, 0x00, 0x00, 0x00, 0x00, 
  0x00, 0x00, 0x00, 0x00, 0x00, 0x00, 0x00, 0x00, 0x00, 0x00, 0x00, 0x80, 
  0x01, 0x00, 0x00, 0x00, 0x00, 0x00, 0x00, 0x00, 0x00, 0x00, 0x00, 0x00, 
  0x00, 0x00, 0x00, 0x00, 0x00, 0x00, 0x00, 0x00, 0x00, 0x00, 0x00, 0x00, 
  0x00, 0x00, 0x00, 0x00, 0x00, 0x00, 0x00, 0x80, 0x01, 0x00, 0x00, 0x00, 
  0x00, 0xF0, 0x0F, 0x0E, 0x00, 0x80, 0x01, 0x18, 0x70, 0xF0, 0x0F, 0x77, 
  0x00, 0x0E, 0x00, 0x00, 0xE0, 0x00, 0x00, 0x0E, 0x00, 0xE0, 0x00, 0x00, 
  0x00, 0x00, 0x00, 0x80, 0x01, 0x00, 0x00, 0x00, 0x00, 0x00, 0x0E, 0x0E, 
  0xE0, 0x80, 0x81, 0xFF, 0x71, 0x00, 0x0E, 0x77, 0x00, 0x0E, 0x80, 0x01, 
  0xE0, 0xF0, 0x1F, 0x0E, 0x00, 0x80, 0x01, 0x00, 0x00, 0x00, 0x00, 0x80, 
  0x01, 0x00, 0x00, 0x00, 0x00, 0x00, 0x0E, 0x0E, 0xE0, 0x80, 0x01, 0x00, 
  0x70, 0x00, 0x0E, 0x77, 0x00, 0x1F, 0x80, 0x01, 0xE0, 0x70, 0x00, 0x0E, 
  0x00, 0x00, 0x07, 0x00, 0x00, 0x00, 0x00, 0x80, 0x01, 0x00, 0x00, 0x00, 
  0x00, 0x00, 0x0E, 0x0E, 0xE0, 0x80, 0x01, 0x00, 0x70, 0x00, 0x0E, 0x77, 
  0x00, 0x1F, 0x80, 0x01, 0xE0, 0x70, 0x00, 0x0E, 0x00, 0x00, 0x07, 0x00, 
  0x00, 0x00, 0x00, 0x80, 0x01, 0x00, 0x00, 0x00, 0x00, 0x00, 0x0E, 0xFE, 
  0xE0, 0x80, 0x01, 0x7E, 0x70, 0x00, 0xEE, 0x77, 0x80, 0x71, 0x80, 0x01, 
  0xE0, 0x70, 0x00, 0x0E, 0x00, 0x00, 0x07, 0x00, 0x00, 0x00, 0x00, 0x80, 
  0x01, 0x00, 0x00, 0x00, 0x00, 0x00, 0x0E, 0x0E, 0xE0, 0x80, 0x01, 0xE7, 
  0x70, 0x00, 0x0E, 0x77, 0xF8, 0xE0, 0x87, 0x01, 0xE0, 0x70, 0x00, 0x0E, 
  0x00, 0x00, 0x07, 0x00, 0x00, 0x00, 0x00, 0x80, 0x01, 0x00, 0x00, 0x00, 
  0x00, 0x00, 0x0E, 0x0E, 0xE0, 0x80, 0x81, 0x81, 0x71, 0x00, 0x0E, 0x77, 
  0x00, 0x00, 0x80, 0x01, 0xE0, 0x70, 0x00, 0x0E, 0x00, 0x00, 0x07, 0x00, 
  0x00, 0x00, 0x00, 0x80, 0x01, 0x00, 0x00, 0x00, 0x00, 0x00, 0x0E, 0x0E, 
  0xE0, 0x80, 0x81, 0x81, 0x71, 0x00, 0x0E, 0x77, 0x00, 0x00, 0x80, 0x01, 
  0xE0, 0x70, 0x00, 0x0E, 0x00, 0x00, 0x07, 0x00, 0x00, 0x00, 0x00, 0x80, 
  0x01, 0x00, 0x00, 0x00, 0x00, 0xE0, 0x07, 0x0E, 0xE0, 0x80, 0x9F, 0x81, 
  0xF1, 0xE7, 0x07, 0x77, 0xFE, 0xFF, 0x8F, 0x01, 0xE0, 0x70, 0x00, 0xFE, 
  0x00, 0x00, 0x07, 0x00, 0x00, 0x00, 0x00, 0x80, 0x01, 0x00, 0x00, 0x00, 
  0x00, 0x00, 0x00, 0x00, 0xE0, 0x80, 0x81, 0x81, 0x71, 0x00, 0x00, 0x00, 
  0x00, 0x00, 0x80, 0x01, 0xE0, 0x70, 0x00, 0x0E, 0x00, 0x00, 0x07, 0x00, 
  0x00, 0x00, 0x00, 0x80, 0x01, 0x00, 0x00, 0x00, 0x00, 0xE0, 0xFF, 0x0F, 
  0xE0, 0x80, 0x81, 0x81, 0x71, 0x00, 0x07, 0x0E, 0x18, 0x00, 0x87, 0x01, 
  0xE0, 0x70, 0x00, 0x0E, 0x00, 0x00, 0x07, 0x00, 0x00, 0x00, 0x00, 0x80, 
  0x01, 0x00, 0x00, 0x00, 0x00, 0xE0, 0xFF, 0x0F, 0xE0, 0x80, 0x81, 0x81, 
  0x71, 0x00, 0x07, 0x0E, 0x18, 0x00, 0x87, 0x01, 0xE0, 0x70, 0x00, 0x0E, 
  0x00, 0x00, 0x07, 0x00, 0x00, 0x00, 0x00, 0x80, 0x01, 0x00, 0x00, 0x00, 
  0x00, 0xE0, 0x00, 0x0E, 0xF0, 0x81, 0x81, 0x81, 0x71, 0x00, 0x07, 0x0E, 
  0x18, 0x00, 0x87, 0x01, 0xE0, 0x70, 0x00, 0x0E, 0x70, 0x00, 0x07, 0x00, 
  0x00, 0x00, 0x00, 0x80, 0x01, 0x00, 0x00, 0x00, 0x00, 0xE0, 0x00, 0x0E, 
  0x18, 0x87, 0x01, 0xE7, 0x70, 0x00, 0x07, 0x0E, 0xF8, 0xFF, 0x87, 0x81, 
  0xE1, 0x70, 0x18, 0x0E, 0x70, 0x00, 0x07, 0x00, 0x00, 0x00, 0x00, 0x80, 
  0x01, 0x00, 0x00, 0x00, 0x00, 0xE0, 0x00, 0x0E, 0x0E, 0x8E, 0x01, 0x7E, 
  0x70, 0x80, 0x0F, 0x1F, 0x18, 0x00, 0x07, 0xFF, 0xE0, 0xE0, 0x0F, 0x0E, 
  0x00, 0x80, 0x01, 0x00, 0x00, 0x00, 0x00, 0x80, 0x01, 0x00, 0x00, 0x00, 
  0x00, 0xE0, 0x00, 0x0E, 0x0E, 0x8E, 0x01, 0x7E, 0x70, 0x80, 0x0F, 0x1F, 
  0x18, 0x00, 0x07, 0xFF, 0xE0, 0xE0, 0x0F, 0x0E, 0x00, 0x80, 0x01, 0x00, 
  0x00, 0x00, 0x00, 0x80, 0x01, 0x00, 0x00, 0x00, 0x00, 0x80, 0xFF, 0x07, 
  0x00, 0x80, 0x01, 0x00, 0x70, 0xE0, 0x98, 0x71, 0xF0, 0xFF, 0x01, 0x00, 
  0xE0, 0x00, 0x00, 0x0E, 0x00, 0xE0, 0x00, 0x00, 0x00, 0x00, 0x00, 0x80, 
  0x01, 0x00, 0x00, 0x00, 0x00, 0x00, 0x00, 0x00, 0x00, 0x00, 0x00, 0x00, 
  0x00, 0x00, 0x00, 0x00, 0x00, 0x00, 0x00, 0x00, 0x00, 0x00, 0x00, 0x00, 
  0x00, 0x00, 0x00, 0x00, 0x00, 0x00, 0x00, 0x80, 0x01, 0x00, 0x00, 0x00, 
  0x00, 0x00, 0x00, 0x00, 0x00, 0x00, 0x00, 0x00, 0x00, 0x00, 0x00, 0x00, 
  0x00, 0x00, 0x00, 0x00, 0x00, 0x00, 0x00, 0x00, 0x00, 0x00, 0x00, 0x00, 
  0x00, 0x00, 0x00, 0x80, 0x01, 0x00, 0x00, 0x00, 0x00, 0x00, 0x00, 0x00, 
  0x00, 0x00, 0x00, 0x00, 0x00, 0x00, 0x00, 0x00, 0x00, 0x00, 0x00, 0x00, 
  0x00, 0x00, 0x00, 0x00, 0x00, 0x00, 0x00, 0x00, 0x00, 0x00, 0x00, 0x80, 
  0x01, 0x00, 0x00, 0x00, 0x00, 0x00, 0x00, 0x00, 0x00, 0x00, 0x00, 0x00, 
  0x00, 0x00, 0x00, 0x00, 0x00, 0x00, 0x00, 0x00, 0x00, 0x00, 0x00, 0x00, 
  0x00, 0x00, 0x00, 0x00, 0x00, 0x00, 0x00, 0x80, 0x01, 0x00, 0x00, 0x00, 
  0x00, 0x00, 0x00, 0x00, 0x00, 0x00, 0x00, 0x00, 0x00, 0x00, 0x00, 0x00, 
  0x00, 0x00, 0x00, 0x00, 0x00, 0x00, 0x00, 0x00, 0x00, 0x00, 0x00, 0x00, 
  0x00, 0x00, 0x00, 0x80, 0x01, 0x00, 0x00, 0x00, 0x00, 0x00, 0x00, 0x00, 
  0x00, 0x00, 0x00, 0x00, 0x00, 0x00, 0x00, 0x00, 0x00, 0x00, 0x00, 0x00, 
  0x00, 0x00, 0x00, 0x00, 0x00, 0x00, 0x00, 0x00, 0x00, 0x00, 0x00, 0x80, 
  0xFF, 0xFF, 0xFF, 0xFF, 0xFF, 0xFF, 0xFF, 0xFF, 0xFF, 0xFF, 0xFF, 0xFF, 
  0xFF, 0xFF, 0xFF, 0xFF, 0xFF, 0xFF, 0xFF, 0xFF, 0xFF, 0xFF, 0xFF, 0xFF, 
  0xFF, 0xFF, 0xFF, 0xFF, 0xFF, 0xFF, 0xFF, 0xFF, };
