#define VendingMachineModeSetting1670236425_width 256
#define VendingMachineModeSetting1670236425_height 160
static char VendingMachineModeSetting1670236425_bits[] = {
  0xFF, 0xFF, 0xFF, 0xFF, 0xFF, 0xFF, 0xFF, 0xFF, 0xFF, 0xFF, 0xFF, 0xFF, 
  0xFF, 0xFF, 0xFF, 0xFF, 0xFF, 0xFF, 0xFF, 0xFF, 0xFF, 0xFF, 0xFF, 0xFF, 
  0xFF, 0xFF, 0xFF, 0xFF, 0xFF, 0xFF, 0xFF, 0xFF, 0x01, 0x00, 0x00, 0x00, 
  0x00, 0x00, 0x00, 0x00, 0x00, 0x00, 0x00, 0x00, 0x00, 0x00, 0x00, 0x00, 
  0x00, 0x00, 0x00, 0x00, 0x00, 0x00, 0x00, 0x00, 0x00, 0x00, 0x00, 0x00, 
  0x00, 0x00, 0x00, 0x80, 0x01, 0x00, 0x00, 0x00, 0x00, 0x00, 0x00, 0x00, 
  0x00, 0x00, 0x00, 0x00, 0x00, 0x00, 0x00, 0x00, 0x00, 0x00, 0x00, 0x00, 
  0x00, 0x00, 0x00, 0x00, 0x00, 0x00, 0x00, 0x00, 0x00, 0x00, 0x00, 0x80, 
  0x01, 0x00, 0x00, 0x00, 0x00, 0x00, 0x00, 0x00, 0x00, 0x00, 0x00, 0x00, 
  0x00, 0x00, 0x00, 0x00, 0x00, 0x00, 0x00, 0x00, 0x00, 0x00, 0x00, 0x00, 
  0x00, 0x00, 0x00, 0x00, 0x00, 0x00, 0x00, 0x80, 0x01, 0x00, 0x00, 0x00, 
  0x00, 0x00, 0x00, 0x00, 0x00, 0x00, 0x00, 0x00, 0x00, 0x00, 0x00, 0x00, 
  0x00, 0x00, 0x00, 0x00, 0x00, 0x00, 0x00, 0x00, 0x00, 0x00, 0x00, 0x00, 
  0x00, 0x00, 0x00, 0x80, 0x01, 0x00, 0x00, 0x00, 0x00, 0x00, 0x00, 0x00, 
  0x00, 0x00, 0x00, 0x00, 0x00, 0x00, 0x00, 0x00, 0x00, 0x00, 0x00, 0x00, 
  0x00, 0x00, 0x00, 0x00, 0x00, 0x00, 0x00, 0x00, 0x00, 0x00, 0x00, 0x80, 
  0x01, 0x00, 0x00, 0x00, 0x00, 0x00, 0x00, 0x00, 0x00, 0x00, 0x00, 0x00, 
  0x00, 0x00, 0x00, 0x00, 0x00, 0x00, 0x00, 0x00, 0x00, 0x00, 0x00, 0x00, 
  0x00, 0x00, 0x00, 0x00, 0x00, 0x00, 0x00, 0x80, 0x01, 0x00, 0x00, 0x00, 
  0x00, 0x00, 0x00, 0x00, 0x00, 0x00, 0x00, 0x00, 0x00, 0x00, 0x00, 0x00, 
  0x00, 0x00, 0x00, 0x00, 0x00, 0x00, 0x00, 0x00, 0x00, 0x00, 0x00, 0x00, 
  0x00, 0x00, 0x00, 0x80, 0x01, 0x00, 0x00, 0x00, 0x00, 0x00, 0x00, 0x00, 
  0x00, 0x0E, 0xFE, 0xCF, 0x01, 0x00, 0xE0, 0x00, 0x00, 0x00, 0x00, 0x00, 
  0x00, 0x00, 0xE0, 0x00, 0xC7, 0xFF, 0xE1, 0x00, 0x00, 0x00, 0x00, 0x80, 
  0x01, 0x00, 0x00, 0x00, 0x00, 0x0E, 0x00, 0xF0, 0x7F, 0x0E, 0x1C, 0xC7, 
  0xC1, 0x7F, 0xE0, 0x00, 0x00, 0xFF, 0xFF, 0xE0, 0xFF, 0x1F, 0xE0, 0x00, 
  0x07, 0x1C, 0xE0, 0x00, 0x00, 0x00, 0x00, 0x80, 0x01, 0x00, 0x00, 0x00, 
  0x00, 0x0F, 0x00, 0x00, 0x07, 0x0E, 0x1C, 0xC7, 0x01, 0x70, 0xE0, 0x00, 
  0x00, 0x07, 0xE0, 0xE0, 0x00, 0x00, 0xE0, 0x00, 0x07, 0x1C, 0xE0, 0x00, 
  0x00, 0x00, 0x00, 0x80, 0x01, 0x00, 0x00, 0x00, 0x00, 0x0F, 0x00, 0x00, 
  0x07, 0x0E, 0x1C, 0xC7, 0x01, 0x70, 0xE0, 0x00, 0x00, 0x07, 0xE0, 0xE0, 
  0x00, 0x00, 0xE0, 0x00, 0x07, 0x1C, 0xE0, 0x00, 0x00, 0x00, 0x00, 0x80, 
  0x01, 0x00, 0x00, 0x00, 0xC0, 0x0F, 0x00, 0x00, 0x07, 0x0E, 0x1C, 0xC7, 
  0x1F, 0x70, 0xE0, 0x00, 0x00, 0x07, 0xE0, 0xE0, 0x00, 0x00, 0xE0, 0xF0, 
  0x07, 0x1C, 0xFE, 0x00, 0x00, 0x00, 0x00, 0x80, 0x01, 0x00, 0x00, 0x00, 
  0x00, 0x0E, 0x00, 0x00, 0x07, 0x0E, 0x1C, 0xC7, 0x01, 0x70, 0xE0, 0x00, 
  0x00, 0x07, 0xE0, 0xE0, 0x00, 0x00, 0xF0, 0x01, 0x07, 0x7E, 0xE0, 0x00, 
  0x00, 0x00, 0x00, 0x80, 0x01, 0x00, 0x00, 0x00, 0x00, 0x0E, 0x00, 0x00, 
  0x07, 0x0E, 0x1C, 0xC7, 0x01, 0x70, 0xE0, 0x00, 0x00, 0x07, 0xE0, 0xE0, 
  0x00, 0x00, 0x1C, 0x07, 0x07, 0xE7, 0xE0, 0x00, 0x00, 0x00, 0x00, 0x80, 
  0x01, 0x00, 0x00, 0x00, 0x00, 0x0E, 0x00, 0x00, 0x07, 0x0E, 0x1C, 0xC7, 
  0x01, 0x70, 0xE0, 0x00, 0x00, 0x07, 0xE0, 0xE0, 0x00, 0x00, 0x1C, 0x07, 
  0x07, 0xE7, 0xE0, 0x00, 0x00, 0x00, 0x00, 0x80, 0x01, 0x00, 0x00, 0x00, 
  0x00, 0x0E, 0x00, 0x00, 0x07, 0xFE, 0xFE, 0xCF, 0x01, 0x70, 0xE0, 0x00, 
  0x00, 0x07, 0xE0, 0xE0, 0x00, 0x00, 0x0E, 0x0E, 0xC7, 0xC1, 0xE1, 0x00, 
  0x00, 0x00, 0x00, 0x80, 0x01, 0x00, 0x00, 0x00, 0x00, 0x0E, 0x00, 0x00, 
  0x07, 0x0E, 0x00, 0x00, 0x00, 0x70, 0xE0, 0x00, 0x00, 0xFE, 0x7F, 0xC0, 
  0xFF, 0x1F, 0x00, 0x00, 0x00, 0x00, 0x00, 0x00, 0x00, 0x00, 0x00, 0x80, 
  0x01, 0x00, 0x00, 0x00, 0x00, 0x0E, 0x00, 0x00, 0x07, 0x0E, 0x1C, 0x00, 
  0x00, 0x70, 0xE0, 0x00, 0x00, 0xC0, 0x01, 0x00, 0x00, 0x00, 0xFC, 0xFF, 
  0x07, 0xFC, 0x1F, 0x00, 0x00, 0x00, 0x00, 0x80, 0x01, 0x00, 0x00, 0x00, 
  0x00, 0x0E, 0x00, 0x00, 0x07, 0x0E, 0x1C, 0x00, 0x00, 0x70, 0xE0, 0x00, 
  0x00, 0xC0, 0x01, 0x00, 0x00, 0x00, 0xFC, 0xFF, 0x07, 0xFC, 0x1F, 0x00, 
  0x00, 0x00, 0x00, 0x80, 0x01, 0x00, 0x00, 0x00, 0x00, 0x0E, 0x70, 0xC0, 
  0x0F, 0x0E, 0x1C, 0x00, 0x00, 0x70, 0xE0, 0x00, 0x00, 0xC0, 0x01, 0x00, 
  0x00, 0x00, 0x00, 0x00, 0x07, 0x0F, 0xF0, 0x00, 0x00, 0x00, 0x00, 0x80, 
  0x01, 0x00, 0x00, 0x00, 0x00, 0x0E, 0x70, 0xE0, 0x1C, 0x0E, 0x1C, 0x00, 
  0x00, 0x1C, 0xE0, 0x00, 0x00, 0xC0, 0x01, 0x00, 0x00, 0x00, 0xFC, 0xFF, 
  0x07, 0x07, 0xE0, 0x00, 0x00, 0x00, 0x00, 0x80, 0x01, 0x00, 0x00, 0x00, 
  0x00, 0x00, 0x00, 0x70, 0x70, 0x0E, 0x1C, 0x00, 0x00, 0x0F, 0xE0, 0x00, 
  0xC0, 0xFF, 0xFF, 0xF1, 0xFF, 0x7F, 0x1C, 0x00, 0x00, 0x0F, 0xF0, 0x00, 
  0x00, 0x00, 0x00, 0x80, 0x01, 0x00, 0x00, 0x00, 0x00, 0x00, 0x00, 0x70, 
  0x70, 0x0E, 0x1C, 0x00, 0x00, 0x0F, 0xE0, 0x00, 0xC0, 0xFF, 0xFF, 0xF1, 
  0xFF, 0x7F, 0x1C, 0x00, 0x00, 0x0F, 0xF0, 0x00, 0x00, 0x00, 0x00, 0x80, 
  0x01, 0x00, 0x00, 0x00, 0x00, 0x00, 0x00, 0x00, 0x00, 0x0E, 0xF0, 0xFF, 
  0x01, 0x00, 0xE0, 0x00, 0x00, 0x00, 0x00, 0x00, 0x00, 0x00, 0xF0, 0xFF, 
  0x07, 0xFC, 0x1F, 0x00, 0x00, 0x00, 0x00, 0x80, 0x01, 0x00, 0x00, 0x00, 
  0x00, 0x00, 0x00, 0x00, 0x00, 0x00, 0x00, 0x00, 0x00, 0x00, 0x00, 0x00, 
  0x00, 0x00, 0x00, 0x00, 0x00, 0x00, 0x00, 0x00, 0x00, 0x00, 0x00, 0x00, 
  0x00, 0x00, 0x00, 0x80, 0x01, 0x00, 0x00, 0x00, 0x00, 0x00, 0x00, 0x00, 
  0x00, 0x00, 0x00, 0x00, 0x00, 0x00, 0x00, 0x00, 0x00, 0x00, 0x00, 0x00, 
  0x00, 0x00, 0x00, 0x00, 0x00, 0x00, 0x00, 0x00, 0x00, 0x00, 0x00, 0x80, 
  0x01, 0x00, 0x00, 0x00, 0x00, 0x00, 0x00, 0x00, 0x00, 0x00, 0x00, 0x00, 
  0x00, 0x00, 0x00, 0x00, 0x00, 0x00, 0x00, 0x00, 0x00, 0x00, 0x00, 0x00, 
  0x00, 0x00, 0x00, 0x00, 0x00, 0x00, 0x00, 0x80, 0x01, 0x00, 0x00, 0x00, 
  0x00, 0x00, 0x00, 0x00, 0x00, 0x00, 0x00, 0x00, 0x00, 0x00, 0x00, 0x00, 
  0x00, 0x00, 0x00, 0x00, 0x00, 0x00, 0x00, 0x00, 0x00, 0x00, 0x00, 0x00, 
  0x00, 0x00, 0x00, 0x80, 0x01, 0x00, 0x00, 0x00, 0x00, 0x00, 0x00, 0x00, 
  0x00, 0x00, 0x00, 0x00, 0x00, 0x00, 0x00, 0x00, 0x00, 0x00, 0x00, 0x00, 
  0x00, 0x00, 0x00, 0x00, 0x00, 0x00, 0x00, 0x00, 0x00, 0x00, 0x00, 0x80, 
  0x01, 0x00, 0x00, 0x00, 0x00, 0x00, 0x00, 0x00, 0x00, 0x00, 0x00, 0x00, 
  0x00, 0x00, 0x00, 0x00, 0x00, 0x00, 0x00, 0x00, 0x00, 0x00, 0x00, 0x00, 
  0x00, 0x00, 0x00, 0x00, 0x00, 0x00, 0x00, 0x80, 0x01, 0x00, 0x00, 0x00, 
  0x00, 0x00, 0x00, 0x00, 0x00, 0x00, 0x00, 0x00, 0x00, 0x00, 0x00, 0x00, 
  0x00, 0x00, 0x00, 0x00, 0x00, 0x00, 0x00, 0x00, 0x00, 0x00, 0x00, 0x00, 
  0x00, 0x00, 0x00, 0x80, 0x01, 0x00, 0x00, 0x00, 0x00, 0x00, 0x00, 0x00, 
  0x00, 0x00, 0x00, 0x00, 0x00, 0x00, 0x00, 0x00, 0x00, 0x00, 0x00, 0x00, 
  0x00, 0x00, 0x00, 0x00, 0x00, 0x00, 0x00, 0x00, 0x00, 0x00, 0x00, 0x80, 
  0x01, 0x00, 0x00, 0x00, 0x00, 0x00, 0x00, 0x00, 0x00, 0x00, 0x00, 0x00, 
  0x00, 0x00, 0x00, 0x00, 0x00, 0x00, 0x00, 0x00, 0x00, 0x00, 0x00, 0x00, 
  0x00, 0x00, 0x00, 0x00, 0x00, 0x00, 0x00, 0x80, 0x01, 0x00, 0x00, 0x00, 
  0x00, 0x00, 0x00, 0x00, 0x00, 0x00, 0x00, 0x00, 0x00, 0x00, 0x00, 0x00, 
  0x00, 0x00, 0x00, 0x00, 0x00, 0x00, 0x00, 0x00, 0x00, 0x00, 0x00, 0x00, 
  0x00, 0x00, 0x00, 0x80, 0x01, 0x00, 0x00, 0x00, 0x00, 0x00, 0x00, 0x00, 
  0x00, 0x00, 0x00, 0x00, 0x00, 0x00, 0x00, 0x00, 0x00, 0x00, 0x00, 0x00, 
  0x00, 0x00, 0x00, 0x00, 0x00, 0x00, 0x00, 0x00, 0x00, 0x00, 0x00, 0x80, 
  0x01, 0x00, 0x00, 0x00, 0x00, 0x00, 0x00, 0x00, 0x00, 0x00, 0x00, 0x00, 
  0x00, 0x00, 0x00, 0x00, 0x00, 0x00, 0x00, 0x00, 0x00, 0x00, 0x00, 0x00, 
  0x00, 0x00, 0x00, 0x00, 0x00, 0x00, 0x00, 0x80, 0x01, 0x00, 0x00, 0x00, 
  0x00, 0x00, 0x00, 0x00, 0x00, 0x00, 0x00, 0x00, 0x00, 0x00, 0x00, 0x00, 
  0x00, 0x00, 0x00, 0x00, 0x00, 0x00, 0x00, 0x00, 0x00, 0x00, 0x00, 0x00, 
  0x00, 0x00, 0x00, 0x80, 0x01, 0x00, 0x00, 0x00, 0x00, 0x00, 0x00, 0x00, 
  0x00, 0x00, 0x00, 0x00, 0x00, 0x00, 0x00, 0x00, 0x00, 0x00, 0x00, 0x00, 
  0x00, 0x00, 0x00, 0x00, 0x00, 0x00, 0x00, 0x00, 0x00, 0x00, 0x00, 0x80, 
  0x01, 0x00, 0x00, 0x00, 0x00, 0x00, 0x00, 0x00, 0x00, 0x00, 0x00, 0x00, 
  0x00, 0x00, 0x00, 0x00, 0x00, 0x00, 0x00, 0x00, 0x00, 0x00, 0x00, 0x00, 
  0x00, 0x00, 0x00, 0x00, 0x00, 0x00, 0x00, 0x80, 0x01, 0x00, 0x00, 0x00, 
  0x00, 0x00, 0x00, 0x00, 0x00, 0x00, 0x00, 0x00, 0x00, 0x00, 0x00, 0x00, 
  0x00, 0x00, 0x00, 0x00, 0x00, 0x00, 0x00, 0x00, 0x00, 0x00, 0x00, 0x00, 
  0x00, 0x00, 0x00, 0x80, 0x01, 0x00, 0x00, 0x00, 0x00, 0x00, 0x00, 0x00, 
  0x00, 0x00, 0x00, 0x00, 0x00, 0x00, 0x00, 0x00, 0x00, 0x00, 0x00, 0x00, 
  0x00, 0x00, 0x00, 0x00, 0x00, 0x00, 0x00, 0x00, 0x00, 0x00, 0x00, 0x80, 
  0x01, 0x00, 0x00, 0x00, 0x00, 0x1C, 0x00, 0xE0, 0x0E, 0x3E, 0xE0, 0x80, 
  0x03, 0x1C, 0x00, 0x80, 0x03, 0x00, 0x00, 0x00, 0x00, 0x00, 0xE0, 0xF8, 
  0x3F, 0x0E, 0x00, 0xE0, 0x0E, 0x00, 0x00, 0x80, 0x01, 0x00, 0x00, 0x00, 
  0x00, 0x1C, 0x00, 0xE0, 0x0E, 0x3E, 0xE0, 0x80, 0x03, 0x1C, 0x00, 0x80, 
  0x03, 0x00, 0x00, 0x00, 0x00, 0x00, 0xE0, 0xF0, 0x3F, 0x0E, 0x00, 0xE0, 
  0x0E, 0x00, 0x00, 0x80, 0x01, 0x0E, 0x00, 0xF8, 0x3F, 0x1C, 0xFE, 0xE3, 
  0x8E, 0xE3, 0xE0, 0x80, 0x03, 0x1C, 0xFE, 0x81, 0x03, 0x80, 0xFF, 0x00, 
  0xC0, 0x3F, 0xE0, 0xE0, 0x1C, 0x0E, 0xFE, 0xE1, 0x0E, 0xC0, 0x01, 0x80, 
  0x81, 0x0F, 0x00, 0x80, 0x03, 0x1C, 0xDC, 0xE1, 0xCE, 0xC1, 0xE1, 0x80, 
  0x03, 0x1C, 0xC0, 0x81, 0x03, 0x00, 0xC0, 0x01, 0x00, 0x38, 0xE0, 0xE0, 
  0x1C, 0x0E, 0xC0, 0xE1, 0x0E, 0xC0, 0x01, 0x80, 0xC1, 0x0F, 0x00, 0x80, 
  0x03, 0x1C, 0xDC, 0xE1, 0xCE, 0xC1, 0xE1, 0x80, 0x03, 0x1C, 0xC0, 0x81, 
  0x03, 0x00, 0xC0, 0x01, 0x00, 0x38, 0xE0, 0xE0, 0x1C, 0xFE, 0xC0, 0xE1, 
  0x0E, 0xC0, 0x01, 0x80, 0xC1, 0x0F, 0x00, 0x80, 0x03, 0x1C, 0xDC, 0xE1, 
  0xCE, 0xC1, 0xE1, 0x80, 0x03, 0x1C, 0xC0, 0x81, 0x03, 0x00, 0xC0, 0x01, 
  0x00, 0x38, 0xE0, 0xE0, 0x1C, 0x7E, 0xC0, 0xE1, 0x0E, 0xC0, 0x01, 0x80, 
  0x01, 0x0E, 0x00, 0x80, 0x03, 0x1C, 0xDC, 0xFD, 0xCE, 0xC1, 0xE1, 0xC0, 
  0x0F, 0x1C, 0xC0, 0x81, 0x03, 0x00, 0xC0, 0x01, 0x00, 0x38, 0xE0, 0xE0, 
  0x1C, 0x0E, 0xC0, 0xE1, 0x0E, 0xE0, 0x03, 0x80, 0x01, 0x0E, 0x00, 0x80, 
  0x03, 0x1C, 0xDC, 0xE1, 0x8E, 0xE3, 0xE0, 0xE0, 0x1C, 0x1C, 0xC0, 0x81, 
  0x03, 0x00, 0xFE, 0x00, 0x00, 0x38, 0xE0, 0xE0, 0x1C, 0x0E, 0xC0, 0xE1, 
  0x0E, 0x38, 0x0E, 0x80, 0x01, 0x0E, 0x00, 0x80, 0x03, 0x1C, 0xDC, 0xE1, 
  0x0E, 0x3E, 0xE0, 0x38, 0x38, 0x1C, 0xC0, 0x81, 0x03, 0x80, 0x03, 0x00, 
  0x00, 0x38, 0xE0, 0xF8, 0x3F, 0x0E, 0xC0, 0xE1, 0x8F, 0x1F, 0xFC, 0x80, 
  0x01, 0x0E, 0x00, 0x80, 0x03, 0x1C, 0xDC, 0xE1, 0x0E, 0x3E, 0x60, 0x30, 
  0x30, 0x1C, 0xC0, 0x81, 0x03, 0x80, 0x03, 0x00, 0x00, 0x38, 0xE0, 0xF0, 
  0x3F, 0x06, 0xC0, 0xE1, 0x0F, 0x1F, 0x7C, 0x80, 0x01, 0x0E, 0x00, 0x80, 
  0x03, 0x1C, 0xDC, 0xE1, 0x0E, 0x00, 0x00, 0x00, 0x00, 0x00, 0xC0, 0x81, 
  0x03, 0x80, 0x03, 0x00, 0x00, 0x38, 0xE0, 0x00, 0x00, 0x00, 0xC0, 0xE1, 
  0x0E, 0x00, 0x00, 0x80, 0x01, 0x0E, 0x00, 0x80, 0x03, 0x1C, 0xDC, 0xFD, 
  0x8E, 0x03, 0x00, 0xE0, 0xFF, 0x1F, 0xC0, 0x81, 0x03, 0x80, 0x03, 0x00, 
  0x00, 0x38, 0xE0, 0xE0, 0x00, 0x00, 0xC0, 0xE1, 0xCE, 0xFF, 0xFF, 0x81, 
  0x01, 0x0E, 0x38, 0xC0, 0x0F, 0x1C, 0xDC, 0xE1, 0x8E, 0x03, 0x00, 0x00, 
  0x00, 0x1C, 0xC0, 0x81, 0x03, 0x80, 0x03, 0xC0, 0x01, 0x38, 0xE0, 0xE0, 
  0x00, 0x00, 0xC0, 0xE1, 0x0E, 0xC0, 0x01, 0x80, 0x01, 0x0E, 0x38, 0xC0, 
  0x0F, 0x1C, 0xDC, 0xE1, 0x8E, 0x03, 0x00, 0x00, 0x00, 0x1C, 0xC0, 0x81, 
  0x03, 0x80, 0x03, 0xC0, 0x01, 0x38, 0xE0, 0xE0, 0x00, 0x00, 0xC0, 0xE1, 
  0x0E, 0xC0, 0x01, 0x80, 0x01, 0x0E, 0x38, 0xE0, 0x1C, 0x1C, 0xDC, 0xE1, 
  0x8E, 0x03, 0x00, 0x00, 0x00, 0x1C, 0xE0, 0x80, 0x03, 0x80, 0xFF, 0xC1, 
  0x01, 0x1C, 0xE0, 0xE0, 0x00, 0x00, 0xE0, 0xE0, 0x0E, 0xC0, 0x01, 0x80, 
  0x01, 0x00, 0x00, 0x38, 0x38, 0x1C, 0xFE, 0xE3, 0x8E, 0x03, 0x00, 0x00, 
  0x00, 0x1C, 0x3C, 0x80, 0x03, 0x00, 0x00, 0x00, 0x80, 0x0F, 0xE0, 0xE0, 
  0x00, 0x00, 0x3C, 0xE0, 0x0E, 0xC0, 0x01, 0x80, 0x01, 0x00, 0x00, 0x00, 
  0x00, 0x1C, 0x00, 0xE0, 0x0E, 0xFE, 0xFF, 0x00, 0x00, 0x0C, 0x00, 0x80, 
  0x03, 0x00, 0x00, 0x00, 0x00, 0x00, 0xE0, 0xC0, 0xFF, 0x0F, 0x00, 0xE0, 
  0x0E, 0xC0, 0x01, 0x80, 0x01, 0x00, 0x00, 0x00, 0x00, 0x1C, 0x00, 0x60, 
  0x06, 0xFE, 0x7F, 0x00, 0x00, 0x04, 0x00, 0x00, 0x03, 0x00, 0x00, 0x00, 
  0x00, 0x00, 0x60, 0xC0, 0xFF, 0x07, 0x00, 0x60, 0x06, 0xC0, 0x01, 0x80, 
  0x01, 0x00, 0x00, 0x00, 0x00, 0x00, 0x00, 0x00, 0x00, 0x00, 0x00, 0x00, 
  0x00, 0x00, 0x00, 0x00, 0x00, 0x00, 0x00, 0x00, 0x00, 0x00, 0x00, 0x00, 
  0x00, 0x00, 0x00, 0x00, 0x00, 0x00, 0x00, 0x80, 0x01, 0x00, 0x00, 0x00, 
  0x00, 0x00, 0x00, 0x00, 0x00, 0x00, 0x00, 0x00, 0x00, 0x00, 0x00, 0x00, 
  0x00, 0x00, 0x00, 0x00, 0x00, 0x00, 0x00, 0x00, 0x00, 0x00, 0x00, 0x00, 
  0x00, 0x00, 0x00, 0x80, 0x01, 0x00, 0x00, 0x00, 0x00, 0x00, 0x00, 0x00, 
  0x00, 0x00, 0x00, 0x00, 0x00, 0x00, 0x00, 0x00, 0x00, 0x00, 0x00, 0x00, 
  0x00, 0x00, 0x00, 0x00, 0x00, 0x00, 0x00, 0x00, 0x00, 0x00, 0x00, 0x80, 
  0x01, 0x00, 0x00, 0x00, 0x00, 0x00, 0x00, 0x00, 0x00, 0x00, 0x00, 0x00, 
  0x00, 0x00, 0x00, 0x00, 0x00, 0x00, 0x00, 0x00, 0x00, 0x00, 0x00, 0x00, 
  0x00, 0x00, 0x00, 0x00, 0x00, 0x00, 0x00, 0x80, 0x01, 0x00, 0x00, 0x00, 
  0x00, 0x00, 0x00, 0x00, 0x00, 0x00, 0x00, 0x00, 0x00, 0x00, 0x00, 0x00, 
  0x00, 0x00, 0x00, 0x00, 0x00, 0x00, 0x00, 0x00, 0x00, 0x00, 0x00, 0x00, 
  0x00, 0x00, 0x00, 0x80, 0x01, 0x00, 0x00, 0x00, 0x00, 0x1C, 0xFE, 0xCF, 
  0x01, 0x1C, 0xDC, 0x39, 0x00, 0x1C, 0x00, 0x00, 0x00, 0x00, 0x00, 0x00, 
  0xC0, 0xFF, 0x39, 0xE0, 0xFF, 0x1F, 0x0E, 0xCE, 0x01, 0x1C, 0xE0, 0x80, 
  0x01, 0x00, 0x00, 0x00, 0x00, 0x1C, 0xFE, 0xC7, 0x01, 0x1C, 0xDC, 0x39, 
  0x00, 0x1C, 0x00, 0x00, 0x00, 0x00, 0x00, 0x00, 0xC0, 0xFF, 0x39, 0xE0, 
  0xFF, 0x1F, 0x0E, 0xCE, 0x01, 0x1C, 0xE0, 0x80, 0xE1, 0x1F, 0x00, 0xF8, 
  0x0F, 0x1C, 0x9C, 0xC3, 0xC1, 0xFF, 0xDD, 0x39, 0x00, 0x1C, 0x00, 0x00, 
  0x00, 0x00, 0xFC, 0x00, 0x00, 0x1C, 0x38, 0xE0, 0x00, 0x00, 0x0E, 0xCE, 
  0x01, 0x1C, 0xE0, 0x80, 0x01, 0x38, 0x00, 0x00, 0x0E, 0x1C, 0x9C, 0xC3, 
  0x01, 0x1C, 0xDC, 0x39, 0x00, 0x1C, 0x00, 0x00, 0x00, 0x00, 0xEE, 0x00, 
  0x00, 0x1C, 0x38, 0xE0, 0x00, 0x00, 0x0E, 0xCE, 0x01, 0x1C, 0xE0, 0x80, 
  0x01, 0x38, 0x00, 0x00, 0x0E, 0x1C, 0x9C, 0xC3, 0x1F, 0x1C, 0xDC, 0x39, 
  0xC0, 0x1F, 0x00, 0x00, 0x00, 0x80, 0xE3, 0x00, 0x00, 0x1C, 0xF8, 0xE3, 
  0x00, 0x00, 0xFE, 0xCF, 0x1F, 0x1C, 0xE0, 0x80, 0x01, 0x38, 0x00, 0x00, 
  0x0E, 0x1C, 0x9C, 0xC3, 0x1F, 0x1C, 0xDC, 0x39, 0xC0, 0x1F, 0x00, 0x00, 
  0x00, 0x80, 0xE3, 0x00, 0x00, 0x1C, 0xF8, 0xE3, 0x00, 0x00, 0xFE, 0xCF, 
  0x1F, 0x1C, 0xE0, 0x80, 0x01, 0x38, 0x00, 0x00, 0x0E, 0x1C, 0x9C, 0xC3, 
  0x01, 0x1C, 0xDC, 0x39, 0x00, 0x1C, 0x00, 0x00, 0x00, 0x80, 0xE3, 0x00, 
  0x00, 0x3E, 0x38, 0xC0, 0xFF, 0x1F, 0x0E, 0xCE, 0x01, 0x3E, 0xE0, 0x80, 
  0xC1, 0x1F, 0x00, 0x00, 0x0E, 0x1C, 0x9C, 0xC3, 0x01, 0x1C, 0xDC, 0x39, 
  0x00, 0x1C, 0x00, 0x00, 0x00, 0x80, 0xE3, 0x00, 0x80, 0xE3, 0x38, 0x00, 
  0x38, 0x00, 0x0E, 0xCE, 0x81, 0xE3, 0xE0, 0x80, 0x01, 0x38, 0x00, 0x00, 
  0x0E, 0x1C, 0xFE, 0xCF, 0x01, 0x1C, 0xFC, 0xE1, 0x3F, 0x1C, 0x00, 0x00, 
  0x00, 0x80, 0xFF, 0x01, 0xC0, 0xC1, 0x39, 0xF8, 0xFF, 0x3F, 0xFC, 0xC3, 
  0xC1, 0xC1, 0xE1, 0x80, 0x01, 0x38, 0x00, 0x00, 0x0E, 0x1C, 0xFE, 0xC7, 
  0x01, 0x1C, 0xFC, 0xE1, 0x3F, 0x1C, 0x00, 0x00, 0x00, 0x00, 0xFF, 0x01, 
  0xC0, 0xC1, 0x31, 0xF0, 0xFF, 0x3F, 0xFC, 0xC3, 0xC1, 0xC1, 0x61, 0x80, 
  0x01, 0x38, 0x00, 0x00, 0x0E, 0x1C, 0x00, 0x00, 0x00, 0x1C, 0xDC, 0x01, 
  0x00, 0x00, 0x00, 0x00, 0x00, 0x00, 0xE0, 0x00, 0x00, 0x00, 0x00, 0x00, 
  0x00, 0x00, 0x00, 0x00, 0x00, 0x00, 0x00, 0x80, 0x01, 0x38, 0x00, 0x00, 
  0x0E, 0x1C, 0x1C, 0x00, 0x00, 0x1C, 0xDC, 0xE1, 0xFF, 0x1F, 0x00, 0x00, 
  0x00, 0x00, 0xE0, 0x00, 0x80, 0xFF, 0x3F, 0x80, 0xFF, 0x03, 0xE0, 0x3F, 
  0x80, 0xFF, 0xFF, 0x80, 0x01, 0x38, 0x38, 0x00, 0x0E, 0x1C, 0x1C, 0x00, 
  0x00, 0x3E, 0xDC, 0x01, 0x00, 0x1C, 0x00, 0x00, 0x00, 0x00, 0xE0, 0xC0, 
  0x01, 0x00, 0x38, 0xE0, 0x01, 0x1E, 0x3C, 0xE0, 0x01, 0x00, 0xE0, 0x80, 
  0x01, 0x38, 0x38, 0x00, 0x06, 0x1C, 0x1C, 0x00, 0x00, 0x3E, 0xDC, 0x01, 
  0x00, 0x1C, 0x00, 0x00, 0x00, 0x00, 0xE0, 0xC0, 0x01, 0x00, 0x38, 0xE0, 
  0x01, 0x1E, 0x3C, 0xE0, 0x01, 0x00, 0xE0, 0x80, 0xE1, 0x1F, 0x38, 0x80, 
  0x03, 0x1C, 0x1C, 0x00, 0x80, 0xE3, 0xDC, 0xE1, 0xFF, 0x1F, 0x00, 0x00, 
  0x00, 0x00, 0xE0, 0xC0, 0x01, 0x00, 0x38, 0xE0, 0x00, 0x1C, 0x1C, 0xC0, 
  0x01, 0x00, 0xE0, 0x80, 0x01, 0x00, 0x00, 0xE0, 0x01, 0x1C, 0x1C, 0x00, 
  0xC0, 0xC1, 0xDD, 0xE1, 0x00, 0x00, 0x00, 0x00, 0x00, 0x00, 0x00, 0x00, 
  0x00, 0x00, 0x38, 0xE0, 0x01, 0x1E, 0x3C, 0xE0, 0x01, 0x00, 0xE0, 0x80, 
  0x01, 0x00, 0x00, 0x00, 0x00, 0x1C, 0xF8, 0xFF, 0x01, 0x00, 0xDC, 0xC1, 
  0xFF, 0x1F, 0x00, 0x00, 0x00, 0x00, 0x00, 0x00, 0x00, 0x00, 0x18, 0x80, 
  0xFF, 0x03, 0xE0, 0x3F, 0x00, 0x00, 0x20, 0x80, 0x01, 0x00, 0x00, 0x00, 
  0x00, 0x1C, 0xF0, 0xFF, 0x01, 0x00, 0xDC, 0xC1, 0xFF, 0x1F, 0x00, 0x00, 
  0x00, 0x00, 0x00, 0x00, 0x00, 0x00, 0x10, 0x00, 0xFF, 0x03, 0xE0, 0x3F, 
  0x00, 0x00, 0x20, 0x80, 0x01, 0x00, 0x00, 0x00, 0x00, 0x00, 0x00, 0x00, 
  0x00, 0x00, 0x00, 0x00, 0x00, 0x00, 0x00, 0x00, 0x00, 0x00, 0x00, 0x00, 
  0x00, 0x00, 0x00, 0x00, 0x00, 0x00, 0x00, 0x00, 0x00, 0x00, 0x00, 0x80, 
  0x01, 0x00, 0x00, 0x00, 0x00, 0x00, 0x00, 0x00, 0x00, 0x00, 0x00, 0x00, 
  0x00, 0x00, 0x00, 0x00, 0x00, 0x00, 0x00, 0x00, 0x00, 0x00, 0x00, 0x00, 
  0x00, 0x00, 0x00, 0x00, 0x00, 0x00, 0x00, 0x80, 0x01, 0x00, 0x00, 0x00, 
  0x00, 0x00, 0x00, 0x00, 0x00, 0x00, 0x00, 0x00, 0x00, 0x00, 0x00, 0x00, 
  0x00, 0x00, 0x00, 0x00, 0x00, 0x00, 0x00, 0x00, 0x00, 0x00, 0x00, 0x00, 
  0x00, 0x00, 0x00, 0x80, 0x01, 0x00, 0x00, 0x00, 0x00, 0x00, 0x00, 0x00, 
  0x00, 0x00, 0x00, 0x00, 0x00, 0x00, 0x00, 0x00, 0x00, 0x00, 0x00, 0x00, 
  0x00, 0x00, 0x00, 0x00, 0x00, 0x00, 0x00, 0x00, 0x00, 0x00, 0x00, 0x80, 
  0x01, 0x00, 0x00, 0x00, 0x00, 0x00, 0x00, 0x00, 0x00, 0x00, 0x00, 0x00, 
  0x00, 0x00, 0x00, 0x00, 0x00, 0x00, 0x00, 0x00, 0x00, 0x00, 0x00, 0x00, 
  0x00, 0x00, 0x00, 0x00, 0x00, 0x00, 0x00, 0x80, 0x01, 0x00, 0x00, 0x80, 
  0x83, 0x3B, 0x0E, 0x80, 0x03, 0x00, 0x38, 0x00, 0xC0, 0xFF, 0x38, 0xF8, 
  0x3F, 0x1C, 0x00, 0x00, 0x80, 0x3B, 0xE0, 0x80, 0x03, 0x00, 0x00, 0x00, 
  0x00, 0x00, 0x00, 0x80, 0x01, 0x00, 0x00, 0x80, 0x83, 0x3B, 0x0E, 0x80, 
  0x03, 0x00, 0x38, 0x00, 0xC0, 0xFF, 0x38, 0xF8, 0x3F, 0x1C, 0x00, 0x00, 
  0x80, 0x3B, 0xE0, 0x80, 0x03, 0x00, 0x00, 0x00, 0x00, 0x00, 0x00, 0x80, 
  0xE1, 0x3F, 0x00, 0xF8, 0xBF, 0x3B, 0x0E, 0x80, 0xC3, 0xFF, 0x39, 0x00, 
  0x00, 0xE0, 0x38, 0x00, 0x38, 0x1C, 0x00, 0xF8, 0x9F, 0x3B, 0xFE, 0x8F, 
  0x03, 0x00, 0x00, 0x00, 0x00, 0x00, 0x00, 0x80, 0xE1, 0x00, 0x00, 0x80, 
  0x83, 0x3B, 0x0E, 0x80, 0x03, 0xC0, 0x39, 0x00, 0x00, 0xE0, 0x38, 0x00, 
  0x38, 0x1C, 0x00, 0x38, 0x9C, 0x3B, 0xE0, 0x80, 0x03, 0x00, 0x00, 0x00, 
  0x00, 0x00, 0x00, 0x80, 0xE1, 0x00, 0x00, 0x80, 0x83, 0x3B, 0x0E, 0xF8, 
  0x03, 0xC0, 0x39, 0x00, 0xC0, 0xFF, 0xF8, 0xFB, 0xFF, 0x1F, 0x00, 0x38, 
  0x9C, 0x3B, 0xE0, 0x80, 0x03, 0x00, 0x00, 0x00, 0x00, 0x00, 0x00, 0x80, 
  0xE1, 0x00, 0x00, 0x80, 0x83, 0x3B, 0x0E, 0xF8, 0x03, 0xC0, 0x39, 0x00, 
  0xC0, 0xFF, 0xF8, 0xFB, 0xFF, 0x1F, 0x00, 0x38, 0x9C, 0x3B, 0xE0, 0x80, 
  0x03, 0x00, 0x00, 0x00, 0x00, 0x00, 0x00, 0x80, 0xE1, 0x00, 0x00, 0x80, 
  0x83, 0x3B, 0x0E, 0x80, 0x03, 0xC0, 0x39, 0x00, 0x00, 0xE0, 0x38, 0x38, 
  0x00, 0x1C, 0x00, 0x38, 0x9C, 0x3B, 0xF8, 0x81, 0x03, 0x00, 0x00, 0x00, 
  0x00, 0x00, 0x00, 0x80, 0xE1, 0x1F, 0x00, 0x80, 0x83, 0x3B, 0x0E, 0x80, 
  0x03, 0xC0, 0x39, 0x00, 0x00, 0xE0, 0x38, 0x38, 0x00, 0x1C, 0x00, 0x38, 
  0x9C, 0x3B, 0x9C, 0x83, 0x03, 0x00, 0x00, 0x00, 0x00, 0x00, 0x00, 0x80, 
  0x01, 0x38, 0x00, 0x80, 0x83, 0x3F, 0xFC, 0x8F, 0x03, 0xDC, 0xF9, 0x03, 
  0x80, 0x3F, 0x38, 0xE0, 0x3F, 0x1C, 0x00, 0x38, 0x9C, 0x3F, 0x0E, 0x8E, 
  0x03, 0x00, 0x00, 0x00, 0x00, 0x00, 0x00, 0x80, 0x01, 0x38, 0x00, 0x80, 
  0x83, 0x3F, 0xFC, 0x8F, 0x03, 0xDC, 0xF9, 0x03, 0x80, 0x3F, 0x38, 0xE0, 
  0x3F, 0x1C, 0x00, 0x38, 0x9C, 0x3F, 0x0E, 0x8E, 0x03, 0x00, 0x00, 0x00, 
  0x00, 0x00, 0x00, 0x80, 0x01, 0x38, 0x00, 0x80, 0x83, 0x3B, 0x00, 0x00, 
  0x00, 0xFC, 0x38, 0x00, 0x00, 0x00, 0x00, 0x00, 0x00, 0x00, 0x00, 0x38, 
  0x9C, 0x3B, 0x00, 0x00, 0x00, 0x00, 0x00, 0x00, 0x00, 0x00, 0x00, 0x80, 
  0x01, 0x38, 0x00, 0x80, 0x83, 0x3B, 0xFC, 0xFF, 0x03, 0x1C, 0x38, 0x00, 
  0x80, 0xFF, 0x3F, 0xE0, 0xFF, 0x1F, 0x00, 0x38, 0x9C, 0x3B, 0xE0, 0xFF, 
  0x00, 0x00, 0x00, 0x00, 0x00, 0x00, 0x00, 0x80, 0x01, 0x38, 0x38, 0xC0, 
  0x8F, 0x3B, 0x00, 0x80, 0x03, 0x1C, 0x38, 0x00, 0x00, 0x00, 0x38, 0xE0, 
  0x00, 0x1C, 0x00, 0x38, 0x9C, 0x3B, 0x3C, 0xC0, 0x03, 0x00, 0x00, 0x00, 
  0x00, 0x00, 0x00, 0x80, 0x01, 0x38, 0x38, 0xC0, 0x8F, 0x3B, 0x00, 0x80, 
  0x03, 0x1C, 0x38, 0x00, 0x00, 0x00, 0x38, 0xE0, 0x00, 0x1C, 0x00, 0x38, 
  0x9C, 0x3B, 0x3C, 0xC0, 0x03, 0x00, 0x00, 0x00, 0x00, 0x00, 0x00, 0x80, 
  0xE1, 0x1F, 0x38, 0xE0, 0x9C, 0x3B, 0xFC, 0xFF, 0x03, 0x1C, 0x38, 0x00, 
  0x80, 0xFF, 0x3F, 0xE0, 0x00, 0x1C, 0x00, 0x38, 0x9C, 0x3B, 0x1C, 0x80, 
  0x03, 0x00, 0x00, 0x00, 0x00, 0x00, 0x00, 0x80, 0x01, 0x00, 0x00, 0x38, 
  0xB8, 0x3B, 0x1C, 0x00, 0xC0, 0xFF, 0x3F, 0x00, 0x80, 0x03, 0x00, 0xE0, 
  0x00, 0x1C, 0x00, 0xE0, 0x8F, 0x3B, 0x3C, 0xC0, 0x03, 0x00, 0x00, 0x00, 
  0x00, 0x00, 0x00, 0x80, 0x01, 0x00, 0x00, 0x00, 0x80, 0x3B, 0xF8, 0xFF, 
  0x03, 0x00, 0x38, 0x00, 0x00, 0xFE, 0x3F, 0xC0, 0xFF, 0x0F, 0x00, 0x00, 
  0x80, 0x3B, 0xE0, 0xFF, 0x00, 0x00, 0x00, 0x00, 0x00, 0x00, 0x00, 0x80, 
  0x01, 0x00, 0x00, 0x00, 0x80, 0x3B, 0xF8, 0xFF, 0x03, 0x00, 0x38, 0x00, 
  0x00, 0xFE, 0x3F, 0xC0, 0xFF, 0x0F, 0x00, 0x00, 0x80, 0x3B, 0xE0, 0xFF, 
  0x00, 0x00, 0x00, 0x00, 0x00, 0x00, 0x00, 0x80, 0x01, 0x00, 0x00, 0x00, 
  0x00, 0x00, 0x00, 0x00, 0x00, 0x00, 0x00, 0x00, 0x00, 0x00, 0x00, 0x00, 
  0x00, 0x00, 0x00, 0x00, 0x00, 0x00, 0x00, 0x00, 0x00, 0x00, 0x00, 0x00, 
  0x00, 0x00, 0x00, 0x80, 0x01, 0x00, 0x00, 0x00, 0x00, 0x00, 0x00, 0x00, 
  0x00, 0x00, 0x00, 0x00, 0x00, 0x00, 0x00, 0x00, 0x00, 0x00, 0x00, 0x00, 
  0x00, 0x00, 0x00, 0x00, 0x00, 0x00, 0x00, 0x00, 0x00, 0x00, 0x00, 0x80, 
  0x01, 0x00, 0x00, 0x00, 0x00, 0x00, 0x00, 0x00, 0x00, 0x00, 0x00, 0x00, 
  0x00, 0x00, 0x00, 0x00, 0x00, 0x00, 0x00, 0x00, 0x00, 0x00, 0x00, 0x00, 
  0x00, 0x00, 0x00, 0x00, 0x00, 0x00, 0x00, 0x80, 0x01, 0x00, 0x00, 0x00, 
  0x00, 0x00, 0x00, 0x00, 0x00, 0x00, 0x00, 0x00, 0x00, 0x00, 0x00, 0x00, 
  0x00, 0x00, 0x00, 0x00, 0x00, 0x00, 0x00, 0x00, 0x00, 0x00, 0x00, 0x00, 
  0x00, 0x00, 0x00, 0x80, 0x01, 0x00, 0x00, 0x00, 0x00, 0x00, 0x00, 0x00, 
  0x00, 0x00, 0x00, 0x00, 0x00, 0x00, 0x00, 0x00, 0x00, 0x00, 0x00, 0x00, 
  0x00, 0x00, 0x00, 0x00, 0x00, 0x00, 0x00, 0x00, 0x00, 0x00, 0x00, 0x80, 
  0x01, 0x00, 0x00, 0x00, 0x00, 0x1C, 0xFE, 0x8F, 0xC3, 0xC1, 0xE1, 0x00, 
  0x38, 0x00, 0x00, 0x38, 0x38, 0x1C, 0xFE, 0x81, 0x03, 0x00, 0x00, 0x00, 
  0x00, 0x00, 0x00, 0x00, 0x00, 0x00, 0x00, 0x80, 0x01, 0x00, 0x00, 0x00, 
  0x00, 0x1C, 0xFE, 0x8F, 0xC3, 0xC1, 0xE1, 0x00, 0x38, 0x00, 0x00, 0x38, 
  0x38, 0x1C, 0xFE, 0x81, 0x03, 0x00, 0x00, 0x00, 0x00, 0x00, 0x00, 0x00, 
  0x00, 0x00, 0x00, 0x80, 0xC1, 0x1F, 0x00, 0x38, 0x1C, 0x1C, 0x0E, 0x8E, 
  0xC3, 0xC1, 0xE1, 0x00, 0x38, 0x00, 0x00, 0x38, 0x38, 0x1C, 0xC0, 0x81, 
  0x03, 0x00, 0x00, 0x00, 0x00, 0x00, 0x00, 0x00, 0x00, 0x00, 0x00, 0x80, 
  0xE1, 0x00, 0x00, 0x38, 0x1C, 0x1C, 0x0E, 0x8E, 0xC3, 0xC1, 0xE1, 0xE0, 
  0xFF, 0x1F, 0x00, 0x38, 0xF8, 0x1F, 0xC0, 0xF9, 0x03, 0x00, 0x00, 0x00, 
  0x00, 0x00, 0x00, 0x00, 0x00, 0x00, 0x00, 0x80, 0xE1, 0x00, 0x00, 0x38, 
  0x1C, 0x1C, 0x0E, 0x8E, 0xC3, 0xFF, 0xFF, 0x80, 0xFF, 0x03, 0x00, 0xF8, 
  0x3F, 0x1C, 0xC0, 0x81, 0x03, 0x00, 0x00, 0x00, 0x00, 0x00, 0x00, 0x00, 
  0x00, 0x00, 0x00, 0x80, 0xE1, 0x00, 0x00, 0x38, 0x1C, 0x1C, 0x0E, 0x8E, 
  0xC3, 0xFF, 0xFF, 0x80, 0xFF, 0x03, 0x00, 0xF8, 0x3F, 0x1C, 0xC0, 0x81, 
  0x03, 0x00, 0x00, 0x00, 0x00, 0x00, 0x00, 0x00, 0x00, 0x00, 0x00, 0x80, 
  0xE1, 0x00, 0x00, 0x38, 0x1C, 0x1C, 0x0E, 0x8E, 0xC3, 0xC1, 0xE1, 0xE0, 
  0x01, 0x1E, 0x00, 0x38, 0xF8, 0x1F, 0xC0, 0xF9, 0x03, 0x00, 0x00, 0x00, 
  0x00, 0x00, 0x00, 0x00, 0x00, 0x00, 0x00, 0x80, 0xE1, 0x1F, 0x00, 0x38, 
  0x1C, 0x1C, 0x0E, 0x8E, 0xC3, 0xC1, 0xE1, 0xE0, 0x00, 0x1C, 0x00, 0x38, 
  0x38, 0x1C, 0xC0, 0x81, 0x03, 0x00, 0x00, 0x00, 0x00, 0x00, 0x00, 0x00, 
  0x00, 0x00, 0x00, 0x80, 0xE1, 0x38, 0x00, 0xF8, 0x1F, 0x1C, 0xFC, 0x83, 
  0x83, 0xFF, 0xE0, 0xE0, 0x01, 0x1E, 0x00, 0xE0, 0x1F, 0x1C, 0xFC, 0x80, 
  0x03, 0x00, 0x00, 0x00, 0x00, 0x00, 0x00, 0x00, 0x00, 0x00, 0x00, 0x80, 
  0xE1, 0x38, 0x00, 0xF8, 0x1F, 0x1C, 0xFC, 0x83, 0x83, 0xFF, 0xE0, 0xE0, 
  0x01, 0x1E, 0x00, 0xE0, 0x1F, 0x1C, 0xFC, 0x80, 0x03, 0x00, 0x00, 0x00, 
  0x00, 0x00, 0x00, 0x00, 0x00, 0x00, 0x00, 0x80, 0xE1, 0x38, 0x00, 0x38, 
  0x1C, 0x1C, 0x00, 0x00, 0x00, 0x00, 0x00, 0x80, 0xFF, 0x03, 0x00, 0x00, 
  0x00, 0x00, 0x00, 0x00, 0x00, 0x00, 0x00, 0x00, 0x00, 0x00, 0x00, 0x00, 
  0x00, 0x00, 0x00, 0x80, 0xE1, 0x38, 0x00, 0x38, 0x1C, 0x1C, 0xFC, 0xFF, 
  0x83, 0x03, 0x00, 0x00, 0x38, 0x00, 0x00, 0xE0, 0x00, 0x00, 0xE0, 0xFF, 
  0x00, 0x00, 0x00, 0x00, 0x00, 0x00, 0x00, 0x00, 0x00, 0x00, 0x00, 0x80, 
  0xE1, 0x38, 0x38, 0x38, 0x1C, 0x1C, 0x00, 0x80, 0x83, 0x03, 0x00, 0x00, 
  0x38, 0x00, 0x00, 0xE0, 0x00, 0x00, 0x3C, 0xC0, 0x03, 0x00, 0x00, 0x00, 
  0x00, 0x00, 0x00, 0x00, 0x00, 0x00, 0x00, 0x80, 0xE1, 0x38, 0x38, 0x38, 
  0x1C, 0x1C, 0x00, 0x80, 0x83, 0x03, 0x00, 0x00, 0x38, 0x00, 0x00, 0xE0, 
  0x00, 0x00, 0x3C, 0xC0, 0x03, 0x00, 0x00, 0x00, 0x00, 0x00, 0x00, 0x00, 
  0x00, 0x00, 0x00, 0x80, 0xC1, 0x1F, 0x38, 0x38, 0x1C, 0x1C, 0xFC, 0xFF, 
  0x83, 0x03, 0x00, 0x00, 0x38, 0x00, 0x00, 0xE0, 0x00, 0x00, 0x1C, 0x80, 
  0x03, 0x00, 0x00, 0x00, 0x00, 0x00, 0x00, 0x00, 0x00, 0x00, 0x00, 0x80, 
  0x01, 0x00, 0x00, 0xE0, 0x0F, 0x1C, 0x1C, 0x00, 0x80, 0x03, 0x00, 0xF8, 
  0xFF, 0x3F, 0x00, 0xE0, 0x00, 0x00, 0x3C, 0xC0, 0x03, 0x00, 0x00, 0x00, 
  0x00, 0x00, 0x00, 0x00, 0x00, 0x00, 0x00, 0x80, 0x01, 0x00, 0x00, 0x00, 
  0x00, 0x1C, 0xF8, 0xFF, 0x03, 0xFE, 0xFF, 0x00, 0x00, 0x00, 0x00, 0xC0, 
  0xFF, 0x1F, 0xE0, 0xFF, 0x00, 0x00, 0x00, 0x00, 0x00, 0x00, 0x00, 0x00, 
  0x00, 0x00, 0x00, 0x80, 0x01, 0x00, 0x00, 0x00, 0x00, 0x1C, 0xF8, 0xFF, 
  0x03, 0xFE, 0xFF, 0x00, 0x00, 0x00, 0x00, 0xC0, 0xFF, 0x1F, 0xE0, 0xFF, 
  0x00, 0x00, 0x00, 0x00, 0x00, 0x00, 0x00, 0x00, 0x00, 0x00, 0x00, 0x80, 
  0x01, 0x00, 0x00, 0x00, 0x00, 0x00, 0x00, 0x00, 0x00, 0x00, 0x00, 0x00, 
  0x00, 0x00, 0x00, 0x00, 0x00, 0x00, 0x00, 0x00, 0x00, 0x00, 0x00, 0x00, 
  0x00, 0x00, 0x00, 0x00, 0x00, 0x00, 0x00, 0x80, 0x01, 0x00, 0x00, 0x00, 
  0x00, 0x00, 0x00, 0x00, 0x00, 0x00, 0x00, 0x00, 0x00, 0x00, 0x00, 0x00, 
  0x00, 0x00, 0x00, 0x00, 0x00, 0x00, 0x00, 0x00, 0x00, 0x00, 0x00, 0x00, 
  0x00, 0x00, 0x00, 0x80, 0x01, 0x00, 0x00, 0x00, 0x00, 0x00, 0x00, 0x00, 
  0x00, 0x00, 0x00, 0x00, 0x00, 0x00, 0x00, 0x00, 0x00, 0x00, 0x00, 0x00, 
  0x00, 0x00, 0x00, 0x00, 0x00, 0x00, 0x00, 0x00, 0x00, 0x00, 0x00, 0x80, 
  0x01, 0x00, 0x00, 0x00, 0x00, 0x00, 0x00, 0x00, 0x00, 0x00, 0x00, 0x00, 
  0x00, 0x00, 0x00, 0x00, 0x00, 0x00, 0x00, 0x00, 0x00, 0x00, 0x00, 0x00, 
  0x00, 0x00, 0x00, 0x00, 0x00, 0x00, 0x00, 0x80, 0x01, 0x00, 0x00, 0x00, 
  0x00, 0x00, 0x00, 0x00, 0x00, 0x00, 0x00, 0x00, 0x00, 0x00, 0x00, 0x00, 
  0x00, 0x00, 0x00, 0x00, 0x00, 0x00, 0x00, 0x00, 0x00, 0x00, 0x00, 0x00, 
  0x00, 0x00, 0x00, 0x80, 0x01, 0x00, 0x00, 0x80, 0x83, 0x3B, 0x0E, 0x80, 
  0x03, 0x00, 0xFE, 0xC3, 0xC1, 0xFF, 0xE1, 0x00, 0xC0, 0xC1, 0x39, 0x80, 
  0x03, 0x1C, 0x00, 0x00, 0x00, 0x1C, 0x00, 0x00, 0x00, 0x00, 0x00, 0x80, 
  0x01, 0x00, 0x00, 0x80, 0x83, 0x3B, 0x0E, 0x80, 0x03, 0x00, 0xFE, 0xC3, 
  0xC1, 0xFF, 0xE1, 0x00, 0xC0, 0xC1, 0x39, 0x80, 0x03, 0x1C, 0x00, 0x00, 
  0x00, 0x1C, 0x00, 0x00, 0x00, 0x00, 0x00, 0x80, 0xE1, 0x3F, 0x00, 0xF8, 
  0xBF, 0x3B, 0x0E, 0x80, 0x03, 0x00, 0x80, 0xC3, 0x01, 0xC0, 0xE1, 0x00, 
  0xC0, 0xC1, 0x39, 0x80, 0x03, 0x1C, 0x00, 0xF8, 0x1F, 0x1C, 0x00, 0x0E, 
  0x80, 0xFF, 0xFF, 0x80, 0x01, 0x38, 0x00, 0x80, 0x83, 0x3B, 0x0E, 0x80, 
  0x03, 0x00, 0x80, 0xC3, 0x01, 0xC0, 0xE1, 0x00, 0xC0, 0xC1, 0x39, 0x80, 
  0x03, 0x1C, 0x00, 0x00, 0x1C, 0x1C, 0x00, 0x0E, 0x80, 0x03, 0x00, 0x80, 
  0x01, 0x38, 0x00, 0x80, 0x83, 0x3B, 0x0E, 0xF8, 0x03, 0x00, 0xFE, 0xC3, 
  0xDF, 0xFF, 0xFF, 0x00, 0xC0, 0xFF, 0xF9, 0x83, 0x03, 0x1C, 0x00, 0x00, 
  0x1C, 0x1C, 0x00, 0x0E, 0x80, 0x03, 0x00, 0x80, 0x01, 0x38, 0x00, 0x80, 
  0x83, 0x3B, 0x0E, 0xF8, 0x03, 0x00, 0xFE, 0xC3, 0xDF, 0xFF, 0xFF, 0x00, 
  0xC0, 0xFF, 0xF9, 0x83, 0x03, 0x1C, 0x00, 0x00, 0x1C, 0x1C, 0x00, 0x0E, 
  0x80, 0x03, 0x00, 0x80, 0x01, 0x38, 0x00, 0x80, 0x83, 0x3B, 0x0E, 0x80, 
  0x03, 0x00, 0x80, 0xC3, 0xC1, 0x01, 0xE0, 0x00, 0xC0, 0xC1, 0x39, 0xC0, 
  0x0F, 0x1C, 0x00, 0x00, 0x1C, 0x1C, 0x80, 0x1F, 0x80, 0xFF, 0x3F, 0x80, 
  0x01, 0x1E, 0x00, 0x80, 0x83, 0x3B, 0x0E, 0x80, 0x03, 0x00, 0x80, 0xC3, 
  0xC1, 0x01, 0xE0, 0x00, 0xC0, 0xC1, 0x39, 0xE0, 0x1C, 0x1C, 0x00, 0xF8, 
  0x1F, 0x1C, 0xC0, 0x39, 0x80, 0x03, 0x00, 0x80, 0x81, 0x03, 0x00, 0x80, 
  0x83, 0x3F, 0xFC, 0x8F, 0x03, 0x00, 0xFC, 0xC1, 0x81, 0xFF, 0xE1, 0x00, 
  0x80, 0xFF, 0x38, 0x38, 0x38, 0x1C, 0x00, 0x38, 0x00, 0x1C, 0xFC, 0xE0, 
  0x83, 0x03, 0x00, 0x80, 0x81, 0x03, 0x00, 0x80, 0x83, 0x3F, 0xFC, 0x8F, 
  0x03, 0x00, 0xFC, 0xC1, 0x81, 0xFF, 0xE1, 0x00, 0x80, 0xFF, 0x38, 0x38, 
  0x38, 0x1C, 0x00, 0x38, 0x00, 0x1C, 0xFC, 0xE0, 0x83, 0x03, 0x00, 0x80, 
  0x81, 0x03, 0x00, 0x80, 0x83, 0x3B, 0x00, 0x00, 0x00, 0x00, 0x00, 0x00, 
  0x00, 0x00, 0x00, 0x00, 0x00, 0x00, 0x00, 0x00, 0x00, 0x00, 0x00, 0x38, 
  0x00, 0x1C, 0x00, 0x00, 0x00, 0xFE, 0xFF, 0x80, 0x81, 0x03, 0x00, 0x80, 
  0x83, 0x3B, 0xFC, 0xFF, 0x03, 0x0E, 0xFC, 0xFF, 0x81, 0xFF, 0xFF, 0xC0, 
  0x01, 0xFC, 0x0F, 0xE0, 0xFF, 0x1F, 0x00, 0x38, 0x00, 0x1C, 0x00, 0x00, 
  0x00, 0x00, 0x00, 0x80, 0x81, 0x03, 0x38, 0xC0, 0x8F, 0x3B, 0x00, 0x80, 
  0x03, 0x0E, 0x00, 0xC0, 0x81, 0x03, 0xE0, 0xC0, 0x81, 0x0F, 0x3C, 0x00, 
  0x00, 0x1C, 0x00, 0x38, 0x00, 0x1C, 0x00, 0x00, 0x00, 0x00, 0x00, 0x80, 
  0x81, 0x03, 0x38, 0xC0, 0x8F, 0x3B, 0x00, 0x80, 0x03, 0x0E, 0x00, 0xC0, 
  0x81, 0x03, 0xE0, 0xC0, 0x81, 0x0F, 0x3C, 0x00, 0x00, 0x1C, 0x00, 0x38, 
  0x00, 0x1C, 0x00, 0x00, 0x00, 0x00, 0x00, 0x80, 0x81, 0x03, 0x38, 0xE0, 
  0x9C, 0x3B, 0xFC, 0xFF, 0x03, 0x0E, 0xFC, 0xFF, 0x81, 0x03, 0xE0, 0xC0, 
  0x81, 0x03, 0x38, 0x00, 0x00, 0x1C, 0x00, 0x38, 0x1C, 0x1C, 0x00, 0x00, 
  0x00, 0x00, 0x00, 0x80, 0x01, 0x00, 0x00, 0x38, 0xB8, 0x3B, 0x1C, 0x00, 
  0x80, 0x03, 0x1C, 0x00, 0x80, 0x03, 0xE0, 0xE0, 0x80, 0x0F, 0x3C, 0x00, 
  0x00, 0x1C, 0x00, 0xE0, 0x0F, 0x1C, 0xFE, 0xFF, 0xCF, 0xFF, 0xFF, 0x81, 
  0x01, 0x00, 0x00, 0x00, 0x80, 0x3B, 0xF8, 0xFF, 0x03, 0x00, 0xF8, 0xFF, 
  0x01, 0xFE, 0x3F, 0x00, 0x00, 0xFC, 0x0F, 0x00, 0x00, 0x0C, 0x00, 0x00, 
  0x00, 0x1C, 0x00, 0x00, 0x00, 0x00, 0x00, 0x80, 0x01, 0x00, 0x00, 0x00, 
  0x80, 0x3B, 0xF8, 0xFF, 0x03, 0x00, 0xF8, 0xFF, 0x01, 0xFE, 0x3F, 0x00, 
  0x00, 0xFC, 0x0F, 0x00, 0x00, 0x0C, 0x00, 0x00, 0x00, 0x1C, 0x00, 0x00, 
  0x00, 0x00, 0x00, 0x80, 0x01, 0x00, 0x00, 0x00, 0x00, 0x00, 0x00, 0x00, 
  0x00, 0x00, 0x00, 0x00, 0x00, 0x00, 0x00, 0x00, 0x00, 0x00, 0x00, 0x00, 
  0x00, 0x00, 0x00, 0x00, 0x00, 0x00, 0x00, 0x00, 0x00, 0x00, 0x00, 0x80, 
  0x01, 0x00, 0x00, 0x00, 0x00, 0x00, 0x00, 0x00, 0x00, 0x00, 0x00, 0x00, 
  0x00, 0x00, 0x00, 0x00, 0x00, 0x00, 0x00, 0x00, 0x00, 0x00, 0x00, 0x00, 
  0x00, 0x00, 0x00, 0x00, 0x00, 0x00, 0x00, 0x80, 0x01, 0x00, 0x00, 0x00, 
  0x00, 0x00, 0x00, 0x00, 0x00, 0x00, 0x00, 0x00, 0x00, 0x00, 0x00, 0x00, 
  0x00, 0x00, 0x00, 0x00, 0x00, 0x00, 0x00, 0x00, 0x00, 0x00, 0x00, 0x00, 
  0x00, 0x00, 0x00, 0x80, 0x01, 0x00, 0x00, 0x00, 0x00, 0x00, 0x00, 0x00, 
  0x00, 0x00, 0x00, 0x00, 0x00, 0x00, 0x00, 0x00, 0x00, 0x00, 0x00, 0x00, 
  0x00, 0x00, 0x00, 0x00, 0x00, 0x00, 0x00, 0x00, 0x00, 0x00, 0x00, 0x80, 
  0x01, 0x00, 0x00, 0x00, 0x00, 0x00, 0x00, 0x00, 0x00, 0x00, 0x00, 0x00, 
  0x00, 0x00, 0x00, 0x00, 0x00, 0x00, 0x00, 0x00, 0x00, 0x00, 0x00, 0x00, 
  0x00, 0x00, 0x00, 0x00, 0x00, 0x00, 0x00, 0x80, 0x01, 0x00, 0x00, 0x00, 
  0x00, 0x00, 0x00, 0x00, 0x00, 0x00, 0x00, 0x00, 0x00, 0x00, 0x00, 0x00, 
  0x00, 0x00, 0x00, 0x00, 0x00, 0x00, 0x00, 0x00, 0x00, 0x00, 0x00, 0x00, 
  0x00, 0x00, 0x00, 0x80, 0x01, 0x00, 0x00, 0x00, 0x00, 0x00, 0x00, 0x00, 
  0x00, 0x00, 0x00, 0x00, 0x00, 0x00, 0x00, 0x00, 0x00, 0x00, 0x00, 0x00, 
  0x00, 0x00, 0x00, 0x00, 0x00, 0x00, 0x00, 0x00, 0x00, 0x00, 0x00, 0x80, 
  0xFF, 0xFF, 0xFF, 0xFF, 0xFF, 0xFF, 0xFF, 0xFF, 0xFF, 0xFF, 0xFF, 0xFF, 
  0xFF, 0xFF, 0xFF, 0xFF, 0xFF, 0xFF, 0xFF, 0xFF, 0xFF, 0xFF, 0xFF, 0xFF, 
  0xFF, 0xFF, 0xFF, 0xFF, 0xFF, 0xFF, 0xFF, 0xFF, };
